0
SECTION
2
HEADER
9
$INSUNITS
70
4
9
$ACADVER
1
AC1014
9
$HANDSEED
5
FFFF
0
ENDSEC
0
SECTION
2
TABLES
0
TABLE
2
VPORT
5
8
100
AcDbSymbolTable
0
ENDTAB
0
TABLE
2
LTYPE
5
5
100
AcDbSymbolTable
0
LTYPE
5
14
100
AcDbSymbolTableRecord
100
AcDbLinetypeTableRecord
2
BYBLOCK
70
0
0
LTYPE
5
15
100
AcDbSymbolTableRecord
100
AcDbLinetypeTableRecord
2
BYLAYER
70
0
0
ENDTAB
0
TABLE
2
LAYER
5
2
100
AcDbSymbolTable
70
2
0
LAYER
5
50
100
AcDbSymbolTableRecord
100
AcDbLayerTableRecord
2
0
70
0
6
CONTINUOUS
0
ENDTAB
0
TABLE
2
STYLE
5
3
100
AcDbSymbolTable
70
1
0
STYLE
5
11
100
AcDbSymbolTableRecord
100
AcDbTextStyleTableRecord
2
STANDARD
70
0
0
ENDTAB
0
TABLE
2
VIEW
5
6
100
AcDbSymbolTable
70
0
0
ENDTAB
0
TABLE
2
UCS
5
7
100
AcDbSymbolTable
70
0
0
ENDTAB
0
TABLE
2
APPID
5
9
100
AcDbSymbolTable
70
2
0
APPID
5
12
100
AcDbSymbolTableRecord
100
AcDbRegAppTableRecord
2
ACAD
70
0
0
ENDTAB
0
TABLE
2
DIMSTYLE
5
A
100
AcDbSymbolTable
70
1
0
ENDTAB
0
TABLE
2
BLOCK_RECORD
5
1
100
AcDbSymbolTable
70
1
0
BLOCK_RECORD
5
1F
100
AcDbSymbolTableRecord
100
AcDbBlockTableRecord
2
*MODEL_SPACE
0
BLOCK_RECORD
5
1B
100
AcDbSymbolTableRecord
100
AcDbBlockTableRecord
2
*PAPER_SPACE
0
ENDTAB
0
ENDSEC
0
SECTION
2
BLOCKS
0
BLOCK
5
20
100
AcDbEntity
100
AcDbBlockBegin
2
*MODEL_SPACE
0
ENDBLK
5
21
100
AcDbEntity
100
AcDbBlockEnd
0
BLOCK
5
1C
100
AcDbEntity
100
AcDbBlockBegin
2
*PAPER_SPACE
0
ENDBLK
5
1D
100
AcDbEntity
100
AcDbBlockEnd
0
ENDSEC
0
SECTION
2
ENTITIES
0
LWPOLYLINE
5
100
100
AcDbEntity
8
0
100
AcDbPolyline
90
8
70
1
43
0.0
10
21.496902465769608
20
5.986065682015731
10
233.49690246576961
20
5.9860656820157399
42
-0.41421356237309681
10
237.49690246576961
20
1.9860656820157307
10
237.49690246576961
20
-70.013934317984251
42
-0.41421356237309698
10
233.49690246576961
20
-74.013934317984265
10
21.496902465769594
20
-74.013934317984265
42
-0.4142135623730937
10
17.496902465769608
20
-70.013934317984265
10
17.496902465769605
20
1.986065682015727
42
-0.41421356237309581
0
LWPOLYLINE
5
101
100
AcDbEntity
8
0
100
AcDbPolyline
90
6
70
1
43
0.0
10
100.09090653632229
20
-22.713934317984339
10
62.790906536322318
20
-22.713934317984339
10
57.290906536322268
20
-28.213934317984336
10
57.290906536322268
20
-45.213934317984339
10
62.790906536322346
20
-50.713934317984339
10
100.09090653632229
20
-50.713934317984339
0
LINE
5
102
100
AcDbEntity
8
0
100
AcDbLine
10
57.290906536322268
20
-28.213934317984336
30
0
11
84.405638611372353
21
-28.213934317984325
31
0
0
LINE
5
103
100
AcDbEntity
8
0
100
AcDbLine
10
57.290906536322268
20
-36.713934317984346
30
0
11
100.09090653632228
21
-36.713934317984339
31
0
0
CIRCLE
5
104
100
AcDbEntity
8
0
100
AcDbCircle
10
53.440906536322274
20
-36.713934317984346
30
0
40
1.8500000000000001
210
0
220
0
230
1
0
CIRCLE
5
105
100
AcDbEntity
8
0
100
AcDbCircle
10
103.94090653632227
20
-36.713934317984339
30
0
40
1.8500000000000001
210
0
220
0
230
1
0
LINE
5
106
100
AcDbEntity
8
0
100
AcDbLine
10
78.690906536322274
20
-22.713934317984339
30
0
11
78.690906536322274
21
-50.713934317984339
31
0
0
LINE
5
107
100
AcDbEntity
8
0
100
AcDbLine
10
37.496902465769608
20
5.986065682015731
30
0
11
37.496902465769608
21
-74.013934317984265
31
0
0
LINE
5
108
100
AcDbEntity
8
0
100
AcDbLine
10
17.496902465769608
20
-54.013934317984265
30
0
11
237.49690246576961
21
-54.013934317984265
31
0
0
LINE
5
109
100
AcDbEntity
8
0
100
AcDbLine
10
217.49690246576961
20
5.986065682015731
30
0
11
217.49690246576961
21
-74.013934317984265
31
0
0
LWPOLYLINE
5
110
100
AcDbEntity
8
0
100
AcDbPolyline
90
8
70
1
43
0.0
10
57.496902465769637
20
-74.013934317984265
10
21.496902465769612
20
-74.013934317984265
42
-0.41421356237309503
10
17.496902465769608
20
-70.013934317984265
10
17.496902465769608
20
-34.013934317984265
10
37.493801690536685
20
-34.013934317984258
42
-0.19888866773012565
10
39.614928580044115
20
-34.892420538015564
10
56.618029355281664
20
-51.892420538017412
42
-0.19893606724413573
10
57.496902465769644
20
-54.013934317984237
0
CIRCLE
5
111
100
AcDbEntity
8
0
100
AcDbCircle
10
27.496902465769608
20
-44.013934317984265
30
0
40
3.0000000000000004
210
0
220
0
230
1
0
CIRCLE
5
112
100
AcDbEntity
8
0
100
AcDbCircle
10
47.496902465769644
20
-64.013934317984265
30
0
40
3.0000000000000004
210
0
220
0
230
1
0
LINE
5
113
100
AcDbEntity
8
0
100
AcDbLine
10
127.49690246576961
20
5.986065682015731
30
0
11
127.49690246576961
21
-74.013934317984265
31
0
0
CIRCLE
5
114
100
AcDbEntity
8
0
100
AcDbCircle
10
227.49690246576961
20
-44.013934317984315
30
0
40
3.0000000000000004
210
0
220
0
230
1
0
LINE
5
115
100
AcDbEntity
8
0
100
AcDbLine
10
237.49690246576961
20
-34.013934317984315
30
0
11
217.50000324100256
21
-34.013934317984308
31
0
0
LINE
5
116
100
AcDbEntity
8
0
100
AcDbLine
10
197.49690246576961
20
-74.013934317984308
30
0
11
233.49690246576961
21
-74.013934317984322
31
0
0
LINE
5
117
100
AcDbEntity
8
0
100
AcDbLine
10
197.49690246576958
20
-54.013934317984265
30
0
11
197.49690246576961
21
-74.013934317984308
31
0
0
LINE
5
118
100
AcDbEntity
8
0
100
AcDbLine
10
237.49690246576961
20
-70.013934317984322
30
0
11
237.49690246576961
21
-34.013934317984315
31
0
0
CIRCLE
5
119
100
AcDbEntity
8
0
100
AcDbCircle
10
207.49690246576958
20
-64.013934317984308
30
0
40
3.0000000000000004
210
0
220
0
230
1
0
LINE
5
120
100
AcDbEntity
8
0
100
AcDbLine
10
49.090906536322272
20
-36.713934317984339
30
0
11
57.290906536322268
21
-21.413934317984364
31
0
0
LINE
5
121
100
AcDbEntity
8
0
100
AcDbLine
10
100.09090653632228
20
-21.413934317984346
30
0
11
108.29090653632228
21
-36.713934317984339
31
0
0
LINE
5
122
100
AcDbEntity
8
0
100
AcDbLine
10
100.09090653632228
20
-21.413934317984346
30
0
11
57.290906536322268
21
-21.413934317984364
31
0
0
LINE
5
123
100
AcDbEntity
8
0
100
AcDbLine
10
49.090906536322272
20
-36.713934317984268
30
0
11
57.290906536322261
21
-52.013934317984258
31
0
0
LINE
5
124
100
AcDbEntity
8
0
100
AcDbLine
10
100.09090653632228
20
-52.01393431798428
30
0
11
57.290906536322261
21
-52.013934317984258
31
0
0
LINE
5
125
100
AcDbEntity
8
0
100
AcDbLine
10
100.09090653632228
20
-52.01393431798428
30
0
11
108.29090653632228
21
-36.713934317984346
31
0
0
LINE
5
126
100
AcDbEntity
8
0
100
AcDbLine
10
17.496902465769608
20
-14.013934317984269
30
0
11
237.49690246576961
21
-14.013934317984269
31
0
0
CIRCLE
5
127
100
AcDbEntity
8
0
100
AcDbCircle
10
227.49690246576961
20
-24.013934317984269
30
0
40
2.9999999999999956
210
0
220
0
230
1
0
CIRCLE
5
128
100
AcDbEntity
8
0
100
AcDbCircle
10
227.49690246576961
20
-4.013934317984269
30
0
40
2.9999999999999991
210
0
220
0
230
1
0
CIRCLE
5
129
100
AcDbEntity
8
0
100
AcDbCircle
10
207.49690246576961
20
-4.013934317984269
30
0
40
2.9999999999999898
210
0
220
0
230
1
0
CIRCLE
5
130
100
AcDbEntity
8
0
100
AcDbCircle
10
227.49690246576961
20
-64.013934317984265
30
0
40
2.9999999999999982
210
0
220
0
230
1
0
CIRCLE
5
131
100
AcDbEntity
8
0
100
AcDbCircle
10
27.496902465769608
20
-64.013934317984265
30
0
40
3.0000000000000022
210
0
220
0
230
1
0
CIRCLE
5
132
100
AcDbEntity
8
0
100
AcDbCircle
10
27.496902465769608
20
-24.013934317984269
30
0
40
3.0000000000000004
210
0
220
0
230
1
0
CIRCLE
5
133
100
AcDbEntity
8
0
100
AcDbCircle
10
27.496902465769608
20
-4.013934317984269
30
0
40
2.9999999999999991
210
0
220
0
230
1
0
CIRCLE
5
134
100
AcDbEntity
8
0
100
AcDbCircle
10
47.496902465769608
20
-4.013934317984269
30
0
40
3.0000000000000031
210
0
220
0
230
1
0
LWPOLYLINE
5
135
100
AcDbEntity
8
0
100
AcDbPolyline
90
4
70
1
43
0.0
10
157.49690246576964
20
-34.013934317984265
10
217.49690246576961
20
-34.013934317984265
10
217.49690246576961
20
-54.013934317984265
10
157.49690246576964
20
-54.013934317984265
0
CIRCLE
5
136
100
AcDbEntity
8
0
100
AcDbCircle
10
68.996902465769608
20
-7.5139343179842699
30
0
40
7.8500000000000014
210
0
220
0
230
1
0
CIRCLE
5
137
100
AcDbEntity
8
0
100
AcDbCircle
10
68.996902465769608
20
-7.5139343179842699
30
0
40
11.500000000000004
210
0
220
0
230
1
0
CIRCLE
5
138
100
AcDbEntity
8
0
100
AcDbCircle
10
185.99690246576961
20
-7.5139343179842699
30
0
40
11.500000000000004
210
0
220
0
230
1
0
CIRCLE
5
139
100
AcDbEntity
8
0
100
AcDbCircle
10
185.99690246576961
20
-7.5139343179842699
30
0
40
7.8500000000000014
210
0
220
0
230
1
0
CIRCLE
5
140
100
AcDbEntity
8
0
100
AcDbCircle
10
132.92787085162388
20
-41.610005123470799
30
0
40
7.8500000000000014
210
0
220
0
230
1
0
CIRCLE
5
141
100
AcDbEntity
8
0
100
AcDbCircle
10
132.92787085162388
20
-41.610005123470799
30
0
40
11.500000000000004
210
0
220
0
230
1
0
ARC
5
142
100
AcDbEntity
8
0
100
AcDbCircle
10
233.49690246576961
20
-70.013934317984322
30
0
40
3.9999999999999947
210
0
220
0
230
1
100
AcDbArc
50
-90
51
0
0
ENDSEC
0
SECTION
2
OBJECTS
0
DICTIONARY
5
C
100
AcDbDictionary
3
ACAD_GROUP
350
D
3
ACAD_MLINESTYLE
350
17
0
DICTIONARY
5
D
100
AcDbDictionary
0
DICTIONARY
5
1A
330
C
100
AcDbDictionary
0
DICTIONARY
5
17
100
AcDbDictionary
0
ENDSEC
0
EOF
