0
SECTION
2
HEADER
9
$INSUNITS
70
4
9
$ACADVER
1
AC1014
9
$HANDSEED
5
FFFF
0
ENDSEC
0
SECTION
2
TABLES
0
TABLE
2
VPORT
5
8
100
AcDbSymbolTable
0
ENDTAB
0
TABLE
2
LTYPE
5
5
100
AcDbSymbolTable
0
LTYPE
5
14
100
AcDbSymbolTableRecord
100
AcDbLinetypeTableRecord
2
BYBLOCK
70
0
0
LTYPE
5
15
100
AcDbSymbolTableRecord
100
AcDbLinetypeTableRecord
2
BYLAYER
70
0
0
ENDTAB
0
TABLE
2
LAYER
5
2
100
AcDbSymbolTable
70
2
0
LAYER
5
50
100
AcDbSymbolTableRecord
100
AcDbLayerTableRecord
2
0
70
0
6
CONTINUOUS
0
ENDTAB
0
TABLE
2
STYLE
5
3
100
AcDbSymbolTable
70
1
0
STYLE
5
11
100
AcDbSymbolTableRecord
100
AcDbTextStyleTableRecord
2
STANDARD
70
0
0
ENDTAB
0
TABLE
2
VIEW
5
6
100
AcDbSymbolTable
70
0
0
ENDTAB
0
TABLE
2
UCS
5
7
100
AcDbSymbolTable
70
0
0
ENDTAB
0
TABLE
2
APPID
5
9
100
AcDbSymbolTable
70
2
0
APPID
5
12
100
AcDbSymbolTableRecord
100
AcDbRegAppTableRecord
2
ACAD
70
0
0
ENDTAB
0
TABLE
2
DIMSTYLE
5
A
100
AcDbSymbolTable
70
1
0
ENDTAB
0
TABLE
2
BLOCK_RECORD
5
1
100
AcDbSymbolTable
70
1
0
BLOCK_RECORD
5
1F
100
AcDbSymbolTableRecord
100
AcDbBlockTableRecord
2
*MODEL_SPACE
0
BLOCK_RECORD
5
1B
100
AcDbSymbolTableRecord
100
AcDbBlockTableRecord
2
*PAPER_SPACE
0
ENDTAB
0
ENDSEC
0
SECTION
2
BLOCKS
0
BLOCK
5
20
100
AcDbEntity
100
AcDbBlockBegin
2
*MODEL_SPACE
0
ENDBLK
5
21
100
AcDbEntity
100
AcDbBlockEnd
0
BLOCK
5
1C
100
AcDbEntity
100
AcDbBlockBegin
2
*PAPER_SPACE
0
ENDBLK
5
1D
100
AcDbEntity
100
AcDbBlockEnd
0
ENDSEC
0
SECTION
2
ENTITIES
0
LINE
5
100
100
AcDbEntity
8
0
100
AcDbLine
10
65.500000478164367
20
30.278073775097383
30
0
11
173.80195162055344
21
-67.094210082365464
31
0
0
LINE
5
101
100
AcDbEntity
8
0
100
AcDbLine
10
173.80195162055344
20
-67.094210082365464
30
0
11
198.01458527711156
21
-109.810122108971
31
0
0
LINE
5
102
100
AcDbEntity
8
0
100
AcDbLine
10
-11.674234521863092
20
30.278073775097383
30
0
11
65.500000478164367
21
30.278073775097383
31
0
0
LWPOLYLINE
5
103
100
AcDbEntity
8
0
100
AcDbPolyline
90
7
70
1
43
0.0
10
65.500000478164367
20
30.278073775097383
10
65.500000478164367
20
130.27807377509737
10
22.368542334173828
20
130.2780737750974
10
-11.674234521863092
20
30.278073775097383
10
-11.674234521863101
20
-77.221926224757624
10
76.813708977149119
20
-77.221926224757624
10
65.500000478164367
20
-65.908217725772857
0
LINE
5
104
100
AcDbEntity
8
0
100
AcDbLine
10
-51.544556549640816
20
-87.085025337907155
30
0
11
-11.674234521863092
21
30.278073775097383
31
0
0
LINE
5
105
100
AcDbEntity
8
0
100
AcDbLine
10
173.80195162055344
20
-67.094210082365464
30
0
11
173.80195162055344
21
58.568233647786926
31
0
0
LINE
5
106
100
AcDbEntity
8
0
100
AcDbLine
10
65.500000478164367
20
130.27807377509737
30
0
11
149.38993076219231
21
130.27807377509737
31
0
0
LINE
5
107
100
AcDbEntity
8
0
100
AcDbLine
10
22.368542334173828
20
130.2780737750974
30
0
11
22.368542334173846
21
180.27807377509737
31
0
0
LINE
5
108
100
AcDbEntity
8
0
100
AcDbLine
10
22.368542334173846
20
180.27807377509737
30
0
11
47.368542334173853
21
180.27807377509737
31
0
0
LINE
5
109
100
AcDbEntity
8
0
100
AcDbLine
10
47.368542334173853
20
180.27807377509737
30
0
11
47.368542334173839
21
130.27807377509737
31
0
0
LINE
5
110
100
AcDbEntity
8
0
100
AcDbLine
10
107.36854233417387
20
130.27807377509737
30
0
11
107.36854233417387
21
180.27807377509737
31
0
0
LINE
5
111
100
AcDbEntity
8
0
100
AcDbLine
10
159.99923547807967
20
-77.721926224806737
30
0
11
108.34923547813133
21
-77.721926224737132
31
0
0
LINE
5
112
100
AcDbEntity
8
0
100
AcDbLine
10
76.813708977149119
20
-77.221926224757624
30
0
11
163.67423547816131
21
-77.221926224757624
31
0
0
LINE
5
113
100
AcDbEntity
8
0
100
AcDbLine
10
173.80195162055344
20
-67.094210082365464
30
0
11
163.67423547816131
21
-77.221926224757624
31
0
0
LINE
5
114
100
AcDbEntity
8
0
100
AcDbLine
10
76.813708977149119
20
-77.221926224757624
30
0
11
51.252610541233977
21
-77.221926224757624
31
0
0
LINE
5
115
100
AcDbEntity
8
0
100
AcDbLine
10
150.03850360757184
20
130.27807377509737
30
0
11
76.299820388484505
21
130.27807377509737
31
0
0
LINE
5
116
100
AcDbEntity
8
0
100
AcDbLine
10
107.36854233417387
20
180.27807377509737
30
0
11
132.36854233417387
21
180.27807377509737
31
0
0
LINE
5
117
100
AcDbEntity
8
0
100
AcDbLine
10
132.36854233417387
20
180.27807377509737
30
0
11
173.80195162055344
21
58.568233647786926
31
0
0
CIRCLE
5
118
100
AcDbEntity
8
0
100
AcDbCircle
10
124.9742354780649
20
-36.214926191058829
30
0
40
2.5999999999999974
210
0
220
-0
230
1
0
CIRCLE
5
119
100
AcDbEntity
8
0
100
AcDbCircle
10
134.17423547804086
20
-72.221926224714451
30
0
40
2.5999999999999974
210
0
220
-0
230
1
0
LINE
5
120
100
AcDbEntity
8
0
100
AcDbLine
10
34.868542334173853
20
180.27807377509737
30
0
11
34.868542334173839
21
30.278073775097383
31
0
0
LINE
5
121
100
AcDbEntity
8
0
100
AcDbLine
10
119.86854233417387
20
180.27807377509737
30
0
11
119.86854233417378
21
-18.603677981705928
31
0
0
CIRCLE
5
122
100
AcDbEntity
8
0
100
AcDbCircle
10
34.868542334173846
20
105.2780737750974
30
0
40
2.75
210
0
220
0
230
1
0
CIRCLE
5
123
100
AcDbEntity
8
0
100
AcDbCircle
10
34.868542334173831
20
55.278073775097383
30
0
40
2.75
210
0
220
0
230
1
0
CIRCLE
5
124
100
AcDbEntity
8
0
100
AcDbCircle
10
119.86854233417378
20
6.3963220182940717
30
0
40
2.75
210
0
220
0
230
1
0
CIRCLE
5
125
100
AcDbEntity
8
0
100
AcDbCircle
10
119.86854233417382
20
105.27807377509738
30
0
40
2.75
210
0
220
0
230
1
0
CIRCLE
5
126
100
AcDbEntity
8
0
100
AcDbCircle
10
119.86854233417381
20
55.278073775097383
30
0
40
2.7500000000000009
210
0
220
0
230
1
0
ENDSEC
0
SECTION
2
OBJECTS
0
DICTIONARY
5
C
100
AcDbDictionary
3
ACAD_GROUP
350
D
3
ACAD_MLINESTYLE
350
17
0
DICTIONARY
5
D
100
AcDbDictionary
0
DICTIONARY
5
1A
330
C
100
AcDbDictionary
0
DICTIONARY
5
17
100
AcDbDictionary
0
ENDSEC
0
EOF
