0
SECTION
2
HEADER
9
$INSUNITS
70
4
9
$ACADVER
1
AC1014
9
$HANDSEED
5
FFFF
0
ENDSEC
0
SECTION
2
TABLES
0
TABLE
2
VPORT
5
8
100
AcDbSymbolTable
0
ENDTAB
0
TABLE
2
LTYPE
5
5
100
AcDbSymbolTable
0
LTYPE
5
14
100
AcDbSymbolTableRecord
100
AcDbLinetypeTableRecord
2
BYBLOCK
70
0
0
LTYPE
5
15
100
AcDbSymbolTableRecord
100
AcDbLinetypeTableRecord
2
BYLAYER
70
0
0
ENDTAB
0
TABLE
2
LAYER
5
2
100
AcDbSymbolTable
70
2
0
LAYER
5
50
100
AcDbSymbolTableRecord
100
AcDbLayerTableRecord
2
0
70
0
6
CONTINUOUS
0
ENDTAB
0
TABLE
2
STYLE
5
3
100
AcDbSymbolTable
70
1
0
STYLE
5
11
100
AcDbSymbolTableRecord
100
AcDbTextStyleTableRecord
2
STANDARD
70
0
0
ENDTAB
0
TABLE
2
VIEW
5
6
100
AcDbSymbolTable
70
0
0
ENDTAB
0
TABLE
2
UCS
5
7
100
AcDbSymbolTable
70
0
0
ENDTAB
0
TABLE
2
APPID
5
9
100
AcDbSymbolTable
70
2
0
APPID
5
12
100
AcDbSymbolTableRecord
100
AcDbRegAppTableRecord
2
ACAD
70
0
0
ENDTAB
0
TABLE
2
DIMSTYLE
5
A
100
AcDbSymbolTable
70
1
0
ENDTAB
0
TABLE
2
BLOCK_RECORD
5
1
100
AcDbSymbolTable
70
1
0
BLOCK_RECORD
5
1F
100
AcDbSymbolTableRecord
100
AcDbBlockTableRecord
2
*MODEL_SPACE
0
BLOCK_RECORD
5
1B
100
AcDbSymbolTableRecord
100
AcDbBlockTableRecord
2
*PAPER_SPACE
0
ENDTAB
0
ENDSEC
0
SECTION
2
BLOCKS
0
BLOCK
5
20
100
AcDbEntity
100
AcDbBlockBegin
2
*MODEL_SPACE
0
ENDBLK
5
21
100
AcDbEntity
100
AcDbBlockEnd
0
BLOCK
5
1C
100
AcDbEntity
100
AcDbBlockBegin
2
*PAPER_SPACE
0
ENDBLK
5
1D
100
AcDbEntity
100
AcDbBlockEnd
0
ENDSEC
0
SECTION
2
ENTITIES
0
LWPOLYLINE
5
100
100
AcDbEntity
8
0
100
AcDbPolyline
90
4
70
1
43
0.0
10
62.705296428581001
20
41.488393494050669
10
55.8052964285679
20
41.488393494050662
10
55.805296428568226
20
-353.51160650594932
10
62.70529642858132
20
-353.51160650594932
0
LWPOLYLINE
5
101
100
AcDbEntity
8
0
100
AcDbPolyline
90
4
70
1
43
0.0
10
75.805296428567914
20
41.488393494050683
10
68.905296428554863
20
41.488393494050669
10
68.905296428555175
20
-353.51160650594932
10
75.805296428568226
20
-353.51160650594932
0
LWPOLYLINE
5
102
100
AcDbEntity
8
0
100
AcDbPolyline
90
6
70
1
43
0.0
10
505.8802964285677
20
41.488393494051017
10
498.98029642856778
20
41.488393494051017
10
518.98029642856795
20
41.48839349405101
10
518.98029642856818
20
-353.51160650594898
10
498.98029642856807
20
-353.51160650594898
10
505.88029642856793
20
-353.51160650594909
0
LINE
5
103
100
AcDbEntity
8
0
100
AcDbLine
10
498.98029642856778
20
41.488393494051017
30
3.5527136788005009e-14
11
498.98029642856807
21
-353.51160650594898
31
-3.5527136788005104e-14
0
LINE
5
104
100
AcDbEntity
8
0
100
AcDbLine
10
518.98029642856795
20
41.488393494051039
30
0
11
512.08029642856775
21
41.488393494051024
31
8.9200561310055446e-31
0
LINE
5
105
100
AcDbEntity
8
0
100
AcDbLine
10
512.08029642856775
20
41.488393494051024
30
8.9200561310055446e-31
11
512.08029642856809
21
-353.51160650594909
31
-3.5527136788005085e-14
0
LINE
5
106
100
AcDbEntity
8
0
100
AcDbLine
10
512.08029642856809
20
-353.51160650594909
30
-3.5527136788005085e-14
11
518.98029642856818
21
-353.51160650594898
31
3.5527136788005009e-14
0
LINE
5
107
100
AcDbEntity
8
0
100
AcDbLine
10
75.80529642856807
20
-253.25551510265652
30
1.7763568394002505e-14
11
77.000001147389412
21
-253.25551510265652
31
1.7763568394002505e-14
0
LINE
5
108
100
AcDbEntity
8
0
100
AcDbLine
10
55.805296428568141
20
-274.5116065059479
30
3.5527136788004959e-14
11
518.98029642856818
21
-274.5116065059479
31
2.6782485283208816e-14
0
LINE
5
109
100
AcDbEntity
8
0
100
AcDbLine
10
512.98029642856795
20
41.488393494052119
30
0
11
61.805296428568184
21
41.488393494052119
31
0
0
LWPOLYLINE
5
110
100
AcDbEntity
8
0
100
AcDbPolyline
90
4
70
1
43
0.0
10
62.705296428581775
20
41.488393494051373
10
55.805296428568674
20
41.488393494051365
10
55.805296428568994
20
-353.51160650594863
10
62.705296428582088
20
-353.51160650594863
0
LINE
5
111
100
AcDbEntity
8
0
100
AcDbLine
10
55.805296428568674
20
41.488393494051365
30
-1.1982697294499003e-30
11
75.805296428567914
21
41.488393494050683
31
3.5527136788005009e-14
0
LINE
5
112
100
AcDbEntity
8
0
100
AcDbLine
10
55.805296428568994
20
-353.51160650594863
30
0
11
75.805296428568226
21
-353.51160650594932
31
7.2409867416535951e-31
0
LINE
5
113
100
AcDbEntity
8
0
100
AcDbLine
10
65.80529642856861
20
-353.51160650594898
30
3.6204933708267975e-31
11
65.805296428568298
21
41.488393494051024
31
1.7763568394002501e-14
0
LINE
5
114
100
AcDbEntity
8
0
100
AcDbLine
10
508.98029642856812
20
-353.51160650594898
30
-4.7331654313260708e-29
11
508.98029642856784
21
41.488393494051024
31
1.7763568394002505e-14
0
LINE
5
115
100
AcDbEntity
8
0
100
AcDbLine
10
65.805296428568553
20
-274.5116065059479
30
3.533833878498674e-14
11
65.805296428568568
21
-184.5116065059479
31
3.533833878498674e-14
0
ENDSEC
0
SECTION
2
OBJECTS
0
DICTIONARY
5
C
100
AcDbDictionary
3
ACAD_GROUP
350
D
3
ACAD_MLINESTYLE
350
17
0
DICTIONARY
5
D
100
AcDbDictionary
0
DICTIONARY
5
1A
330
C
100
AcDbDictionary
0
DICTIONARY
5
17
100
AcDbDictionary
0
ENDSEC
0
EOF
