<?xml version="1.0" encoding="UTF-8"?><svg id="Layer_2" xmlns="http://www.w3.org/2000/svg" viewBox="0 0 58.64 66.85"><defs><style>.cls-1{fill:none;stroke:#000;stroke-linecap:round;stroke-linejoin:round;stroke-width:.71px;}</style></defs><g id="_4"><g id="SPLINE"><path class="cls-1" d="M41.36,65.84c.77,.73,1.94,.86,2.86,.33"/></g><g id="SPLINE-2"><path class="cls-1" d="M57.08,58.75c.92-.53,1.38-1.6,1.14-2.64"/></g><g id="SPLINE-3"><path class="cls-1" d="M58.22,56.11c-3.52-14.92-3.52-30.45,0-45.37"/></g><g id="SPLINE-4"><path class="cls-1" d="M58.22,10.74c.24-1.04-.22-2.11-1.14-2.64"/></g><g id="LWPOLYLINE"><line class="cls-1" x1="44.22" y1="66.18" x2="57.08" y2="58.75"/></g><g id="SPLINE-5"><path class="cls-1" d="M44.22,.68c-.92-.53-2.08-.4-2.86,.33"/></g><g id="SPLINE-6"><path class="cls-1" d="M41.36,1.01C30.2,11.52,16.75,19.28,2.07,23.69"/></g><g id="SPLINE-7"><path class="cls-1" d="M2.07,23.69c-1.02,.31-1.72,1.24-1.72,2.31"/></g><g id="LWPOLYLINE-2"><line class="cls-1" x1="57.08" y1="8.1" x2="44.22" y2=".68"/></g><g id="SPLINE-8"><path class="cls-1" d="M.35,40.85c0,1.06,.7,2,1.72,2.31"/></g><g id="SPLINE-9"><path class="cls-1" d="M2.07,43.16c14.68,4.41,28.13,12.18,39.29,22.68"/></g><g id="LWPOLYLINE-3"><line class="cls-1" x1=".35" y1="26" x2=".35" y2="40.85"/></g><g id="SPLINE-10"><path class="cls-1" d="M22.76,29.81c.88,0,1.7-.48,2.12-1.26"/></g><g id="SPLINE-11"><path class="cls-1" d="M24.88,28.55c1.84-3.39,5.43-5.46,9.28-5.36"/></g><g id="SPLINE-12"><path class="cls-1" d="M34.16,23.19c.88,.02,1.71-.44,2.15-1.2"/></g><g id="LWPOLYLINE-4"><line class="cls-1" x1="8.39" y1="29.81" x2="22.76" y2="29.81"/></g><g id="SPLINE-13"><path class="cls-1" d="M43.5,9.54c.67-1.15,2.14-1.55,3.29-.88"/></g><g id="LWPOLYLINE-5"><line class="cls-1" x1="36.31" y1="21.99" x2="43.5" y2="9.54"/></g><g id="SPLINE-14"><path class="cls-1" d="M48.88,9.86c1.15,.67,1.55,2.14,.88,3.29"/></g><g id="LWPOLYLINE-6"><line class="cls-1" x1="46.79" y1="8.66" x2="48.88" y2="9.86"/></g><g id="SPLINE-15"><path class="cls-1" d="M42.57,25.6c-.44,.77-.43,1.71,.03,2.47"/></g><g id="SPLINE-16"><path class="cls-1" d="M42.61,28.07c2.02,3.29,2.02,7.43,0,10.72"/></g><g id="SPLINE-17"><path class="cls-1" d="M42.61,38.79c-.46,.75-.48,1.7-.03,2.47"/></g><g id="LWPOLYLINE-7"><line class="cls-1" x1="49.76" y1="13.15" x2="42.57" y2="25.6"/></g><g id="SPLINE-18"><path class="cls-1" d="M49.76,53.7c.67,1.15,.27,2.63-.88,3.29"/></g><g id="LWPOLYLINE-8"><line class="cls-1" x1="42.57" y1="41.25" x2="49.76" y2="53.7"/></g><g id="SPLINE-19"><path class="cls-1" d="M46.79,58.2c-1.15,.67-2.63,.27-3.29-.88"/></g><g id="LWPOLYLINE-9"><line class="cls-1" x1="48.88" y1="56.99" x2="46.79" y2="58.2"/></g><g id="SPLINE-20"><path class="cls-1" d="M36.31,44.87c-.44-.77-1.27-1.23-2.15-1.2"/></g><g id="SPLINE-21"><path class="cls-1" d="M34.16,43.66c-3.86,.11-7.45-1.97-9.28-5.36"/></g><g id="SPLINE-22"><path class="cls-1" d="M24.88,38.3c-.42-.78-1.23-1.26-2.12-1.26"/></g><g id="LWPOLYLINE-10"><line class="cls-1" x1="43.5" y1="57.32" x2="36.31" y2="44.87"/></g><g id="SPLINE-23"><path class="cls-1" d="M8.39,37.04c-1.33,0-2.41-1.08-2.41-2.41"/></g><g id="LWPOLYLINE-11"><line class="cls-1" x1="22.76" y1="37.04" x2="8.39" y2="37.04"/></g><g id="SPLINE-24"><path class="cls-1" d="M5.98,32.22c0-1.33,1.08-2.41,2.41-2.41"/></g><g id="LWPOLYLINE-12"><line class="cls-1" x1="5.98" y1="34.63" x2="5.98" y2="32.22"/></g></g></svg>