<?xml version="1.0" encoding="UTF-8"?><svg id="Layer_2" xmlns="http://www.w3.org/2000/svg" viewBox="0 0 550.17 66.85"><defs><style>.cls-1{fill:none;stroke:#000;stroke-linecap:round;stroke-linejoin:round;stroke-width:.71px;}</style></defs><g id="_"><g id="SPLINE"><path class="cls-1" d="M7.89,.35C3.76,.35,.35,3.76,.35,7.9"/></g><g id="SPLINE-2"><path class="cls-1" d="M.35,58.96c0,4.14,3.4,7.54,7.54,7.54"/></g><g id="LWPOLYLINE"><line class="cls-1" x1=".35" y1="7.9" x2=".35" y2="58.96"/></g><g id="SPLINE-3"><path class="cls-1" d="M112.74,66.5c-1.76-1.57-3.57-3.07-5.43-4.5"/></g><g id="LWPOLYLINE-2"><line class="cls-1" x1="7.89" y1="66.5" x2="112.74" y2="66.5"/></g><g id="SPLINE-4"><path class="cls-1" d="M7.89,62c-1.72,0-3.04-1.32-3.04-3.04"/></g><g id="LWPOLYLINE-3"><line class="cls-1" x1="107.3" y1="62" x2="7.89" y2="62"/></g><g id="SPLINE-5"><path class="cls-1" d="M4.85,7.9c0-1.72,1.32-3.04,3.04-3.04"/></g><g id="LWPOLYLINE-4"><line class="cls-1" x1="4.85" y1="58.96" x2="4.85" y2="7.9"/></g><g id="SPLINE-6"><path class="cls-1" d="M107.3,4.85c1.86-1.43,3.68-2.93,5.43-4.5"/></g><g id="LWPOLYLINE-5"><line class="cls-1" x1="7.89" y1="4.85" x2="107.3" y2="4.85"/></g><g id="LWPOLYLINE-6"><line class="cls-1" x1="112.74" y1=".35" x2="7.89" y2=".35"/></g><g id="SPLINE-7"><path class="cls-1" d="M542.28,4.85c1.72,0,3.04,1.32,3.04,3.04"/></g><g id="LWPOLYLINE-7"><polyline class="cls-1" points="125.83 .35 133.62 4.85 542.28 4.85"/></g><g id="SPLINE-8"><path class="cls-1" d="M545.32,58.96c0,1.72-1.32,3.04-3.04,3.04"/></g><g id="LWPOLYLINE-8"><line class="cls-1" x1="545.32" y1="7.9" x2="545.32" y2="58.96"/></g><g id="SPLINE-9"><path class="cls-1" d="M542.28,66.5c4.14,0,7.54-3.4,7.54-7.54"/></g><g id="LWPOLYLINE-9"><polyline class="cls-1" points="542.28 62 133.62 62 125.83 66.5 542.28 66.5"/></g><g id="SPLINE-10"><path class="cls-1" d="M549.82,7.9c0-4.14-3.4-7.54-7.54-7.54"/></g><g id="LWPOLYLINE-10"><line class="cls-1" x1="549.82" y1="58.96" x2="549.82" y2="7.9"/></g><g id="SPLINE-11"><path class="cls-1" d="M28.79,57.5c-1.4,0-2.38-.67-2.92-2.02"/></g><g id="LWPOLYLINE-11"><line class="cls-1" x1="542.28" y1=".35" x2="125.83" y2=".35"/></g><g id="SPLINE-12"><path class="cls-1" d="M9.71,14.17c-.24-.62-.36-1.16-.36-1.63"/></g><g id="SPLINE-13"><path class="cls-1" d="M9.35,12.54c0-.44,.08-.85,.24-1.23"/></g><g id="SPLINE-14"><path class="cls-1" d="M9.59,11.31c.16-.4,.38-.74,.66-1.02"/></g><g id="SPLINE-15"><path class="cls-1" d="M10.25,10.28c.3-.3,.64-.53,1.02-.69"/></g><g id="SPLINE-16"><path class="cls-1" d="M11.28,9.59c.38-.16,.8-.24,1.26-.24"/></g><g id="SPLINE-17"><path class="cls-1" d="M12.54,9.35c1.4,0,2.39,.63,2.95,1.9"/></g><g id="LWPOLYLINE-12"><line class="cls-1" x1="25.87" y1="55.49" x2="9.71" y2="14.17"/></g><g id="SPLINE-18"><path class="cls-1" d="M42.09,11.25c.48-1.26,1.46-1.9,2.95-1.9"/></g><g id="SPLINE-19"><path class="cls-1" d="M45.04,9.35c.44,0,.85,.08,1.23,.24"/></g><g id="SPLINE-20"><path class="cls-1" d="M46.28,9.59c.4,.16,.74,.39,1.02,.69"/></g><g id="SPLINE-21"><path class="cls-1" d="M47.3,10.28c.3,.28,.53,.62,.69,1.02"/></g><g id="SPLINE-22"><path class="cls-1" d="M47.99,11.31c.16,.38,.24,.79,.24,1.23"/></g><g id="SPLINE-23"><path class="cls-1" d="M48.23,12.54c0,.52-.12,1.06-.36,1.63"/></g><g id="LWPOLYLINE-13"><polyline class="cls-1" points="15.49 11.25 28.79 45.47 42.09 11.25"/></g><g id="SPLINE-24"><path class="cls-1" d="M31.71,55.49c-.54,1.34-1.51,2.02-2.92,2.02"/></g><g id="LWPOLYLINE-14"><line class="cls-1" x1="47.87" y1="14.17" x2="31.71" y2="55.49"/></g><g id="SPLINE-25"><path class="cls-1" d="M59.04,16.9c-.6,.2-1.23,.43-1.9,.69"/></g><g id="SPLINE-26"><path class="cls-1" d="M57.14,17.6c-.66,.24-1.26,.36-1.81,.36"/></g><g id="SPLINE-27"><path class="cls-1" d="M55.34,17.96c-.9,0-1.66-.29-2.26-.87"/></g><g id="SPLINE-28"><path class="cls-1" d="M53.08,17.08c-.58-.6-.87-1.35-.87-2.26"/></g><g id="SPLINE-29"><path class="cls-1" d="M52.21,14.83c0-.64,.16-1.21,.48-1.72"/></g><g id="SPLINE-30"><path class="cls-1" d="M52.69,13.11c.34-.5,.85-.91,1.53-1.23"/></g><g id="LWPOLYLINE-15"><line class="cls-1" x1="59.04" y1="54.37" x2="59.04" y2="16.9"/></g><g id="SPLINE-31"><path class="cls-1" d="M61.12,9.59c.36-.14,.72-.21,1.08-.21"/></g><g id="SPLINE-32"><path class="cls-1" d="M62.2,9.38c.9,0,1.65,.31,2.23,.93"/></g><g id="SPLINE-33"><path class="cls-1" d="M64.43,10.31c.6,.6,.9,1.34,.9,2.23"/></g><g id="LWPOLYLINE-16"><line class="cls-1" x1="54.22" y1="11.88" x2="61.12" y2="9.59"/></g><g id="SPLINE-34"><path class="cls-1" d="M65.33,54.37c0,.86-.31,1.61-.93,2.23"/></g><g id="SPLINE-35"><path class="cls-1" d="M64.4,56.6c-.6,.6-1.34,.9-2.23,.9"/></g><g id="SPLINE-36"><path class="cls-1" d="M62.17,57.5c-.86,0-1.61-.3-2.23-.9"/></g><g id="SPLINE-37"><path class="cls-1" d="M59.94,56.6c-.6-.62-.9-1.36-.9-2.23"/></g><g id="LWPOLYLINE-17"><line class="cls-1" x1="65.33" y1="12.54" x2="65.33" y2="54.37"/></g><g id="SPLINE-38"><path class="cls-1" d="M175.45,51.12c.88,0,1.64,.31,2.26,.93"/></g><g id="SPLINE-39"><path class="cls-1" d="M177.71,52.06c.62,.62,.93,1.37,.93,2.26"/></g><g id="SPLINE-40"><path class="cls-1" d="M178.65,54.31c0,.88-.31,1.64-.93,2.26"/></g><g id="SPLINE-41"><path class="cls-1" d="M177.71,56.57c-.62,.62-1.37,.93-2.26,.93"/></g><g id="SPLINE-42"><path class="cls-1" d="M147.62,57.5c-.46,0-.88-.08-1.26-.24"/></g><g id="SPLINE-43"><path class="cls-1" d="M146.35,57.26c-.38-.16-.72-.38-1.02-.66"/></g><g id="SPLINE-44"><path class="cls-1" d="M145.33,56.6c-.28-.3-.5-.64-.66-1.02"/></g><g id="SPLINE-45"><path class="cls-1" d="M144.67,55.58c-.16-.38-.24-.8-.24-1.26"/></g><g id="LWPOLYLINE-18"><line class="cls-1" x1="175.45" y1="57.5" x2="147.62" y2="57.5"/></g><g id="SPLINE-46"><path class="cls-1" d="M144.43,12.54c0-.44,.08-.85,.24-1.23"/></g><g id="SPLINE-47"><path class="cls-1" d="M144.67,11.31c.16-.4,.38-.74,.66-1.02"/></g><g id="SPLINE-48"><path class="cls-1" d="M145.33,10.28c.3-.3,.64-.53,1.02-.69"/></g><g id="SPLINE-49"><path class="cls-1" d="M146.35,9.59c.38-.16,.8-.24,1.26-.24"/></g><g id="LWPOLYLINE-19"><line class="cls-1" x1="144.43" y1="54.31" x2="144.43" y2="12.54"/></g><g id="SPLINE-50"><path class="cls-1" d="M175.45,9.35c.88,0,1.64,.31,2.26,.93"/></g><g id="SPLINE-51"><path class="cls-1" d="M177.71,10.28c.62,.62,.93,1.37,.93,2.26"/></g><g id="SPLINE-52"><path class="cls-1" d="M178.65,12.54c0,.88-.31,1.64-.93,2.26"/></g><g id="SPLINE-53"><path class="cls-1" d="M177.71,14.8c-.62,.62-1.37,.93-2.26,.93"/></g><g id="LWPOLYLINE-20"><line class="cls-1" x1="147.62" y1="9.35" x2="175.45" y2="9.35"/></g><g id="SPLINE-54"><path class="cls-1" d="M168.5,30.24c.88,0,1.64,.31,2.26,.93"/></g><g id="SPLINE-55"><path class="cls-1" d="M170.76,31.17c.62,.62,.93,1.37,.93,2.26"/></g><g id="SPLINE-56"><path class="cls-1" d="M171.69,33.43c0,.88-.31,1.64-.93,2.26"/></g><g id="SPLINE-57"><path class="cls-1" d="M170.76,35.68c-.62,.62-1.37,.93-2.26,.93"/></g><g id="LWPOLYLINE-21"><polyline class="cls-1" points="175.45 15.73 150.81 15.73 150.81 30.24 168.5 30.24"/></g><g id="LWPOLYLINE-22"><polyline class="cls-1" points="168.5 36.62 150.81 36.62 150.81 51.12 175.45 51.12"/></g><g id="SPLINE-58"><path class="cls-1" d="M182.98,12.54c0-.44,.08-.85,.24-1.23"/></g><g id="SPLINE-59"><path class="cls-1" d="M183.22,11.31c.16-.4,.38-.74,.66-1.02"/></g><g id="SPLINE-60"><path class="cls-1" d="M183.88,10.28c.3-.3,.64-.53,1.02-.69"/></g><g id="SPLINE-61"><path class="cls-1" d="M184.91,9.59c.38-.16,.8-.24,1.26-.24"/></g><g id="SPLINE-62"><path class="cls-1" d="M186.17,9.35c.94,0,1.77,.39,2.47,1.17"/></g><g id="LWPOLYLINE-23"><line class="cls-1" x1="182.98" y1="54.31" x2="182.98" y2="12.54"/></g><g id="SPLINE-63"><path class="cls-1" d="M215.48,12.54c0-.88,.31-1.64,.93-2.26"/></g><g id="SPLINE-64"><path class="cls-1" d="M216.42,10.28c.62-.62,1.37-.93,2.26-.93"/></g><g id="SPLINE-65"><path class="cls-1" d="M218.67,9.35c.88,0,1.64,.31,2.26,.93"/></g><g id="SPLINE-66"><path class="cls-1" d="M220.93,10.28c.62,.62,.93,1.37,.93,2.26"/></g><g id="LWPOLYLINE-24"><polyline class="cls-1" points="188.64 10.52 215.48 45.04 215.48 12.54"/></g><g id="SPLINE-67"><path class="cls-1" d="M221.86,54.31c0,.46-.08,.88-.24,1.26"/></g><g id="SPLINE-68"><path class="cls-1" d="M221.62,55.58c-.16,.38-.39,.72-.69,1.02"/></g><g id="SPLINE-69"><path class="cls-1" d="M220.93,56.6c-.28,.28-.62,.5-1.02,.66"/></g><g id="SPLINE-70"><path class="cls-1" d="M219.91,57.26c-.38,.16-.79,.24-1.23,.24"/></g><g id="SPLINE-71"><path class="cls-1" d="M218.67,57.5c-.94,0-1.76-.37-2.44-1.11"/></g><g id="LWPOLYLINE-25"><line class="cls-1" x1="221.86" y1="12.54" x2="221.86" y2="54.31"/></g><g id="SPLINE-72"><path class="cls-1" d="M189.36,54.31c0,.88-.31,1.64-.93,2.26"/></g><g id="SPLINE-73"><path class="cls-1" d="M188.43,56.57c-.62,.62-1.37,.93-2.26,.93"/></g><g id="SPLINE-74"><path class="cls-1" d="M186.17,57.5c-.88,0-1.64-.31-2.26-.93"/></g><g id="SPLINE-75"><path class="cls-1" d="M183.91,56.57c-.62-.62-.93-1.37-.93-2.26"/></g><g id="LWPOLYLINE-26"><polyline class="cls-1" points="216.24 56.39 189.36 21.87 189.36 54.31"/></g><g id="SPLINE-76"><path class="cls-1" d="M266.56,49.86c0,.84-.33,1.61-.99,2.29"/></g><g id="SPLINE-77"><path class="cls-1" d="M265.56,52.15c-4.47,3.57-9.52,5.36-15.14,5.36"/></g><g id="SPLINE-78"><path class="cls-1" d="M250.42,57.5c-6.66,0-12.34-2.35-17.03-7.04"/></g><g id="SPLINE-79"><path class="cls-1" d="M233.39,50.46c-4.7-4.7-7.04-10.37-7.04-17.03"/></g><g id="SPLINE-80"><path class="cls-1" d="M226.35,33.43c0-6.64,2.35-12.31,7.04-17"/></g><g id="SPLINE-81"><path class="cls-1" d="M233.39,16.42c4.72-4.72,10.39-7.07,17.03-7.07"/></g><g id="SPLINE-82"><path class="cls-1" d="M250.42,9.35c5.7,0,10.84,1.88,15.44,5.63"/></g><g id="SPLINE-83"><path class="cls-1" d="M265.86,14.98c.56,.52,.84,1.25,.84,2.2"/></g><g id="SPLINE-84"><path class="cls-1" d="M266.71,17.18c0,.46-.08,.88-.24,1.26"/></g><g id="SPLINE-85"><path class="cls-1" d="M266.47,18.44c-.16,.38-.39,.72-.69,1.02"/></g><g id="SPLINE-86"><path class="cls-1" d="M265.77,19.46c-.28,.28-.62,.5-1.02,.66"/></g><g id="SPLINE-87"><path class="cls-1" d="M264.75,20.12c-.38,.16-.79,.24-1.23,.24"/></g><g id="SPLINE-88"><path class="cls-1" d="M263.52,20.37c-.82,0-1.55-.3-2.2-.9"/></g><g id="SPLINE-89"><path class="cls-1" d="M261.32,19.46c-1.52-1.2-3.21-2.13-5.06-2.77"/></g><g id="SPLINE-90"><path class="cls-1" d="M256.26,16.69c-1.83-.64-3.77-.96-5.84-.96"/></g><g id="SPLINE-91"><path class="cls-1" d="M250.42,15.73c-4.9,0-9.08,1.74-12.55,5.21"/></g><g id="SPLINE-92"><path class="cls-1" d="M237.87,20.94c-3.43,3.43-5.15,7.59-5.15,12.49"/></g><g id="SPLINE-93"><path class="cls-1" d="M232.73,33.43c0,4.92,1.72,9.09,5.15,12.52"/></g><g id="SPLINE-94"><path class="cls-1" d="M237.87,45.95c3.45,3.45,7.63,5.18,12.55,5.18"/></g><g id="SPLINE-95"><path class="cls-1" d="M250.42,51.12c3.63,0,6.88-.95,9.75-2.86"/></g><g id="SPLINE-96"><path class="cls-1" d="M251.87,38.93c-.9,0-1.67-.3-2.29-.9"/></g><g id="SPLINE-97"><path class="cls-1" d="M249.58,38.03c-.6-.62-.9-1.38-.9-2.29"/></g><g id="SPLINE-98"><path class="cls-1" d="M248.68,35.74c0-.44,.08-.85,.24-1.23"/></g><g id="SPLINE-99"><path class="cls-1" d="M248.92,34.51c.16-.4,.38-.74,.66-1.02"/></g><g id="SPLINE-100"><path class="cls-1" d="M249.58,33.49c.3-.3,.64-.53,1.02-.69"/></g><g id="SPLINE-101"><path class="cls-1" d="M250.61,32.8c.38-.16,.8-.24,1.26-.24"/></g><g id="LWPOLYLINE-27"><polyline class="cls-1" points="260.18 48.26 260.18 38.93 251.87 38.93"/></g><g id="SPLINE-102"><path class="cls-1" d="M263.4,32.55c.42,0,.82,.09,1.2,.27"/></g><g id="SPLINE-103"><path class="cls-1" d="M264.6,32.83c.38,.16,.71,.39,.99,.69"/></g><g id="SPLINE-104"><path class="cls-1" d="M265.59,33.52c.3,.28,.53,.62,.69,1.02"/></g><g id="SPLINE-105"><path class="cls-1" d="M266.29,34.54c.18,.38,.27,.78,.27,1.2"/></g><g id="LWPOLYLINE-28"><line class="cls-1" x1="251.87" y1="32.55" x2="263.4" y2="32.55"/></g><g id="SPLINE-106"><path class="cls-1" d="M280.04,54.31c0,.88-.31,1.64-.93,2.26"/></g><g id="SPLINE-107"><path class="cls-1" d="M279.11,56.57c-.62,.62-1.37,.93-2.26,.93"/></g><g id="SPLINE-108"><path class="cls-1" d="M276.85,57.5c-.88,0-1.64-.31-2.26-.93"/></g><g id="SPLINE-109"><path class="cls-1" d="M274.59,56.57c-.62-.62-.93-1.37-.93-2.26"/></g><g id="LWPOLYLINE-29"><line class="cls-1" x1="266.56" y1="35.74" x2="266.56" y2="49.86"/></g><g id="SPLINE-110"><path class="cls-1" d="M273.66,12.54c0-.88,.31-1.64,.93-2.26"/></g><g id="SPLINE-111"><path class="cls-1" d="M274.59,10.28c.62-.62,1.37-.93,2.26-.93"/></g><g id="SPLINE-112"><path class="cls-1" d="M276.85,9.35c.88,0,1.64,.31,2.26,.93"/></g><g id="SPLINE-113"><path class="cls-1" d="M279.11,10.28c.62,.62,.93,1.37,.93,2.26"/></g><g id="LWPOLYLINE-30"><line class="cls-1" x1="273.66" y1="54.31" x2="273.66" y2="12.54"/></g><g id="LWPOLYLINE-31"><line class="cls-1" x1="280.04" y1="12.54" x2="280.04" y2="54.31"/></g><g id="SPLINE-114"><path class="cls-1" d="M286.03,12.54c0-.44,.08-.85,.24-1.23"/></g><g id="SPLINE-115"><path class="cls-1" d="M286.27,11.31c.16-.4,.38-.74,.66-1.02"/></g><g id="SPLINE-116"><path class="cls-1" d="M286.93,10.28c.3-.3,.64-.53,1.02-.69"/></g><g id="SPLINE-117"><path class="cls-1" d="M287.96,9.59c.38-.16,.8-.24,1.26-.24"/></g><g id="SPLINE-118"><path class="cls-1" d="M289.22,9.35c.94,0,1.77,.39,2.47,1.17"/></g><g id="LWPOLYLINE-32"><line class="cls-1" x1="286.03" y1="54.31" x2="286.03" y2="12.54"/></g><g id="SPLINE-119"><path class="cls-1" d="M318.53,12.54c0-.88,.31-1.64,.93-2.26"/></g><g id="SPLINE-120"><path class="cls-1" d="M319.47,10.28c.62-.62,1.37-.93,2.26-.93"/></g><g id="SPLINE-121"><path class="cls-1" d="M321.72,9.35c.88,0,1.64,.31,2.26,.93"/></g><g id="SPLINE-122"><path class="cls-1" d="M323.98,10.28c.62,.62,.93,1.37,.93,2.26"/></g><g id="LWPOLYLINE-33"><polyline class="cls-1" points="291.69 10.52 318.53 45.04 318.53 12.54"/></g><g id="SPLINE-123"><path class="cls-1" d="M324.91,54.31c0,.46-.08,.88-.24,1.26"/></g><g id="SPLINE-124"><path class="cls-1" d="M324.67,55.58c-.16,.38-.39,.72-.69,1.02"/></g><g id="SPLINE-125"><path class="cls-1" d="M323.98,56.6c-.28,.28-.62,.5-1.02,.66"/></g><g id="SPLINE-126"><path class="cls-1" d="M322.96,57.26c-.38,.16-.79,.24-1.23,.24"/></g><g id="SPLINE-127"><path class="cls-1" d="M321.72,57.5c-.94,0-1.76-.37-2.44-1.11"/></g><g id="LWPOLYLINE-34"><line class="cls-1" x1="324.91" y1="12.54" x2="324.91" y2="54.31"/></g><g id="SPLINE-128"><path class="cls-1" d="M292.41,54.31c0,.88-.31,1.64-.93,2.26"/></g><g id="SPLINE-129"><path class="cls-1" d="M291.48,56.57c-.62,.62-1.37,.93-2.26,.93"/></g><g id="SPLINE-130"><path class="cls-1" d="M289.22,57.5c-.88,0-1.64-.31-2.26-.93"/></g><g id="SPLINE-131"><path class="cls-1" d="M286.96,56.57c-.62-.62-.93-1.37-.93-2.26"/></g><g id="LWPOLYLINE-35"><polyline class="cls-1" points="319.29 56.39 292.41 21.87 292.41 54.31"/></g><g id="SPLINE-132"><path class="cls-1" d="M360.37,51.12c.88,0,1.64,.31,2.26,.93"/></g><g id="SPLINE-133"><path class="cls-1" d="M362.62,52.06c.62,.62,.93,1.37,.93,2.26"/></g><g id="SPLINE-134"><path class="cls-1" d="M363.56,54.31c0,.88-.31,1.64-.93,2.26"/></g><g id="SPLINE-135"><path class="cls-1" d="M362.62,56.57c-.62,.62-1.37,.93-2.26,.93"/></g><g id="SPLINE-136"><path class="cls-1" d="M332.53,57.5c-.46,0-.88-.08-1.26-.24"/></g><g id="SPLINE-137"><path class="cls-1" d="M331.26,57.26c-.38-.16-.72-.38-1.02-.66"/></g><g id="SPLINE-138"><path class="cls-1" d="M330.24,56.6c-.28-.3-.5-.64-.66-1.02"/></g><g id="SPLINE-139"><path class="cls-1" d="M329.58,55.58c-.16-.38-.24-.8-.24-1.26"/></g><g id="LWPOLYLINE-36"><line class="cls-1" x1="360.37" y1="57.5" x2="332.53" y2="57.5"/></g><g id="SPLINE-140"><path class="cls-1" d="M329.34,12.54c0-.44,.08-.85,.24-1.23"/></g><g id="SPLINE-141"><path class="cls-1" d="M329.58,11.31c.16-.4,.38-.74,.66-1.02"/></g><g id="SPLINE-142"><path class="cls-1" d="M330.24,10.28c.3-.3,.64-.53,1.02-.69"/></g><g id="SPLINE-143"><path class="cls-1" d="M331.26,9.59c.38-.16,.8-.24,1.26-.24"/></g><g id="LWPOLYLINE-37"><line class="cls-1" x1="329.34" y1="54.31" x2="329.34" y2="12.54"/></g><g id="SPLINE-144"><path class="cls-1" d="M360.37,9.35c.88,0,1.64,.31,2.26,.93"/></g><g id="SPLINE-145"><path class="cls-1" d="M362.62,10.28c.62,.62,.93,1.37,.93,2.26"/></g><g id="SPLINE-146"><path class="cls-1" d="M363.56,12.54c0,.88-.31,1.64-.93,2.26"/></g><g id="SPLINE-147"><path class="cls-1" d="M362.62,14.8c-.62,.62-1.37,.93-2.26,.93"/></g><g id="LWPOLYLINE-38"><line class="cls-1" x1="332.53" y1="9.35" x2="360.37" y2="9.35"/></g><g id="SPLINE-148"><path class="cls-1" d="M353.41,30.24c.88,0,1.64,.31,2.26,.93"/></g><g id="SPLINE-149"><path class="cls-1" d="M355.67,31.17c.62,.62,.93,1.37,.93,2.26"/></g><g id="SPLINE-150"><path class="cls-1" d="M356.6,33.43c0,.88-.31,1.64-.93,2.26"/></g><g id="SPLINE-151"><path class="cls-1" d="M355.67,35.68c-.62,.62-1.37,.93-2.26,.93"/></g><g id="LWPOLYLINE-39"><polyline class="cls-1" points="360.37 15.73 335.72 15.73 335.72 30.24 353.41 30.24"/></g><g id="SPLINE-152"><path class="cls-1" d="M398.89,51.12c.88,0,1.64,.31,2.26,.93"/></g><g id="SPLINE-153"><path class="cls-1" d="M401.15,52.06c.62,.62,.93,1.37,.93,2.26"/></g><g id="SPLINE-154"><path class="cls-1" d="M402.08,54.31c0,.88-.31,1.64-.93,2.26"/></g><g id="SPLINE-155"><path class="cls-1" d="M401.15,56.57c-.62,.62-1.37,.93-2.26,.93"/></g><g id="LWPOLYLINE-40"><polyline class="cls-1" points="353.41 36.62 335.72 36.62 335.72 51.12 360.37 51.12"/></g><g id="SPLINE-156"><path class="cls-1" d="M371.05,57.5c-.46,0-.88-.08-1.26-.24"/></g><g id="SPLINE-157"><path class="cls-1" d="M369.79,57.26c-.38-.16-.72-.38-1.02-.66"/></g><g id="SPLINE-158"><path class="cls-1" d="M368.76,56.6c-.28-.3-.5-.64-.66-1.02"/></g><g id="SPLINE-159"><path class="cls-1" d="M368.1,55.58c-.16-.38-.24-.8-.24-1.26"/></g><g id="LWPOLYLINE-41"><line class="cls-1" x1="398.89" y1="57.5" x2="371.05" y2="57.5"/></g><g id="SPLINE-160"><path class="cls-1" d="M367.86,12.54c0-.44,.08-.85,.24-1.23"/></g><g id="SPLINE-161"><path class="cls-1" d="M368.1,11.31c.16-.4,.38-.74,.66-1.02"/></g><g id="SPLINE-162"><path class="cls-1" d="M368.76,10.28c.3-.3,.64-.53,1.02-.69"/></g><g id="SPLINE-163"><path class="cls-1" d="M369.79,9.59c.38-.16,.8-.24,1.26-.24"/></g><g id="LWPOLYLINE-42"><line class="cls-1" x1="367.86" y1="54.31" x2="367.86" y2="12.54"/></g><g id="SPLINE-164"><path class="cls-1" d="M398.89,9.35c.88,0,1.64,.31,2.26,.93"/></g><g id="SPLINE-165"><path class="cls-1" d="M401.15,10.28c.62,.62,.93,1.37,.93,2.26"/></g><g id="SPLINE-166"><path class="cls-1" d="M402.08,12.54c0,.88-.31,1.64-.93,2.26"/></g><g id="SPLINE-167"><path class="cls-1" d="M401.15,14.8c-.62,.62-1.37,.93-2.26,.93"/></g><g id="LWPOLYLINE-43"><line class="cls-1" x1="371.05" y1="9.35" x2="398.89" y2="9.35"/></g><g id="SPLINE-168"><path class="cls-1" d="M391.94,30.24c.88,0,1.64,.31,2.26,.93"/></g><g id="SPLINE-169"><path class="cls-1" d="M394.2,31.17c.62,.62,.93,1.37,.93,2.26"/></g><g id="SPLINE-170"><path class="cls-1" d="M395.13,33.43c0,.88-.31,1.64-.93,2.26"/></g><g id="SPLINE-171"><path class="cls-1" d="M394.2,35.68c-.62,.62-1.37,.93-2.26,.93"/></g><g id="LWPOLYLINE-44"><polyline class="cls-1" points="398.89 15.73 374.24 15.73 374.24 30.24 391.94 30.24"/></g><g id="LWPOLYLINE-45"><polyline class="cls-1" points="391.94 36.62 374.24 36.62 374.24 51.12 398.89 51.12"/></g><g id="SPLINE-172"><path class="cls-1" d="M421.16,32.55c1.16,0,2.26-.22,3.28-.66"/></g><g id="SPLINE-173"><path class="cls-1" d="M424.44,31.89c1.02-.44,1.91-1.04,2.65-1.81"/></g><g id="SPLINE-174"><path class="cls-1" d="M427.09,30.09c.76-.78,1.36-1.68,1.81-2.68"/></g><g id="SPLINE-175"><path class="cls-1" d="M428.9,27.41c.44-1.02,.66-2.11,.66-3.25"/></g><g id="SPLINE-176"><path class="cls-1" d="M429.56,24.16c0-1.16-.22-2.26-.66-3.28"/></g><g id="SPLINE-177"><path class="cls-1" d="M428.9,20.88c-.44-1.02-1.04-1.92-1.81-2.68"/></g><g id="SPLINE-178"><path class="cls-1" d="M427.09,18.2c-.76-.76-1.66-1.36-2.68-1.81"/></g><g id="SPLINE-179"><path class="cls-1" d="M424.41,16.39c-1.02-.44-2.11-.66-3.25-.66"/></g><g id="LWPOLYLINE-46"><polyline class="cls-1" points="412.73 15.73 412.73 32.55 421.16 32.55"/></g><g id="LWPOLYLINE-47"><line class="cls-1" x1="421.16" y1="15.73" x2="412.73" y2="15.73"/></g><g id="SPLINE-180"><path class="cls-1" d="M406.35,12.54c0-.44,.08-.85,.24-1.23"/></g><g id="SPLINE-181"><path class="cls-1" d="M406.59,11.31c.16-.4,.38-.74,.66-1.02"/></g><g id="SPLINE-182"><path class="cls-1" d="M407.26,10.28c.3-.3,.64-.53,1.02-.69"/></g><g id="SPLINE-183"><path class="cls-1" d="M408.28,9.59c.38-.16,.8-.24,1.26-.24"/></g><g id="LWPOLYLINE-48"><line class="cls-1" x1="406.35" y1="54.31" x2="406.35" y2="12.54"/></g><g id="SPLINE-184"><path class="cls-1" d="M421.16,9.35c2.03,0,3.93,.39,5.72,1.17"/></g><g id="SPLINE-185"><path class="cls-1" d="M426.88,10.52c1.81,.78,3.37,1.85,4.7,3.19"/></g><g id="SPLINE-186"><path class="cls-1" d="M431.57,13.71c1.34,1.34,2.41,2.92,3.19,4.73"/></g><g id="SPLINE-187"><path class="cls-1" d="M434.77,18.44c.78,1.79,1.17,3.69,1.17,5.72"/></g><g id="SPLINE-188"><path class="cls-1" d="M435.94,24.16c0,1.32-.17,2.62-.51,3.88"/></g><g id="SPLINE-189"><path class="cls-1" d="M435.43,28.04c-.32,1.24-.81,2.43-1.47,3.55"/></g><g id="SPLINE-190"><path class="cls-1" d="M433.95,31.59c-.64,1.1-1.45,2.14-2.44,3.1"/></g><g id="SPLINE-191"><path class="cls-1" d="M431.51,34.69c-.96,.94-2.09,1.78-3.37,2.5"/></g><g id="LWPOLYLINE-49"><line class="cls-1" x1="409.54" y1="9.35" x2="421.16" y2="9.35"/></g><g id="SPLINE-192"><path class="cls-1" d="M437.74,52.57c.34,.56,.51,1.14,.51,1.75"/></g><g id="SPLINE-193"><path class="cls-1" d="M438.26,54.31c0,.46-.08,.88-.24,1.26"/></g><g id="SPLINE-194"><path class="cls-1" d="M438.02,55.58c-.16,.38-.39,.72-.69,1.02"/></g><g id="SPLINE-195"><path class="cls-1" d="M437.32,56.6c-.28,.28-.62,.5-1.02,.66"/></g><g id="SPLINE-196"><path class="cls-1" d="M436.3,57.26c-.38,.16-.79,.24-1.23,.24"/></g><g id="SPLINE-197"><path class="cls-1" d="M435.07,57.5c-1.12,0-2.04-.52-2.74-1.57"/></g><g id="LWPOLYLINE-50"><line class="cls-1" x1="428.14" y1="37.19" x2="437.74" y2="52.57"/></g><g id="SPLINE-198"><path class="cls-1" d="M412.73,54.31c0,.88-.31,1.64-.93,2.26"/></g><g id="SPLINE-199"><path class="cls-1" d="M411.8,56.57c-.62,.62-1.37,.93-2.26,.93"/></g><g id="SPLINE-200"><path class="cls-1" d="M409.54,57.5c-.88,0-1.64-.31-2.26-.93"/></g><g id="SPLINE-201"><path class="cls-1" d="M407.29,56.57c-.62-.62-.93-1.37-.93-2.26"/></g><g id="LWPOLYLINE-51"><polyline class="cls-1" points="432.33 55.94 421.7 38.93 412.73 38.93 412.73 54.31"/></g><g id="SPLINE-202"><path class="cls-1" d="M451.11,54.31c0,.88-.31,1.64-.93,2.26"/></g><g id="SPLINE-203"><path class="cls-1" d="M450.17,56.57c-.62,.62-1.37,.93-2.26,.93"/></g><g id="SPLINE-204"><path class="cls-1" d="M447.92,57.5c-.88,0-1.64-.31-2.26-.93"/></g><g id="SPLINE-205"><path class="cls-1" d="M445.66,56.57c-.62-.62-.93-1.37-.93-2.26"/></g><g id="SPLINE-206"><path class="cls-1" d="M444.73,12.54c0-.88,.31-1.64,.93-2.26"/></g><g id="SPLINE-207"><path class="cls-1" d="M445.66,10.28c.62-.62,1.37-.93,2.26-.93"/></g><g id="SPLINE-208"><path class="cls-1" d="M447.92,9.35c.88,0,1.64,.31,2.26,.93"/></g><g id="SPLINE-209"><path class="cls-1" d="M450.17,10.28c.62,.62,.93,1.37,.93,2.26"/></g><g id="LWPOLYLINE-52"><line class="cls-1" x1="444.73" y1="54.31" x2="444.73" y2="12.54"/></g><g id="LWPOLYLINE-53"><line class="cls-1" x1="451.11" y1="12.54" x2="451.11" y2="54.31"/></g><g id="SPLINE-210"><path class="cls-1" d="M457.1,12.54c0-.44,.08-.85,.24-1.23"/></g><g id="SPLINE-211"><path class="cls-1" d="M457.34,11.31c.16-.4,.38-.74,.66-1.02"/></g><g id="SPLINE-212"><path class="cls-1" d="M458,10.28c.3-.3,.64-.53,1.02-.69"/></g><g id="SPLINE-213"><path class="cls-1" d="M459.02,9.59c.38-.16,.8-.24,1.26-.24"/></g><g id="SPLINE-214"><path class="cls-1" d="M460.29,9.35c.94,0,1.77,.39,2.47,1.17"/></g><g id="LWPOLYLINE-54"><line class="cls-1" x1="457.1" y1="54.31" x2="457.1" y2="12.54"/></g><g id="SPLINE-215"><path class="cls-1" d="M489.6,12.54c0-.88,.31-1.64,.93-2.26"/></g><g id="SPLINE-216"><path class="cls-1" d="M490.53,10.28c.62-.62,1.37-.93,2.26-.93"/></g><g id="SPLINE-217"><path class="cls-1" d="M492.79,9.35c.88,0,1.64,.31,2.26,.93"/></g><g id="SPLINE-218"><path class="cls-1" d="M495.05,10.28c.62,.62,.93,1.37,.93,2.26"/></g><g id="LWPOLYLINE-55"><polyline class="cls-1" points="462.75 10.52 489.6 45.04 489.6 12.54"/></g><g id="SPLINE-219"><path class="cls-1" d="M495.98,54.31c0,.46-.08,.88-.24,1.26"/></g><g id="SPLINE-220"><path class="cls-1" d="M495.74,55.58c-.16,.38-.39,.72-.69,1.02"/></g><g id="SPLINE-221"><path class="cls-1" d="M495.05,56.6c-.28,.28-.62,.5-1.02,.66"/></g><g id="SPLINE-222"><path class="cls-1" d="M494.02,57.26c-.38,.16-.79,.24-1.23,.24"/></g><g id="SPLINE-223"><path class="cls-1" d="M492.79,57.5c-.94,0-1.76-.37-2.44-1.11"/></g><g id="LWPOLYLINE-56"><line class="cls-1" x1="495.98" y1="12.54" x2="495.98" y2="54.31"/></g><g id="SPLINE-224"><path class="cls-1" d="M463.48,54.31c0,.88-.31,1.64-.93,2.26"/></g><g id="SPLINE-225"><path class="cls-1" d="M462.54,56.57c-.62,.62-1.37,.93-2.26,.93"/></g><g id="SPLINE-226"><path class="cls-1" d="M460.29,57.5c-.88,0-1.64-.31-2.26-.93"/></g><g id="SPLINE-227"><path class="cls-1" d="M458.03,56.57c-.62-.62-.93-1.37-.93-2.26"/></g><g id="LWPOLYLINE-57"><polyline class="cls-1" points="490.35 56.39 463.48 21.87 463.48 54.31"/></g><g id="SPLINE-228"><path class="cls-1" d="M540.67,49.86c0,.84-.33,1.61-.99,2.29"/></g><g id="SPLINE-229"><path class="cls-1" d="M539.68,52.15c-4.47,3.57-9.52,5.36-15.14,5.36"/></g><g id="SPLINE-230"><path class="cls-1" d="M524.54,57.5c-6.66,0-12.34-2.35-17.03-7.04"/></g><g id="SPLINE-231"><path class="cls-1" d="M507.51,50.46c-4.7-4.7-7.04-10.37-7.04-17.03"/></g><g id="SPLINE-232"><path class="cls-1" d="M500.47,33.43c0-6.64,2.35-12.31,7.04-17"/></g><g id="SPLINE-233"><path class="cls-1" d="M507.51,16.42c4.72-4.72,10.39-7.07,17.03-7.07"/></g><g id="SPLINE-234"><path class="cls-1" d="M524.54,9.35c5.7,0,10.84,1.88,15.44,5.63"/></g><g id="SPLINE-235"><path class="cls-1" d="M539.98,14.98c.56,.52,.84,1.25,.84,2.2"/></g><g id="SPLINE-236"><path class="cls-1" d="M540.82,17.18c0,.46-.08,.88-.24,1.26"/></g><g id="SPLINE-237"><path class="cls-1" d="M540.58,18.44c-.16,.38-.39,.72-.69,1.02"/></g><g id="SPLINE-238"><path class="cls-1" d="M539.89,19.46c-.28,.28-.62,.5-1.02,.66"/></g><g id="SPLINE-239"><path class="cls-1" d="M538.87,20.12c-.38,.16-.79,.24-1.23,.24"/></g><g id="SPLINE-240"><path class="cls-1" d="M537.63,20.37c-.82,0-1.55-.3-2.2-.9"/></g><g id="SPLINE-241"><path class="cls-1" d="M535.44,19.46c-1.52-1.2-3.21-2.13-5.06-2.77"/></g><g id="SPLINE-242"><path class="cls-1" d="M530.38,16.69c-1.83-.64-3.77-.96-5.84-.96"/></g><g id="SPLINE-243"><path class="cls-1" d="M524.54,15.73c-4.9,0-9.08,1.74-12.55,5.21"/></g><g id="SPLINE-244"><path class="cls-1" d="M511.99,20.94c-3.43,3.43-5.15,7.59-5.15,12.49"/></g><g id="SPLINE-245"><path class="cls-1" d="M506.85,33.43c0,4.92,1.72,9.09,5.15,12.52"/></g><g id="SPLINE-246"><path class="cls-1" d="M511.99,45.95c3.45,3.45,7.63,5.18,12.55,5.18"/></g><g id="SPLINE-247"><path class="cls-1" d="M524.54,51.12c3.63,0,6.88-.95,9.75-2.86"/></g><g id="SPLINE-248"><path class="cls-1" d="M525.99,38.93c-.9,0-1.67-.3-2.29-.9"/></g><g id="SPLINE-249"><path class="cls-1" d="M523.7,38.03c-.6-.62-.9-1.38-.9-2.29"/></g><g id="SPLINE-250"><path class="cls-1" d="M522.8,35.74c0-.44,.08-.85,.24-1.23"/></g><g id="SPLINE-251"><path class="cls-1" d="M523.04,34.51c.16-.4,.38-.74,.66-1.02"/></g><g id="SPLINE-252"><path class="cls-1" d="M523.7,33.49c.3-.3,.64-.53,1.02-.69"/></g><g id="SPLINE-253"><path class="cls-1" d="M524.72,32.8c.38-.16,.8-.24,1.26-.24"/></g><g id="LWPOLYLINE-58"><polyline class="cls-1" points="534.29 48.26 534.29 38.93 525.99 38.93"/></g><g id="SPLINE-254"><path class="cls-1" d="M537.51,32.55c.42,0,.82,.09,1.2,.27"/></g><g id="SPLINE-255"><path class="cls-1" d="M538.72,32.83c.38,.16,.71,.39,.99,.69"/></g><g id="SPLINE-256"><path class="cls-1" d="M539.71,33.52c.3,.28,.53,.62,.69,1.02"/></g><g id="SPLINE-257"><path class="cls-1" d="M540.4,34.54c.18,.38,.27,.78,.27,1.2"/></g><g id="LWPOLYLINE-59"><line class="cls-1" x1="525.99" y1="32.55" x2="537.51" y2="32.55"/></g><g id="SPLINE-258"><path class="cls-1" d="M118.48,.36c-.57,.02-1.13,.24-1.56,.65"/></g><g id="SPLINE-259"><path class="cls-1" d="M116.92,1.01c-11.16,10.51-24.61,18.27-39.29,22.68"/></g><g id="SPLINE-260"><path class="cls-1" d="M77.63,23.69c-1.02,.31-1.72,1.24-1.72,2.31"/></g><g id="LWPOLYLINE-60"><line class="cls-1" x1="540.67" y1="35.74" x2="540.67" y2="49.86"/></g><g id="SPLINE-261"><path class="cls-1" d="M75.91,40.85c0,1.06,.7,2,1.72,2.31"/></g><g id="SPLINE-262"><path class="cls-1" d="M77.63,43.16c14.68,4.41,28.13,12.18,39.29,22.68"/></g><g id="SPLINE-263"><path class="cls-1" d="M116.92,65.85c.77,.73,1.94,.86,2.86,.33"/></g><g id="LWPOLYLINE-61"><line class="cls-1" x1="75.91" y1="26" x2="75.91" y2="40.85"/></g><g id="SPLINE-264"><path class="cls-1" d="M132.64,58.75c.92-.53,1.38-1.6,1.14-2.64"/></g><g id="SPLINE-265"><path class="cls-1" d="M133.78,56.11c-3.52-14.92-3.52-30.45,0-45.37"/></g><g id="SPLINE-266"><path class="cls-1" d="M133.78,10.74c.24-1.04-.22-2.11-1.14-2.64"/></g><g id="LWPOLYLINE-62"><line class="cls-1" x1="119.77" y1="66.18" x2="132.64" y2="58.75"/></g><g id="SPLINE-267"><path class="cls-1" d="M119.77,.68c-.4-.23-.85-.34-1.29-.32"/></g><g id="LWPOLYLINE-63"><line class="cls-1" x1="132.64" y1="8.1" x2="119.77" y2=".68"/></g><g id="SPLINE-268"><path class="cls-1" d="M121.21,8.33c.39,.01,.78,.11,1.14,.32"/></g><g id="SPLINE-269"><path class="cls-1" d="M124.44,9.86c1.15,.67,1.55,2.14,.88,3.29"/></g><g id="LWPOLYLINE-64"><line class="cls-1" x1="122.35" y1="8.66" x2="124.44" y2="9.86"/></g><g id="SPLINE-270"><path class="cls-1" d="M118.13,25.6c-.44,.77-.43,1.71,.03,2.47"/></g><g id="SPLINE-271"><path class="cls-1" d="M118.17,28.07c2.02,3.29,2.02,7.43,0,10.72"/></g><g id="SPLINE-272"><path class="cls-1" d="M118.17,38.79c-.46,.75-.48,1.7-.03,2.47"/></g><g id="LWPOLYLINE-65"><line class="cls-1" x1="125.32" y1="13.15" x2="118.13" y2="25.6"/></g><g id="SPLINE-273"><path class="cls-1" d="M125.32,53.7c.67,1.15,.27,2.63-.88,3.29"/></g><g id="LWPOLYLINE-66"><line class="cls-1" x1="118.13" y1="41.25" x2="125.32" y2="53.7"/></g><g id="SPLINE-274"><path class="cls-1" d="M122.35,58.2c-1.15,.67-2.63,.27-3.29-.88"/></g><g id="LWPOLYLINE-67"><line class="cls-1" x1="124.44" y1="56.99" x2="122.35" y2="58.2"/></g><g id="SPLINE-275"><path class="cls-1" d="M111.87,44.87c-.44-.77-1.27-1.23-2.15-1.2"/></g><g id="SPLINE-276"><path class="cls-1" d="M109.72,43.66c-3.86,.11-7.45-1.97-9.28-5.36"/></g><g id="SPLINE-277"><path class="cls-1" d="M100.44,38.3c-.42-.78-1.23-1.26-2.12-1.26"/></g><g id="LWPOLYLINE-68"><line class="cls-1" x1="119.06" y1="57.32" x2="111.87" y2="44.87"/></g><g id="SPLINE-278"><path class="cls-1" d="M83.94,37.04c-1.33,0-2.41-1.08-2.41-2.41"/></g><g id="LWPOLYLINE-69"><line class="cls-1" x1="98.32" y1="37.04" x2="83.94" y2="37.04"/></g><g id="SPLINE-279"><path class="cls-1" d="M81.53,32.22c0-1.33,1.08-2.41,2.41-2.41"/></g><g id="LWPOLYLINE-70"><line class="cls-1" x1="81.53" y1="34.63" x2="81.53" y2="32.22"/></g><g id="SPLINE-280"><path class="cls-1" d="M98.32,29.81c.88,0,1.7-.48,2.12-1.26"/></g><g id="SPLINE-281"><path class="cls-1" d="M100.44,28.55c1.84-3.39,5.43-5.46,9.28-5.36"/></g><g id="SPLINE-282"><path class="cls-1" d="M109.72,23.19c.88,.02,1.71-.44,2.15-1.2"/></g><g id="LWPOLYLINE-71"><line class="cls-1" x1="83.94" y1="29.81" x2="98.32" y2="29.81"/></g><g id="SPLINE-283"><path class="cls-1" d="M119.06,9.54c.46-.79,1.3-1.23,2.15-1.2"/></g><g id="LWPOLYLINE-72"><line class="cls-1" x1="111.87" y1="21.99" x2="119.06" y2="9.54"/></g></g></svg>