0
SECTION
2
HEADER
9
$INSUNITS
70
4
9
$ACADVER
1
AC1014
9
$HANDSEED
5
FFFF
0
ENDSEC
0
SECTION
2
TABLES
0
TABLE
2
VPORT
5
8
100
AcDbSymbolTable
0
ENDTAB
0
TABLE
2
LTYPE
5
5
100
AcDbSymbolTable
0
LTYPE
5
14
100
AcDbSymbolTableRecord
100
AcDbLinetypeTableRecord
2
BYBLOCK
70
0
0
LTYPE
5
15
100
AcDbSymbolTableRecord
100
AcDbLinetypeTableRecord
2
BYLAYER
70
0
0
ENDTAB
0
TABLE
2
LAYER
5
2
100
AcDbSymbolTable
70
2
0
LAYER
5
50
100
AcDbSymbolTableRecord
100
AcDbLayerTableRecord
2
0
70
0
6
CONTINUOUS
0
ENDTAB
0
TABLE
2
STYLE
5
3
100
AcDbSymbolTable
70
1
0
STYLE
5
11
100
AcDbSymbolTableRecord
100
AcDbTextStyleTableRecord
2
STANDARD
70
0
0
ENDTAB
0
TABLE
2
VIEW
5
6
100
AcDbSymbolTable
70
0
0
ENDTAB
0
TABLE
2
UCS
5
7
100
AcDbSymbolTable
70
0
0
ENDTAB
0
TABLE
2
APPID
5
9
100
AcDbSymbolTable
70
2
0
APPID
5
12
100
AcDbSymbolTableRecord
100
AcDbRegAppTableRecord
2
ACAD
70
0
0
ENDTAB
0
TABLE
2
DIMSTYLE
5
A
100
AcDbSymbolTable
70
1
0
ENDTAB
0
TABLE
2
BLOCK_RECORD
5
1
100
AcDbSymbolTable
70
1
0
BLOCK_RECORD
5
1F
100
AcDbSymbolTableRecord
100
AcDbBlockTableRecord
2
*MODEL_SPACE
0
BLOCK_RECORD
5
1B
100
AcDbSymbolTableRecord
100
AcDbBlockTableRecord
2
*PAPER_SPACE
0
ENDTAB
0
ENDSEC
0
SECTION
2
BLOCKS
0
BLOCK
5
20
100
AcDbEntity
100
AcDbBlockBegin
2
*MODEL_SPACE
0
ENDBLK
5
21
100
AcDbEntity
100
AcDbBlockEnd
0
BLOCK
5
1C
100
AcDbEntity
100
AcDbBlockBegin
2
*PAPER_SPACE
0
ENDBLK
5
1D
100
AcDbEntity
100
AcDbBlockEnd
0
ENDSEC
0
SECTION
2
ENTITIES
0
LWPOLYLINE
5
100
100
AcDbEntity
8
0
100
AcDbPolyline
90
196
70
1
43
0.0
10
43.999972343444824
20
59.011702537536621
10
42.581791877746582
20
57.637829780578613
10
41.856532096862793
20
56.967935562133789
10
41.120734214782715
20
56.309638023376465
10
40.374588966369629
20
55.66309928894043
10
39.618275165557861
20
55.028476715087891
10
38.851985931396484
20
54.405932426452637
10
38.075921535491943
20
53.795628547668457
10
37.290267944335938
20
53.197712898254395
10
36.495227813720703
20
52.612333297729492
10
35.690999031066895
20
52.039647102355957
10
34.877784252166748
20
51.479792594909668
10
34.055793285369873
20
50.932908058166504
10
33.225228786468506
20
50.399136543273926
10
32.386295795440674
20
49.878606796264648
10
31.539211273193359
20
49.371457099914551
10
30.684187412261963
20
48.877806663513184
10
29.821441173553467
20
48.397789001464844
10
28.951184749603271
20
47.931513786315918
10
28.073639869689941
20
47.479109764099121
10
27.189028263092041
20
47.04068660736084
10
26.297574043273926
20
46.616349220275879
10
25.399496555328369
20
46.206212043762207
10
24.4950270652771
20
45.810375213623047
10
23.584389686584473
20
45.428938865661621
10
22.667815685272217
20
45.06199836730957
10
21.74553394317627
20
44.709644317626953
10
20.81777811050415
20
44.371967315673828
10
19.884783029556274
20
44.049057960510254
10
18.946781158447266
20
43.740987777709961
10
18.00400972366333
20
43.447837829589844
10
17.056705951690674
20
43.169684410095215
10
16.105108261108398
20
42.906594276428223
10
15.149455070495605
20
42.658638954162598
10
14.189989566802979
20
42.425875663757324
10
13.226951360702515
20
42.208361625671387
10
12.260583639144897
20
42.006158828735352
10
11.291128396987915
20
41.819310188293457
10
10.318831205368042
20
41.647868156433105
10
9.3439370393753052
20
41.491875648498535
10
8.3666896820068359
20
41.35136604309082
10
7.3873364925384521
20
41.226382255554199
10
6.4061230421066284
20
41.116952896118164
10
5.4232972860336304
20
41.023106575012207
10
4.4391059875488281
20
40.944862365722656
10
3.4537976980209351
20
40.882244110107422
10
2.4676194787025452
20
40.83526611328125
10
1.4808201789855957
20
40.803942680358887
10
0.49364816397428513
20
40.788278579711914
10
-0.49364816397428513
20
40.788278579711914
10
-1.4808201789855957
20
40.803942680358887
10
-2.4676194787025452
20
40.83526611328125
10
-3.4537976980209351
20
40.882244110107422
10
-4.4391059875488281
20
40.944862365722656
10
-5.4232972860336304
20
41.023106575012207
10
-6.4061230421066284
20
41.116952896118164
10
-7.3873364925384521
20
41.226382255554199
10
-8.3666896820068359
20
41.35136604309082
10
-9.3439370393753052
20
41.491875648498535
10
-10.318831205368042
20
41.647868156433105
10
-11.291128396987915
20
41.819310188293457
10
-12.260583639144897
20
42.006158828735352
10
-13.226951360702515
20
42.208361625671387
10
-14.189989566802979
20
42.425875663757324
10
-15.149455070495605
20
42.658638954162598
10
-16.105108261108398
20
42.906594276428223
10
-17.056705951690674
20
43.169684410095215
10
-18.00400972366333
20
43.447837829589844
10
-18.946781158447266
20
43.740987777709961
10
-19.884783029556274
20
44.049057960510254
10
-20.81777811050415
20
44.371967315673828
10
-21.74553394317627
20
44.709644317626953
10
-22.667815685272217
20
45.06199836730957
10
-23.584389686584473
20
45.428938865661621
10
-24.4950270652771
20
45.810375213623047
10
-25.399496555328369
20
46.206212043762207
10
-26.297574043273926
20
46.616349220275879
10
-27.189028263092041
20
47.04068660736084
10
-28.073639869689941
20
47.479109764099121
10
-28.951184749603271
20
47.931513786315918
10
-29.821441173553467
20
48.397789001464844
10
-30.684187412261963
20
48.877806663513184
10
-31.539211273193359
20
49.371457099914551
10
-32.386295795440674
20
49.878606796264648
10
-33.225228786468506
20
50.399136543273926
10
-34.055793285369873
20
50.932908058166504
10
-34.877784252166748
20
51.479792594909668
10
-35.690999031066895
20
52.039647102355957
10
-36.495227813720703
20
52.612333297729492
10
-37.290267944335938
20
53.197712898254395
10
-38.075921535491943
20
53.795628547668457
10
-38.851985931396484
20
54.405932426452637
10
-39.618275165557861
20
55.028476715087891
10
-40.374588966369629
20
55.66309928894043
10
-41.120734214782715
20
56.309638023376465
10
-41.856532096862793
20
56.967935562133789
10
-42.581791877746582
20
57.637829780578613
10
-43.999972343444824
20
59.011702537536621
10
-44.565658569335938
20
58.446016311645508
10
-43.12924861907959
20
57.054476737976074
10
-42.394661903381348
20
56.375975608825684
10
-41.64940357208252
20
55.709214210510254
10
-40.893664360046387
20
55.054359436035156
10
-40.127625465393066
20
54.411578178405762
10
-39.351487159729004
20
53.781032562255859
10
-38.565442562103271
20
53.162879943847656
10
-37.769687175750732
20
52.557277679443359
10
-36.964428424835205
20
51.964378356933594
10
-36.149861812591553
20
51.38432502746582
10
-35.326192378997803
20
50.817270278930664
10
-34.493629932403564
20
50.263357162475586
10
-33.652386665344238
20
49.722723960876465
10
-32.802670001983643
20
49.195504188537598
10
-31.944694519042969
20
48.681831359863281
10
-31.07867956161499
20
48.18183422088623
10
-30.204837322235107
20
47.69564151763916
10
-29.323394298553467
20
47.223377227783203
10
-28.434569835662842
20
46.765155792236328
10
-27.538583278656006
20
46.321091651916504
10
-26.635668277740479
20
45.891304016113281
10
-25.726044178009033
20
45.475893020629883
10
-24.80994701385498
20
45.074968338012695
10
-23.887603282928467
20
44.688625335693359
10
-22.959244251251221
20
44.31696891784668
10
-22.025105953216553
20
43.960084915161133
10
-21.085422039031982
20
43.618068695068359
10
-20.140430927276611
20
43.291001319885254
10
-19.190371036529541
20
42.978973388671875
10
-18.235477209091187
20
42.682056427001953
10
-17.275995016098022
20
42.400326728820801
10
-16.31216287612915
20
42.133855819702148
10
-15.344223976135254
20
41.882710456848145
10
-14.372423887252808
20
41.646952629089355
10
-13.397003412246704
20
41.426644325256348
10
-12.418211698532104
20
41.221842765808105
10
-11.436293125152588
20
41.032590866088867
10
-10.45149564743042
20
40.858945846557617
10
-9.4640666246414185
20
40.700945854187012
10
-8.4742558002471924
20
40.558633804321289
10
-7.4823111295700073
20
40.432043075561523
10
-6.4884835481643677
20
40.321202278137207
10
-5.4930222034454346
20
40.226149559020996
10
-4.4961777329444885
20
40.146899223327637
10
-3.4982013702392578
20
40.083475112915039
10
-2.4993443489074707
20
40.035896301269531
10
-1.4998583495616913
20
40.004167556762695
10
-0.49999475479125977
20
39.988300800323486
10
0.49999475479125977
20
39.988300800323486
10
1.4998583495616913
20
40.004167556762695
10
2.4993443489074707
20
40.035896301269531
10
3.4982013702392578
20
40.083475112915039
10
4.4961777329444885
20
40.146899223327637
10
5.4930222034454346
20
40.226149559020996
10
6.4884835481643677
20
40.321202278137207
10
7.4823111295700073
20
40.432043075561523
10
8.4742558002471924
20
40.558633804321289
10
9.4640666246414185
20
40.700945854187012
10
10.45149564743042
20
40.858945846557617
10
11.436293125152588
20
41.032590866088867
10
12.418211698532104
20
41.221842765808105
10
13.397003412246704
20
41.426644325256348
10
14.372423887252808
20
41.646952629089355
10
15.344223976135254
20
41.882710456848145
10
16.31216287612915
20
42.133855819702148
10
17.275995016098022
20
42.400326728820801
10
18.235477209091187
20
42.682056427001953
10
19.190371036529541
20
42.978973388671875
10
20.140430927276611
20
43.291001319885254
10
21.085422039031982
20
43.618068695068359
10
22.025105953216553
20
43.960084915161133
10
22.959244251251221
20
44.31696891784668
10
23.887603282928467
20
44.688625335693359
10
24.80994701385498
20
45.074968338012695
10
25.726044178009033
20
45.475893020629883
10
26.635668277740479
20
45.891304016113281
10
27.538583278656006
20
46.321091651916504
10
28.434569835662842
20
46.765155792236328
10
29.323394298553467
20
47.223377227783203
10
30.204837322235107
20
47.69564151763916
10
31.07867956161499
20
48.18183422088623
10
31.944694519042969
20
48.681831359863281
10
32.802670001983643
20
49.195504188537598
10
33.652386665344238
20
49.722723960876465
10
34.493629932403564
20
50.263357162475586
10
35.326192378997803
20
50.817270278930664
10
36.149861812591553
20
51.38432502746582
10
36.964428424835205
20
51.964378356933594
10
37.769687175750732
20
52.557277679443359
10
38.565442562103271
20
53.162879943847656
10
39.351487159729004
20
53.781032562255859
10
40.127625465393066
20
54.411578178405762
10
40.893664360046387
20
55.054359436035156
10
41.64940357208252
20
55.709214210510254
10
42.394661903381348
20
56.375975608825684
10
43.12924861907959
20
57.054476737976074
10
44.565658569335938
20
58.446016311645508
0
LWPOLYLINE
5
101
100
AcDbEntity
8
0
100
AcDbPolyline
90
196
70
1
43
0.0
10
43.12924861907959
20
57.054476737976074
10
44.565658569335938
20
58.446016311645508
10
43.999972343444824
20
59.011702537536621
10
42.581791877746582
20
57.637829780578613
10
41.856532096862793
20
56.967935562133789
10
41.120734214782715
20
56.309638023376465
10
40.374588966369629
20
55.66309928894043
10
39.618275165557861
20
55.028476715087891
10
38.851985931396484
20
54.405932426452637
10
38.075921535491943
20
53.795628547668457
10
37.290267944335938
20
53.197712898254395
10
36.495227813720703
20
52.612333297729492
10
35.690999031066895
20
52.039647102355957
10
34.877784252166748
20
51.479792594909668
10
34.055793285369873
20
50.932908058166504
10
33.225228786468506
20
50.399136543273926
10
32.386295795440674
20
49.878606796264648
10
31.539211273193359
20
49.371457099914551
10
30.684187412261963
20
48.877806663513184
10
29.821441173553467
20
48.397789001464844
10
28.951184749603271
20
47.931513786315918
10
28.073639869689941
20
47.479109764099121
10
27.189028263092041
20
47.04068660736084
10
26.297574043273926
20
46.616349220275879
10
25.399496555328369
20
46.206212043762207
10
24.4950270652771
20
45.810375213623047
10
23.584389686584473
20
45.428938865661621
10
22.667815685272217
20
45.06199836730957
10
21.74553394317627
20
44.709644317626953
10
20.81777811050415
20
44.371967315673828
10
19.884783029556274
20
44.049057960510254
10
18.946781158447266
20
43.740987777709961
10
18.00400972366333
20
43.447837829589844
10
17.056705951690674
20
43.169684410095215
10
16.105108261108398
20
42.906594276428223
10
15.149455070495605
20
42.658638954162598
10
14.189989566802979
20
42.425875663757324
10
13.226951360702515
20
42.208361625671387
10
12.260583639144897
20
42.006158828735352
10
11.291128396987915
20
41.819310188293457
10
10.318831205368042
20
41.647868156433105
10
9.3439370393753052
20
41.491875648498535
10
8.3666896820068359
20
41.35136604309082
10
7.3873364925384521
20
41.226382255554199
10
6.4061230421066284
20
41.116952896118164
10
5.4232972860336304
20
41.023106575012207
10
4.4391059875488281
20
40.944862365722656
10
3.4537976980209351
20
40.882244110107422
10
2.4676194787025452
20
40.83526611328125
10
1.4808201789855957
20
40.803942680358887
10
0.49364816397428513
20
40.788278579711914
10
-0.49364816397428501
20
40.788278579711914
10
-1.4808201789855957
20
40.803942680358887
10
-2.4676194787025452
20
40.83526611328125
10
-3.4537976980209351
20
40.882244110107422
10
-4.4391059875488281
20
40.944862365722656
10
-5.4232972860336304
20
41.023106575012207
10
-6.4061230421066284
20
41.116952896118164
10
-7.3873364925384521
20
41.226382255554199
10
-8.3666896820068359
20
41.35136604309082
10
-9.3439370393753052
20
41.491875648498535
10
-10.318831205368042
20
41.647868156433105
10
-11.291128396987915
20
41.819310188293457
10
-12.260583639144897
20
42.006158828735352
10
-13.226951360702515
20
42.208361625671387
10
-14.189989566802979
20
42.425875663757324
10
-15.149455070495605
20
42.658638954162598
10
-16.105108261108398
20
42.906594276428223
10
-17.056705951690674
20
43.169684410095215
10
-18.00400972366333
20
43.447837829589844
10
-18.946781158447266
20
43.740987777709961
10
-19.884783029556274
20
44.049057960510254
10
-20.81777811050415
20
44.371967315673828
10
-21.74553394317627
20
44.709644317626953
10
-22.667815685272217
20
45.06199836730957
10
-23.584389686584473
20
45.428938865661621
10
-24.4950270652771
20
45.810375213623047
10
-25.399496555328369
20
46.206212043762207
10
-26.297574043273926
20
46.616349220275879
10
-27.189028263092041
20
47.04068660736084
10
-28.073639869689941
20
47.479109764099121
10
-28.951184749603271
20
47.931513786315918
10
-29.821441173553467
20
48.397789001464844
10
-30.684187412261963
20
48.877806663513184
10
-31.539211273193359
20
49.371457099914551
10
-32.386295795440674
20
49.878606796264648
10
-33.225228786468506
20
50.399136543273926
10
-34.055793285369873
20
50.932908058166504
10
-34.877784252166748
20
51.479792594909668
10
-35.690999031066895
20
52.039647102355957
10
-36.495227813720703
20
52.612333297729492
10
-37.290267944335938
20
53.197712898254395
10
-38.075921535491943
20
53.795628547668457
10
-38.851985931396484
20
54.405932426452637
10
-39.618275165557861
20
55.028476715087891
10
-40.374588966369629
20
55.66309928894043
10
-41.120734214782715
20
56.309638023376465
10
-41.856532096862793
20
56.967935562133789
10
-42.581791877746582
20
57.637829780578613
10
-43.999972343444824
20
59.011702537536621
10
-44.565658569335938
20
58.446016311645508
10
-43.12924861907959
20
57.054476737976074
10
-42.394661903381348
20
56.375975608825684
10
-41.64940357208252
20
55.709214210510254
10
-40.893664360046387
20
55.054359436035156
10
-40.127625465393066
20
54.411578178405762
10
-39.351487159729004
20
53.781032562255859
10
-38.565442562103271
20
53.162879943847656
10
-37.769687175750732
20
52.557277679443359
10
-36.964428424835205
20
51.964378356933594
10
-36.149861812591553
20
51.38432502746582
10
-35.326192378997803
20
50.817270278930664
10
-34.493629932403564
20
50.263357162475586
10
-33.652386665344238
20
49.722723960876465
10
-32.802670001983643
20
49.195504188537598
10
-31.944694519042969
20
48.681831359863281
10
-31.07867956161499
20
48.18183422088623
10
-30.204837322235107
20
47.69564151763916
10
-29.323394298553467
20
47.223377227783203
10
-28.434569835662842
20
46.765155792236328
10
-27.538583278656006
20
46.321091651916504
10
-26.635668277740479
20
45.891304016113281
10
-25.726044178009033
20
45.475893020629883
10
-24.80994701385498
20
45.074968338012695
10
-23.887603282928467
20
44.688625335693359
10
-22.959244251251221
20
44.31696891784668
10
-22.025105953216553
20
43.960084915161133
10
-21.085422039031982
20
43.618068695068359
10
-20.140430927276611
20
43.291001319885254
10
-19.190371036529537
20
42.978973388671875
10
-18.235477209091187
20
42.682056427001953
10
-17.275995016098026
20
42.400326728820801
10
-16.31216287612915
20
42.133855819702148
10
-15.344223976135254
20
41.882710456848145
10
-14.372423887252808
20
41.646952629089355
10
-13.397003412246704
20
41.426644325256348
10
-12.418211698532104
20
41.221842765808105
10
-11.436293125152588
20
41.032590866088867
10
-10.45149564743042
20
40.858945846557617
10
-9.4640666246414202
20
40.700945854187012
10
-8.4742558002471924
20
40.558633804321289
10
-7.4823111295700073
20
40.432043075561523
10
-6.4884835481643677
20
40.321202278137207
10
-5.4930222034454346
20
40.226149559020996
10
-4.4961777329444885
20
40.146899223327637
10
-3.4982013702392578
20
40.083475112915039
10
-2.4993443489074707
20
40.035896301269531
10
-1.4998583495616915
20
40.004167556762695
10
-0.49999475479125977
20
39.988300800323486
10
0.49999475479125971
20
39.988300800323486
10
1.4998583495616913
20
40.004167556762695
10
2.4993443489074707
20
40.035896301269531
10
3.4982013702392578
20
40.083475112915039
10
4.4961777329444885
20
40.146899223327637
10
5.4930222034454346
20
40.226149559020996
10
6.4884835481643677
20
40.321202278137207
10
7.4823111295700073
20
40.432043075561523
10
8.4742558002471924
20
40.558633804321289
10
9.4640666246414185
20
40.700945854187012
10
10.45149564743042
20
40.858945846557617
10
11.436293125152588
20
41.032590866088867
10
12.418211698532104
20
41.221842765808105
10
13.397003412246704
20
41.426644325256348
10
14.372423887252808
20
41.646952629089355
10
15.344223976135254
20
41.882710456848145
10
16.312162876129154
20
42.133855819702148
10
17.275995016098022
20
42.400326728820801
10
18.235477209091183
20
42.682056427001953
10
19.190371036529541
20
42.978973388671875
10
20.140430927276611
20
43.291001319885254
10
21.085422039031982
20
43.618068695068359
10
22.025105953216553
20
43.960084915161133
10
22.959244251251221
20
44.31696891784668
10
23.887603282928467
20
44.688625335693359
10
24.80994701385498
20
45.074968338012695
10
25.726044178009033
20
45.475893020629883
10
26.635668277740479
20
45.891304016113281
10
27.538583278656006
20
46.321091651916504
10
28.434569835662842
20
46.765155792236328
10
29.323394298553467
20
47.223377227783203
10
30.204837322235107
20
47.69564151763916
10
31.07867956161499
20
48.18183422088623
10
31.944694519042969
20
48.681831359863281
10
32.802670001983643
20
49.195504188537598
10
33.652386665344238
20
49.722723960876465
10
34.493629932403564
20
50.263357162475586
10
35.326192378997803
20
50.817270278930664
10
36.149861812591553
20
51.38432502746582
10
36.964428424835205
20
51.964378356933594
10
37.769687175750732
20
52.557277679443359
10
38.565442562103271
20
53.162879943847656
10
39.351487159729004
20
53.781032562255859
10
40.127625465393066
20
54.411578178405762
10
40.893664360046387
20
55.054359436035156
10
41.64940357208252
20
55.709214210510254
10
42.394661903381348
20
56.375975608825684
0
LWPOLYLINE
5
102
100
AcDbEntity
8
0
100
AcDbPolyline
90
8
70
1
43
0.0
10
-49.999999999999986
20
79.500001668923503
10
50
20
79.500001668923503
42
-0.41421356237309531
10
60.000000000000007
20
69.500001668923503
10
60.000000000000014
20
29.500001668923488
42
-0.41421356237309503
10
50.000000000000007
20
19.500001668923485
10
-50.000000000000028
20
19.500001668923488
42
-0.41421356237309503
10
-59.999999999999993
20
29.500001668923453
10
-59.999999999999993
20
69.500001668923488
42
-0.41421356237309453
0
LINE
5
103
100
AcDbEntity
8
0
100
AcDbLine
10
4.5493162862146575e-15
20
79.500001668923488
30
0
11
-8.773360009287221e-15
21
19.500001668923485
31
0
0
LWPOLYLINE
5
104
100
AcDbEntity
8
0
100
AcDbPolyline
90
196
70
1
43
0.0
10
-41.520191003710778
20
57.337922606994944
10
-42.238165813252628
20
58.001087981083394
10
-44.005538444966774
20
59.713243217201217
10
-45.278419596255702
20
58.440362065912282
10
-43.472874079246481
20
56.691217931585321
10
-42.731001880668025
20
56.00598756508964
10
-41.979831927093578
20
55.333937206732749
10
-41.218097056017832
20
54.673887140170535
10
-40.445980255629138
20
54.026005927539373
10
-39.663684705044666
20
53.390458079488539
10
-38.871403642983744
20
52.767401048745633
10
-38.069335014713012
20
52.156994150069352
10
-37.257688572690533
20
51.559391671306507
10
-36.436659538371323
20
50.974736447549169
10
-35.6064546201304
20
50.403182348361909
10
-34.767286843830675
20
49.844874632105522
10
-33.919369811765641
20
49.299952470245991
10
-33.062912082492957
20
48.768550099885047
10
-32.198130440481307
20
48.250802400713951
10
-31.325244851654457
20
47.74683847569824
10
-30.444469104858861
20
47.256788073015834
10
-29.556033208310588
20
46.780777104078311
10
-28.660157651777553
20
46.31892057253004
10
-27.757062272568813
20
45.871333195176035
10
-26.846983607435678
20
45.438135654448587
10
-25.93014313489029
20
45.01942905519293
10
-25.006778610771008
20
44.615323854065771
10
-24.077117068493461
20
44.225915633094246
10
-23.141392658811139
20
43.85131058232426
10
-22.199843690999185
20
43.491595361286713
10
-21.252705041668648
20
43.146865845480427
10
-20.300216547775861
20
42.817203579122236
10
-19.342618478381553
20
42.502699885789724
10
-18.380149434881183
20
42.203427468390075
10
-17.413055274564396
20
41.919462692505228
10
-16.441576420772584
20
41.650877694532646
10
-15.465958743636929
20
41.39773996493777
10
-14.486448798268011
20
41.16011173292776
10
-13.503288688271562
20
40.938055356442291
10
-12.516732315551275
20
40.731629126238602
10
-11.527023995584518
20
40.540875855244863
10
-10.534412974588285
20
40.36585310790143
10
-9.5391501431141776
20
40.206599616105628
10
-8.5414864390376835
20
40.063158502607351
10
-7.5416733622079279
20
39.935563617770661
10
-6.539960719038227
20
39.823843405697346
10
-5.5366011693109085
20
39.728036517806864
10
-4.5318489555384911
20
39.648157507001798
10
-3.5259541355299602
20
39.584230157104713
10
-2.5191726930056282
20
39.536273879480326
10
-1.5117580988504367
20
39.504293441243739
10
-0.50396173532395361
20
39.488300800323486
10
0.50396173532395383
20
39.488300800323486
10
1.5117580988504371
20
39.504293441243739
10
2.5191726930056291
20
39.536273879480326
10
3.5259541355299602
20
39.584230157104713
10
4.5318489555384875
20
39.648157507001798
10
5.5366011693109094
20
39.728036517806864
10
6.5399607190382278
20
39.823843405697346
10
7.5416733622082024
20
39.935563617770697
10
8.5414864390374099
20
40.063158502607308
10
9.5391501431141794
20
40.206599616105628
10
10.534412974588287
20
40.36585310790143
10
11.52702399558452
20
40.540875855244863
10
12.516732315551277
20
40.731629126238602
10
13.503288688271564
20
40.938055356442291
10
14.486448798268013
20
41.16011173292776
10
15.465958743636927
20
41.39773996493777
10
16.441576420772588
20
41.650877694532646
10
17.413055274564393
20
41.919462692505228
10
18.380149434881186
20
42.203427468390075
10
19.342618478381514
20
42.502699885789717
10
20.300216547775911
20
42.81720357912225
10
21.252705041668651
20
43.146865845480427
10
22.199843690999185
20
43.491595361286713
10
23.141392658811135
20
43.851310582324253
10
24.077117068493461
20
44.225915633094246
10
25.006778610771008
20
44.615323854065771
10
25.930143134890287
20
45.01942905519293
10
26.846983607435682
20
45.438135654448601
10
27.757062272568817
20
45.871333195176042
10
28.660157651777553
20
46.31892057253004
10
29.556033208310588
20
46.780777104078311
10
30.444469104858861
20
47.256788073015834
10
31.325244851654457
20
47.74683847569824
10
32.198130440481307
20
48.250802400713951
10
33.062912082492957
20
48.768550099885047
10
33.919369811765648
20
49.299952470245998
10
34.767286843830675
20
49.844874632105522
10
35.606454620130393
20
50.403182348361909
10
36.436659538371316
20
50.974736447549169
10
37.257688572690533
20
51.559391671306507
10
38.069335014713012
20
52.156994150069352
10
38.871403642983744
20
52.767401048745633
10
39.663684705044666
20
53.390458079488539
10
40.445980255629138
20
54.02600592753938
10
41.218097056017832
20
54.673887140170535
10
41.979831927093578
20
55.333937206732749
10
42.731001880668025
20
56.00598756508964
10
43.472874079246473
20
56.691217931585314
10
45.278419596255702
20
58.440362065912282
10
44.005538444966774
20
59.713243217201217
10
42.238165813252415
20
58.001087981083195
10
41.520191003710778
20
57.337922606994937
10
40.790306237747807
20
56.684915365860206
10
40.050156441571175
20
56.043571721937141
10
39.299920102308654
20
55.414048743367317
10
38.539788389527253
20
54.796506912807111
10
37.769960289177703
20
54.191107311794909
10
36.990619237267794
20
53.59799577203588
10
36.20196791053673
20
53.017320179927069
10
35.404202715515112
20
52.449236664150909
10
34.597521663005118
20
51.893880274870767
10
33.782135332437612
20
51.351389914670364
10
32.958245278376118
20
50.821907806004461
10
32.126054048582525
20
50.305561095432161
10
31.285776034227894
20
49.802486456907253
10
30.437622571202834
20
49.312802664104602
10
29.581808776718511
20
48.836642098754538
10
28.718545410288851
20
48.374113698119352
10
27.848053216692893
20
47.925345573883895
10
26.970548922179635
20
47.49044487850248
10
26.086257794059904
20
47.069517164676299
10
25.195397541620508
20
46.662675980582506
10
24.29819595425883
20
46.270019913967211
10
23.394876148179517
20
45.891648658916395
10
22.485666868599786
20
45.527656547338225
10
21.570795752311795
20
45.178133697596948
10
20.65049598022032
20
44.84317049176839
10
19.724998239879397
20
44.522855964241394
10
18.794532610160619
20
44.217260927103624
10
17.859337037466513
20
43.926466654491549
10
16.919645384551526
20
43.650548354298806
10
15.975694871138002
20
43.389572451134278
10
15.027721379344241
20
43.143609715943427
10
14.075964604576509
20
42.912716538744405
10
13.120665307460717
20
42.696950428552682
10
12.162063093381947
20
42.496372486521068
10
11.200397522403126
20
42.311025193852473
10
10.235914033432859
20
42.140960927011044
10
9.2688529936896948
20
41.986221795136416
10
8.2994580831932065
20
41.846841222417453
10
7.3279754148405543
20
41.722861860607438
10
6.3546469908584315
20
41.614311874964272
10
5.3797183349825142
20
41.521219618143178
10
4.4034350038599355
20
41.443604100302444
10
3.4260443386254913
20
41.38148902508987
10
2.4477909964969364
20
41.334888541017662
10
1.468921397864646
20
41.303816816279607
10
0.4896815009845783
20
41.288278579711914
10
-0.48968150098457841
20
41.288278579711914
10
-1.468921397864646
20
41.303816816279607
10
-2.4477909964969369
20
41.334888541017662
10
-3.4260443386254904
20
41.38148902508987
10
-4.4034350038599337
20
41.443604100302444
10
-5.3797183349825159
20
41.521219618143178
10
-6.3546469908584315
20
41.614311874964272
10
-7.3279754148405543
20
41.722861860607438
10
-8.299458083193203
20
41.846841222417453
10
-9.2688529936896931
20
41.986221795136416
10
-10.235914033432863
20
42.140960927011044
10
-11.200397522403126
20
42.311025193852473
10
-12.162063093381949
20
42.496372486521068
10
-13.120665307460717
20
42.696950428552682
10
-14.075964604576507
20
42.912716538744398
10
-15.027721379344239
20
43.143609715943427
10
-15.975694871138003
20
43.389572451134278
10
-16.919645384551522
20
43.650548354298806
10
-17.85933703746651
20
43.926466654491549
10
-18.794532610160619
20
44.217260927103624
10
-19.724998239879355
20
44.522855964241387
10
-20.65049598022037
20
44.843170491768412
10
-21.570795752311792
20
45.178133697596941
10
-22.485666868599786
20
45.527656547338225
10
-23.39487614817952
20
45.891648658916395
10
-24.29819595425883
20
46.270019913967211
10
-25.195397541620508
20
46.662675980582506
10
-26.0862577940599
20
47.069517164676292
10
-26.970548922179638
20
47.49044487850248
10
-27.848053216692893
20
47.925345573883895
10
-28.718545410288854
20
48.374113698119352
10
-29.581808776718511
20
48.836642098754538
10
-30.43762257120283
20
49.312802664104602
10
-31.285776034227901
20
49.802486456907253
10
-32.126054048582525
20
50.305561095432161
10
-32.958245278376111
20
50.821907806004454
10
-33.782135332437612
20
51.351389914670364
10
-34.597521663005111
20
51.89388027487076
10
-35.404202715515119
20
52.449236664150909
10
-36.201967910536723
20
53.017320179927061
10
-36.990619237267801
20
53.59799577203588
10
-37.769960289177703
20
54.191107311794909
10
-38.539788389527253
20
54.796506912807111
10
-39.299920102308647
20
55.414048743367317
10
-40.050156441571175
20
56.043571721937148
10
-40.790306237747799
20
56.684915365860206
0
ENDSEC
0
SECTION
2
OBJECTS
0
DICTIONARY
5
C
100
AcDbDictionary
3
ACAD_GROUP
350
D
3
ACAD_MLINESTYLE
350
17
0
DICTIONARY
5
D
100
AcDbDictionary
0
DICTIONARY
5
1A
330
C
100
AcDbDictionary
0
DICTIONARY
5
17
100
AcDbDictionary
0
ENDSEC
0
EOF
