0
SECTION
2
HEADER
9
$INSUNITS
70
4
9
$ACADVER
1
AC1014
9
$HANDSEED
5
FFFF
0
ENDSEC
0
SECTION
2
TABLES
0
TABLE
2
VPORT
5
8
100
AcDbSymbolTable
0
ENDTAB
0
TABLE
2
LTYPE
5
5
100
AcDbSymbolTable
0
LTYPE
5
14
100
AcDbSymbolTableRecord
100
AcDbLinetypeTableRecord
2
BYBLOCK
70
0
0
LTYPE
5
15
100
AcDbSymbolTableRecord
100
AcDbLinetypeTableRecord
2
BYLAYER
70
0
0
ENDTAB
0
TABLE
2
LAYER
5
2
100
AcDbSymbolTable
70
2
0
LAYER
5
50
100
AcDbSymbolTableRecord
100
AcDbLayerTableRecord
2
0
70
0
6
CONTINUOUS
0
ENDTAB
0
TABLE
2
STYLE
5
3
100
AcDbSymbolTable
70
1
0
STYLE
5
11
100
AcDbSymbolTableRecord
100
AcDbTextStyleTableRecord
2
STANDARD
70
0
0
ENDTAB
0
TABLE
2
VIEW
5
6
100
AcDbSymbolTable
70
0
0
ENDTAB
0
TABLE
2
UCS
5
7
100
AcDbSymbolTable
70
0
0
ENDTAB
0
TABLE
2
APPID
5
9
100
AcDbSymbolTable
70
2
0
APPID
5
12
100
AcDbSymbolTableRecord
100
AcDbRegAppTableRecord
2
ACAD
70
0
0
ENDTAB
0
TABLE
2
DIMSTYLE
5
A
100
AcDbSymbolTable
70
1
0
ENDTAB
0
TABLE
2
BLOCK_RECORD
5
1
100
AcDbSymbolTable
70
1
0
BLOCK_RECORD
5
1F
100
AcDbSymbolTableRecord
100
AcDbBlockTableRecord
2
*MODEL_SPACE
0
BLOCK_RECORD
5
1B
100
AcDbSymbolTableRecord
100
AcDbBlockTableRecord
2
*PAPER_SPACE
0
ENDTAB
0
ENDSEC
0
SECTION
2
BLOCKS
0
BLOCK
5
20
100
AcDbEntity
100
AcDbBlockBegin
2
*MODEL_SPACE
0
ENDBLK
5
21
100
AcDbEntity
100
AcDbBlockEnd
0
BLOCK
5
1C
100
AcDbEntity
100
AcDbBlockBegin
2
*PAPER_SPACE
0
ENDBLK
5
1D
100
AcDbEntity
100
AcDbBlockEnd
0
ENDSEC
0
SECTION
2
ENTITIES
0
LINE
5
100
100
AcDbEntity
8
0
100
AcDbLine
10
290.49279642856828
20
-333.51160650594795
30
0
11
297.3927964285682
21
-333.51160650594795
31
7.2409867416398352e-31
0
LINE
5
101
100
AcDbEntity
8
0
100
AcDbLine
10
297.39279642856798
20
21.488393494052005
30
0
11
290.49279642856811
21
21.488393494052033
31
8.3953469468294952e-32
0
LINE
5
102
100
AcDbEntity
8
0
100
AcDbLine
10
290.49279642856811
20
21.488393494052033
30
8.3953469468294952e-32
11
290.49279642856828
21
-333.51160650594795
31
0
0
CIRCLE
5
103
100
AcDbEntity
8
0
100
AcDbCircle
10
287.39279643900591
20
-343.51160650594807
30
0
40
1.625
210
-1.1608349992122457e-31
220
-7.3955709864469846e-32
230
1
0
CIRCLE
5
104
100
AcDbEntity
8
0
100
AcDbCircle
10
287.39279642856815
20
-311.0116065059479
30
0
40
1.7500000000000002
210
-1.2722516300708888e-31
220
1.5580588864762742e-47
230
1
0
CIRCLE
5
105
100
AcDbEntity
8
0
100
AcDbCircle
10
287.39279642856815
20
-211.0116065059479
30
0
40
1.7500000000000002
210
-1.2722516300708888e-31
220
1.5580588864762742e-47
230
1
0
CIRCLE
5
106
100
AcDbEntity
8
0
100
AcDbCircle
10
287.39279642856815
20
-136.0116065059479
30
0
40
1.7500000000000002
210
-1.2722516300708888e-31
220
1.5580588864762742e-47
230
1
0
CIRCLE
5
107
100
AcDbEntity
8
0
100
AcDbCircle
10
287.39279642856815
20
-36.011606505947888
30
0
40
1.7500000000000002
210
-1.2722516300708888e-31
220
1.5580588864762742e-47
230
1
0
CIRCLE
5
108
100
AcDbEntity
8
0
100
AcDbCircle
10
287.39279643900591
20
-3.5116065059481643
30
0
40
1.625
210
-2.3054847451179303e-33
220
-7.3955709864469857e-32
230
1
0
LWPOLYLINE
5
109
100
AcDbEntity
8
0
100
AcDbPolyline
90
4
70
1
43
0.0
10
497.39279642856837
20
-340.51160650594784
10
497.39279642856843
20
-346.51160650594784
10
77.392796428568076
20
-346.51160650594812
10
77.392796428568104
20
-340.51160650594807
0
LWPOLYLINE
5
110
100
AcDbEntity
8
0
100
AcDbPolyline
90
4
70
1
43
0.0
10
497.39279642856815
20
34.488393494052083
10
497.3927964285682
20
28.488393494052083
10
77.392796428567863
20
28.488393494051838
10
77.392796428567891
20
34.488393494051842
0
LINE
5
111
100
AcDbEntity
8
0
100
AcDbLine
10
498.98029642856812
20
41.488393494052417
30
0
11
498.98029642856841
21
-353.51160650594755
31
-9.4663308626521417e-29
0
LINE
5
112
100
AcDbEntity
8
0
100
AcDbLine
10
77.392796428568104
20
-340.51160650594807
30
0
11
497.39279642856837
21
-340.51160650594784
31
-7.6397657216142984e-30
0
LINE
5
113
100
AcDbEntity
8
0
100
AcDbLine
10
77.392796428568104
20
-346.51160650594812
30
0
11
497.39279642856843
21
-346.51160650594784
31
-7.6397657216142914e-30
0
LINE
5
114
100
AcDbEntity
8
0
100
AcDbLine
10
75.805296428567871
20
41.488393494052076
30
0
11
75.805296428568184
21
-353.51160650594795
31
-9.4663308626521417e-29
0
LINE
5
115
100
AcDbEntity
8
0
100
AcDbLine
10
77.392796428567891
20
28.488393494051838
30
0
11
497.3927964285682
21
28.488393494052083
31
-3.6729642892378449e-31
0
LINE
5
116
100
AcDbEntity
8
0
100
AcDbLine
10
77.392796428567891
20
34.488393494051842
30
0
11
497.39279642856815
21
34.488393494052083
31
-3.672964289237915e-31
0
LINE
5
117
100
AcDbEntity
8
0
100
AcDbLine
10
497.39279642856843
20
-343.51160650594778
30
0
11
77.39279642856809
21
-343.51160650594807
31
3.8198828608071457e-30
0
LINE
5
118
100
AcDbEntity
8
0
100
AcDbLine
10
77.392796428567877
20
31.488393494051834
30
1.8364821446189224e-31
11
497.39279642856815
21
31.488393494052083
31
0
0
CIRCLE
5
119
100
AcDbEntity
8
0
100
AcDbCircle
10
477.39279643900591
20
-343.51160650594784
30
1.9099414304035728e-30
40
1.6250000000000142
210
0
220
0
230
1
0
CIRCLE
5
120
100
AcDbEntity
8
0
100
AcDbCircle
10
382.39279643900591
20
-343.51160650594801
30
1.9099414304035728e-30
40
1.6250000000000142
210
0
220
0
230
1
0
LINE
5
121
100
AcDbEntity
8
0
100
AcDbLine
10
287.39279643900591
20
-343.51160650594807
30
0
11
287.39279643900591
21
-3.5116065059481643
31
0
0
CIRCLE
5
122
100
AcDbEntity
8
0
100
AcDbCircle
10
287.42968095415517
20
31.488770364168378
30
0
40
1.6249999999999938
210
0
220
0
230
1
0
CIRCLE
5
123
100
AcDbEntity
8
0
100
AcDbCircle
10
477.42968095415517
20
31.488393494051927
30
9.1824107230946122e-32
40
1.6250000000000095
210
0
220
0
230
1
0
CIRCLE
5
124
100
AcDbEntity
8
0
100
AcDbCircle
10
382.42968095415517
20
31.488393494051813
30
9.1824107230946122e-32
40
1.6250000000000207
210
0
220
0
230
1
0
CIRCLE
5
125
100
AcDbEntity
8
0
100
AcDbCircle
10
192.35591192385655
20
31.488393494051792
30
9.1824107230946122e-32
40
1.6250000000000207
210
0
220
0
230
1
0
CIRCLE
5
126
100
AcDbEntity
8
0
100
AcDbCircle
10
97.355911923856553
20
31.488393494051934
30
9.1824107230946122e-32
40
1.6250000000000095
210
0
220
0
230
1
0
CIRCLE
5
127
100
AcDbEntity
8
0
100
AcDbCircle
10
97.392796439005878
20
-343.51160650594784
30
1.9099414304035728e-30
40
1.6250000000000142
210
0
220
0
230
1
0
CIRCLE
5
128
100
AcDbEntity
8
0
100
AcDbCircle
10
192.39279643900588
20
-343.51160650594801
30
1.9099414304035728e-30
40
1.6250000000000142
210
0
220
0
230
1
0
LWPOLYLINE
5
129
100
AcDbEntity
8
0
100
AcDbPolyline
90
4
70
1
43
0.0
10
505.98029642856795
20
41.488393494052403
10
511.98029642856795
20
41.488393494052403
10
511.98029642856824
20
-353.51160650594755
10
505.98029642856824
20
-353.51160650594761
0
LWPOLYLINE
5
130
100
AcDbEntity
8
0
100
AcDbPolyline
90
4
70
1
43
0.0
10
62.805296428567807
20
41.488393494052048
10
68.805296428567843
20
41.488393494052048
10
68.805296428568155
20
-353.51160650594795
10
62.805296428568127
20
-353.51160650594801
0
LINE
5
131
100
AcDbEntity
8
0
100
AcDbLine
10
508.98029642856795
20
41.488393494052403
30
3.148255105060822e-31
11
508.98029642856829
21
-353.51160650594761
31
-4.7646479823766792e-29
0
LINE
5
132
100
AcDbEntity
8
0
100
AcDbLine
10
65.805296428568141
20
-353.51160650594795
30
-4.7646479823766792e-29
11
65.805296428567829
21
41.488393494052048
31
3.1482551050608137e-31
0
CIRCLE
5
133
100
AcDbEntity
8
0
100
AcDbCircle
10
508.98029642856812
20
-156.01160650594764
30
-2.3665827156630354e-29
40
1.6250000000000142
210
0
220
0
230
1
0
CIRCLE
5
134
100
AcDbEntity
8
0
100
AcDbCircle
10
508.98029642856807
20
-67.26160650594764
30
-2.3665827156630354e-29
40
1.62499999999999
210
0
220
0
230
1
0
CIRCLE
5
135
100
AcDbEntity
8
0
100
AcDbCircle
10
508.98029642856795
20
21.48839349405236
30
-2.3665827156630354e-29
40
1.6250000000000142
210
0
220
0
230
1
0
CIRCLE
5
136
100
AcDbEntity
8
0
100
AcDbCircle
10
508.98029642856812
20
-244.76160650594764
30
-2.3665827156630354e-29
40
1.6250000000000182
210
0
220
0
230
1
0
CIRCLE
5
137
100
AcDbEntity
8
0
100
AcDbCircle
10
508.98029642856818
20
-333.51160650594761
30
-2.3665827156630354e-29
40
1.6250000000000142
210
0
220
0
230
1
0
CIRCLE
5
138
100
AcDbEntity
8
0
100
AcDbCircle
10
65.805296449443773
20
21.48839349405236
30
-2.3665827156630354e-29
40
1.6250000000000142
210
0
220
0
230
1
0
CIRCLE
5
139
100
AcDbEntity
8
0
100
AcDbCircle
10
65.805296449443702
20
-67.26160650594764
30
-2.3665827156630354e-29
40
1.62499999999999
210
0
220
0
230
1
0
CIRCLE
5
140
100
AcDbEntity
8
0
100
AcDbCircle
10
65.805296449443631
20
-156.01160650594764
30
-2.3665827156630354e-29
40
1.6250000000000142
210
0
220
0
230
1
0
CIRCLE
5
141
100
AcDbEntity
8
0
100
AcDbCircle
10
65.805296449443631
20
-244.76160650594764
30
-2.3665827156630354e-29
40
1.6250000000000182
210
0
220
0
230
1
0
CIRCLE
5
142
100
AcDbEntity
8
0
100
AcDbCircle
10
65.80529644944356
20
-333.51160650594761
30
-2.3665827156630354e-29
40
1.6250000000000142
210
0
220
0
230
1
0
LWPOLYLINE
5
143
100
AcDbEntity
8
0
100
AcDbPolyline
90
8
70
1
43
0.0
10
512.98029642856795
20
41.488393494052119
10
61.805296428568212
20
41.488393494052119
42
0.41421356237309503
10
55.805296428568198
20
35.488393494052112
10
55.805296428568198
20
-347.51160650594784
42
0.41421356237309503
10
61.805296428568191
20
-353.51160650594784
10
512.98029642856807
20
-353.51160650594784
42
0.41421356237309503
10
518.98029642856807
20
-347.51160650594784
10
518.98029642856807
20
35.488393494052033
42
0.41421356237309503
0
LINE
5
144
100
AcDbEntity
8
0
100
AcDbLine
10
497.39279642856815
20
41.488393494052119
30
0
11
77.392796428567863
21
41.488393494051877
31
2.1019476964872256e-44
0
LINE
5
145
100
AcDbEntity
8
0
100
AcDbLine
10
518.98029642856818
20
41.488393494052431
30
0
11
518.98029642856841
21
-353.51160650594755
31
-9.4663308626521417e-29
0
LINE
5
146
100
AcDbEntity
8
0
100
AcDbLine
10
55.805296428567878
20
41.488393494052069
30
0
11
55.805296428568198
21
-353.51160650594795
31
-9.4663308626521417e-29
0
LINE
5
147
100
AcDbEntity
8
0
100
AcDbLine
10
77.392796428568118
20
-353.51160650594812
30
0
11
497.39279642856843
21
-353.51160650594784
31
-7.6397657216142984e-30
0
LWPOLYLINE
5
148
100
AcDbEntity
8
0
100
AcDbPolyline
90
8
70
1
43
0.0
10
517.98029642856807
20
35.488393494052062
42
0.41421356237309348
10
512.98029642856795
20
40.488393494052126
10
61.805296428568184
20
40.488393494052126
42
0.41421356237309348
10
56.805296428568198
20
35.488393494052112
10
56.805296428568191
20
-347.51160650594784
42
0.41421356237309503
10
61.805296428568191
20
-352.51160650594784
10
512.98029642856807
20
-352.51160650594784
42
0.41421356237309503
10
517.98029642856807
20
-347.51160650594784
0
LWPOLYLINE
5
149
100
AcDbEntity
8
0
100
AcDbPolyline
90
4
70
1
43
0.0
10
508.98029642856812
20
-246.38660650594767
10
510.48029642856812
20
-246.38660650594767
42
0.99999999999999989
10
510.48029642856812
20
-243.13660650594761
10
508.98029642856812
20
-243.13660650594761
42
0.99999999999999989
0
LINE
5
150
100
AcDbEntity
8
0
100
AcDbLine
10
508.98029642856812
20
-244.76160650594764
30
-2.3665827156630354e-29
11
510.48029642856812
21
-244.76160650594764
31
-2.3665827156630354e-29
0
LWPOLYLINE
5
151
100
AcDbEntity
8
0
100
AcDbPolyline
90
4
70
1
43
0.0
10
508.98029642856812
20
-157.63660650594764
10
510.48029642856812
20
-157.63660650594764
42
0.99999999999999989
10
510.48029642856812
20
-154.38660650594764
10
508.98029642856812
20
-154.38660650594764
42
0.99999999999999989
0
LINE
5
152
100
AcDbEntity
8
0
100
AcDbLine
10
508.98029642856812
20
-156.01160650594764
30
-2.3665827156630354e-29
11
510.48029642856812
21
-156.01160650594764
31
-2.3665827156630354e-29
0
LWPOLYLINE
5
153
100
AcDbEntity
8
0
100
AcDbPolyline
90
4
70
1
43
0.0
10
508.98029642856807
20
-68.88660650594764
10
510.48029642856807
20
-68.88660650594764
42
0.99999999999999989
10
510.48029642856807
20
-65.63660650594764
10
508.98029642856807
20
-65.63660650594764
42
0.99999999999999989
0
LINE
5
154
100
AcDbEntity
8
0
100
AcDbLine
10
508.98029642856807
20
-67.26160650594764
30
-2.3665827156630354e-29
11
510.48029642856807
21
-67.26160650594764
31
-2.3665827156630354e-29
0
LWPOLYLINE
5
155
100
AcDbEntity
8
0
100
AcDbPolyline
90
4
70
1
43
0.0
10
496.39279642856809
20
-330.92410650594786
10
496.39279642856809
20
18.900893494052156
10
78.392796428568232
20
18.90089349405212
10
78.392796428568204
20
-330.92410650594786
0
LWPOLYLINE
5
156
100
AcDbEntity
8
0
100
AcDbPolyline
90
4
70
1
43
0.0
10
496.39279642856809
20
-330.92410650594786
10
78.392796428568232
20
-330.92410650594786
10
78.392796428568232
20
-352.51160650594784
10
496.39279642856809
20
-352.51160650594784
0
LWPOLYLINE
5
157
100
AcDbEntity
8
0
100
AcDbPolyline
90
4
70
1
43
0.0
10
496.39279642856809
20
40.488393494052133
10
78.392796428568232
20
40.488393494052133
10
78.392796428568232
20
18.90089349405212
10
496.39279642856809
20
18.90089349405212
0
LINE
5
158
100
AcDbEntity
8
0
100
AcDbLine
10
496.39279642856809
20
-303.51160650594784
30
0
11
517.98029642856807
21
-303.51160650594784
31
0
0
LINE
5
159
100
AcDbEntity
8
0
100
AcDbLine
10
517.98029642856807
20
-8.5116065059478796
30
0
11
496.39279642856809
21
-8.5116065059478796
31
0
0
LINE
5
160
100
AcDbEntity
8
0
100
AcDbLine
10
496.39279642856809
20
-8.5116065059478796
30
0
11
517.98029642856807
21
-30.09910650594783
31
0
0
LINE
5
161
100
AcDbEntity
8
0
100
AcDbLine
10
496.39279642856809
20
-8.5116065059478796
30
0
11
526.92213170629725
21
-8.5116065059478796
31
0
0
LINE
5
162
100
AcDbEntity
8
0
100
AcDbLine
10
496.39279642856809
20
-303.51160650594784
30
0
11
517.98029642856807
21
-281.92410650594786
31
0
0
LINE
5
163
100
AcDbEntity
8
0
100
AcDbLine
10
496.39279642856809
20
-303.51160650594784
30
0
11
526.92213170629725
21
-303.51160650594784
31
0
0
LINE
5
164
100
AcDbEntity
8
0
100
AcDbLine
10
78.392796449443694
20
-303.51160650594784
30
0
11
47.863461171714548
21
-303.51160650594784
31
0
0
LINE
5
165
100
AcDbEntity
8
0
100
AcDbLine
10
78.392796449443694
20
-303.51160650594784
30
0
11
56.805296449443716
21
-281.92410650594786
31
0
0
LWPOLYLINE
5
166
100
AcDbEntity
8
0
100
AcDbPolyline
90
4
70
1
43
0.0
10
64.305296449443645
20
-243.13660650594761
42
0.99999999999999989
10
64.305296449443645
20
-246.38660650594767
10
65.805296449443631
20
-246.38660650594767
42
0.99999999999999989
10
65.805296449443631
20
-243.13660650594761
0
LWPOLYLINE
5
167
100
AcDbEntity
8
0
100
AcDbPolyline
90
4
70
1
43
0.0
10
64.305296449443645
20
-154.38660650594761
10
65.805296449443631
20
-154.38660650594761
42
-0.99999999999999989
10
65.805296449443631
20
-157.63660650594767
10
64.305296449443645
20
-157.63660650594767
42
-0.99999999999999989
0
LWPOLYLINE
5
168
100
AcDbEntity
8
0
100
AcDbPolyline
90
4
70
1
43
0.0
10
64.305296449443716
20
-65.636606505947626
10
65.805296449443702
20
-65.636606505947626
42
-0.99999999999999989
10
65.805296449443702
20
-68.886606505947654
10
64.305296449443716
20
-68.886606505947654
42
-0.99999999999999989
0
LINE
5
169
100
AcDbEntity
8
0
100
AcDbLine
10
78.392796449443694
20
-8.511606505947853
30
0
11
56.805296449443716
21
-30.09910650594783
31
0
0
LINE
5
170
100
AcDbEntity
8
0
100
AcDbLine
10
56.805296449443716
20
-8.511606505947853
30
0
11
78.392796449443694
21
-8.511606505947853
31
0
0
ENDSEC
0
SECTION
2
OBJECTS
0
DICTIONARY
5
C
100
AcDbDictionary
3
ACAD_GROUP
350
D
3
ACAD_MLINESTYLE
350
17
0
DICTIONARY
5
D
100
AcDbDictionary
0
DICTIONARY
5
1A
330
C
100
AcDbDictionary
0
DICTIONARY
5
17
100
AcDbDictionary
0
ENDSEC
0
EOF
