0
SECTION
2
HEADER
9
$INSUNITS
70
4
9
$ACADVER
1
AC1014
9
$HANDSEED
5
FFFF
0
ENDSEC
0
SECTION
2
TABLES
0
TABLE
2
VPORT
5
8
100
AcDbSymbolTable
0
ENDTAB
0
TABLE
2
LTYPE
5
5
100
AcDbSymbolTable
0
LTYPE
5
14
100
AcDbSymbolTableRecord
100
AcDbLinetypeTableRecord
2
BYBLOCK
70
0
0
LTYPE
5
15
100
AcDbSymbolTableRecord
100
AcDbLinetypeTableRecord
2
BYLAYER
70
0
0
ENDTAB
0
TABLE
2
LAYER
5
2
100
AcDbSymbolTable
70
2
0
LAYER
5
50
100
AcDbSymbolTableRecord
100
AcDbLayerTableRecord
2
0
70
0
6
CONTINUOUS
0
ENDTAB
0
TABLE
2
STYLE
5
3
100
AcDbSymbolTable
70
1
0
STYLE
5
11
100
AcDbSymbolTableRecord
100
AcDbTextStyleTableRecord
2
STANDARD
70
0
0
ENDTAB
0
TABLE
2
VIEW
5
6
100
AcDbSymbolTable
70
0
0
ENDTAB
0
TABLE
2
UCS
5
7
100
AcDbSymbolTable
70
0
0
ENDTAB
0
TABLE
2
APPID
5
9
100
AcDbSymbolTable
70
2
0
APPID
5
12
100
AcDbSymbolTableRecord
100
AcDbRegAppTableRecord
2
ACAD
70
0
0
ENDTAB
0
TABLE
2
DIMSTYLE
5
A
100
AcDbSymbolTable
70
1
0
ENDTAB
0
TABLE
2
BLOCK_RECORD
5
1
100
AcDbSymbolTable
70
1
0
BLOCK_RECORD
5
1F
100
AcDbSymbolTableRecord
100
AcDbBlockTableRecord
2
*MODEL_SPACE
0
BLOCK_RECORD
5
1B
100
AcDbSymbolTableRecord
100
AcDbBlockTableRecord
2
*PAPER_SPACE
0
ENDTAB
0
ENDSEC
0
SECTION
2
BLOCKS
0
BLOCK
5
20
100
AcDbEntity
100
AcDbBlockBegin
2
*MODEL_SPACE
0
ENDBLK
5
21
100
AcDbEntity
100
AcDbBlockEnd
0
BLOCK
5
1C
100
AcDbEntity
100
AcDbBlockBegin
2
*PAPER_SPACE
0
ENDBLK
5
1D
100
AcDbEntity
100
AcDbBlockEnd
0
ENDSEC
0
SECTION
2
ENTITIES
0
LWPOLYLINE
5
100
100
AcDbEntity
8
0
100
AcDbPolyline
90
8
70
1
43
0.0
10
-129.18715184261205
20
21.488393494050719
10
-129.18715184261205
20
-353.51160650594755
10
217.61284815738762
20
-353.51160650594755
10
217.61284815738622
20
28.28839349405186
10
-217.38715184261235
20
28.288393494051892
10
-217.38715184261235
20
-353.51160650594898
10
-135.58715184261206
20
-353.51160650594755
10
-135.58715184261206
20
21.488393494050726
0
CIRCLE
5
101
100
AcDbEntity
8
0
100
AcDbCircle
10
-38.887151842613733
20
31.488393494055909
30
0
40
1.749999999999998
210
2.4651903288156624e-32
220
-1.1985091468012033e-94
230
1
0
CIRCLE
5
102
100
AcDbEntity
8
0
100
AcDbCircle
10
181.61284815738617
20
31.488393494051927
30
0
40
1.6250000000000142
210
2.4981287348861151e-125
220
-1.2145229127547047e-187
230
1
0
CIRCLE
5
103
100
AcDbEntity
8
0
100
AcDbCircle
10
-113.88715184261373
20
31.488393494057515
30
0
40
1.7500000000000071
210
-1.2246179698288575e-94
220
-2.1895288505075267e-47
230
1
0
CIRCLE
5
104
100
AcDbEntity
8
0
100
AcDbCircle
10
-88.887151842613733
20
31.488393494056982
30
0
40
1.7500000000000071
210
-1.2246179698288575e-94
220
-2.1895288505075267e-47
230
1
0
CIRCLE
5
105
100
AcDbEntity
8
0
100
AcDbCircle
10
-63.887151842613747
20
31.488393494056446
30
0
40
1.749999999999998
210
2.4651903288156624e-32
220
-1.1985091468012033e-94
230
1
0
CIRCLE
5
106
100
AcDbEntity
8
0
100
AcDbCircle
10
-13.887151842613735
20
31.488393494055373
30
0
40
1.7500000000000004
210
-1.2246179698288585e-94
220
2.1895288505075267e-47
230
1
0
CIRCLE
5
107
100
AcDbEntity
8
0
100
AcDbCircle
10
-138.88715184261375
20
31.488393494058052
30
0
40
1.7500000000000071
210
-1.2246179698288575e-94
220
-2.1895288505075267e-47
230
1
0
CIRCLE
5
108
100
AcDbEntity
8
0
100
AcDbCircle
10
11.112848157386265
20
31.48839349405484
30
0
40
1.7500000000000004
210
-1.2246179698288585e-94
220
2.1895288505075267e-47
230
1
0
CIRCLE
5
109
100
AcDbEntity
8
0
100
AcDbCircle
10
36.112848157386267
20
31.4883934940543
30
0
40
1.749999999999998
210
2.4651903288156624e-32
220
-1.1985091468012033e-94
230
1
0
CIRCLE
5
110
100
AcDbEntity
8
0
100
AcDbCircle
10
61.112848157386253
20
31.488393494053764
30
0
40
1.749999999999998
210
2.4651903288156624e-32
220
-1.1985091468012033e-94
230
1
0
CIRCLE
5
111
100
AcDbEntity
8
0
100
AcDbCircle
10
86.112848157386267
20
31.488393494053231
30
0
40
1.7500000000000071
210
-1.2246179698288575e-94
220
-2.1895288505075267e-47
230
1
0
CIRCLE
5
112
100
AcDbEntity
8
0
100
AcDbCircle
10
111.11284815738627
20
31.488393494052694
30
0
40
1.7500000000000071
210
-1.2246179698288575e-94
220
-2.1895288505075267e-47
230
1
0
CIRCLE
5
113
100
AcDbEntity
8
0
100
AcDbCircle
10
136.11284815738625
20
31.488393494052154
30
0
40
1.7500000000000071
210
-1.2246179698288575e-94
220
-2.1895288505075267e-47
230
1
0
CIRCLE
5
114
100
AcDbEntity
8
0
100
AcDbCircle
10
-184.3871518426136
20
31.488393494050655
30
0
40
1.6250000000000142
210
1.0728321704930931e-107
220
0
230
1
0
CIRCLE
5
115
100
AcDbEntity
8
0
100
AcDbCircle
10
-132.38715184261233
20
-3.5116065059481194
30
0
40
1.6249999999999964
210
-2.6579710819703458e-109
220
-0
230
1
0
CIRCLE
5
116
100
AcDbEntity
8
0
100
AcDbCircle
10
-132.38715184261233
20
-343.51160650594801
30
0
40
1.6249999999999964
210
1.7579372458085104e-93
220
8.5466174517089825e-156
230
1
0
CIRCLE
5
117
100
AcDbEntity
8
0
100
AcDbCircle
10
-132.38715184261207
20
-311.01160650594773
30
0
40
1.7500000000000071
210
-7.2156266663171289e-93
220
-2.1895288505075267e-47
230
1
0
CIRCLE
5
118
100
AcDbEntity
8
0
100
AcDbCircle
10
-132.38715184261207
20
-286.01160650594773
30
0
40
1.7500000000000071
210
-7.2156266663171289e-93
220
-2.1895288505075267e-47
230
1
0
CIRCLE
5
119
100
AcDbEntity
8
0
100
AcDbCircle
10
-132.38715184261207
20
-261.01160650594773
30
0
40
1.7500000000000071
210
-7.2156266663171289e-93
220
-2.1895288505075267e-47
230
1
0
CIRCLE
5
120
100
AcDbEntity
8
0
100
AcDbCircle
10
-132.38715184261207
20
-236.01160650594773
30
0
40
1.7500000000000071
210
-7.2156266663171289e-93
220
-2.1895288505075267e-47
230
1
0
CIRCLE
5
121
100
AcDbEntity
8
0
100
AcDbCircle
10
-132.38715184261207
20
-211.01160650594773
30
0
40
1.7500000000000071
210
-7.2156266663171289e-93
220
-2.1895288505075267e-47
230
1
0
CIRCLE
5
122
100
AcDbEntity
8
0
100
AcDbCircle
10
-132.38715184261207
20
-186.01160650594773
30
0
40
1.7500000000000071
210
-7.2156266663171289e-93
220
-2.1895288505075267e-47
230
1
0
CIRCLE
5
123
100
AcDbEntity
8
0
100
AcDbCircle
10
-132.38715184261207
20
-161.01160650594773
30
0
40
1.7500000000000071
210
-7.2156266663171289e-93
220
-2.1895288505075267e-47
230
1
0
CIRCLE
5
124
100
AcDbEntity
8
0
100
AcDbCircle
10
-132.38715184261207
20
-136.01160650594773
30
0
40
1.7500000000000071
210
-7.2156266663171289e-93
220
-2.1895288505075267e-47
230
1
0
CIRCLE
5
125
100
AcDbEntity
8
0
100
AcDbCircle
10
-132.38715184261207
20
-111.01160650594771
30
0
40
1.7500000000000071
210
-7.2156266663171289e-93
220
-2.1895288505075267e-47
230
1
0
CIRCLE
5
126
100
AcDbEntity
8
0
100
AcDbCircle
10
-132.38715184261204
20
-86.011606505947711
30
0
40
1.7500000000000071
210
-7.2156266663171289e-93
220
-2.1895288505075267e-47
230
1
0
CIRCLE
5
127
100
AcDbEntity
8
0
100
AcDbCircle
10
-132.38715184261204
20
-61.011606505947711
30
0
40
1.7500000000000071
210
-7.2156266663171289e-93
220
-2.1895288505075267e-47
230
1
0
CIRCLE
5
128
100
AcDbEntity
8
0
100
AcDbCircle
10
-132.38715184261204
20
-36.011606505947711
30
0
40
1.7500000000000071
210
-7.2156266663171289e-93
220
-2.1895288505075267e-47
230
1
0
LWPOLYLINE
5
129
100
AcDbEntity
8
0
100
AcDbPolyline
90
4
70
1
43
0.0
10
-217.38715184261235
20
-353.51160650594898
10
-217.38715184261372
20
41.48839349405101
10
217.61284815738628
20
41.488393494052467
10
217.61284815738759
20
-353.5116065059475
0
CIRCLE
5
130
100
AcDbEntity
8
0
100
AcDbCircle
10
111.11284815738627
20
31.488393494052694
30
0
40
1.7500000000000071
210
6.0926798803667293e-78
220
-2.1895288505075267e-47
230
1
0
CIRCLE
5
131
100
AcDbEntity
8
0
100
AcDbCircle
10
136.11284815738625
20
31.488393494052154
30
0
40
1.7500000000000071
210
6.0926798803667293e-78
220
-2.1895288505075267e-47
230
1
0
CIRCLE
5
132
100
AcDbEntity
8
0
100
AcDbCircle
10
-207.38715184261352
20
32.988393494050612
30
0
40
1.6250000000000142
210
4.1120895545697491e-93
220
-3.9983743940657446e-155
230
1
0
CIRCLE
5
133
100
AcDbEntity
8
0
100
AcDbCircle
10
36.11284815738626
20
31.4883934940543
30
0
40
1.749999999999998
210
2.4651903288156624e-32
220
6.4278794854732429e-79
230
1
0
CIRCLE
5
134
100
AcDbEntity
8
0
100
AcDbCircle
10
61.112848157386253
20
31.488393494053764
30
0
40
1.749999999999998
210
2.4651903288156624e-32
220
6.4278794854732429e-79
230
1
0
CIRCLE
5
135
100
AcDbEntity
8
0
100
AcDbCircle
10
86.112848157386267
20
31.488393494053231
30
0
40
1.7500000000000071
210
6.0926798803667293e-78
220
-2.1895288505075267e-47
230
1
0
CIRCLE
5
136
100
AcDbEntity
8
0
100
AcDbCircle
10
11.112848157386262
20
31.48839349405484
30
0
40
1.7500000000000004
210
6.0926798803667274e-78
220
2.1895288505075267e-47
230
1
0
CIRCLE
5
137
100
AcDbEntity
8
0
100
AcDbCircle
10
-13.887151842613738
20
31.488393494055373
30
0
40
1.7500000000000004
210
6.0926798803667274e-78
220
2.1895288505075267e-47
230
1
0
CIRCLE
5
138
100
AcDbEntity
8
0
100
AcDbCircle
10
-38.88715184261374
20
31.488393494055909
30
0
40
1.749999999999998
210
2.4651903288156624e-32
220
6.4278794854732429e-79
230
1
0
CIRCLE
5
139
100
AcDbEntity
8
0
100
AcDbCircle
10
-63.887151842613747
20
31.488393494056446
30
0
40
1.749999999999998
210
2.4651903288156624e-32
220
6.4278794854732429e-79
230
1
0
CIRCLE
5
140
100
AcDbEntity
8
0
100
AcDbCircle
10
-88.887151842613733
20
31.488393494056982
30
0
40
1.7500000000000071
210
6.0926798803667293e-78
220
-2.1895288505075267e-47
230
1
0
CIRCLE
5
141
100
AcDbEntity
8
0
100
AcDbCircle
10
-113.88715184261373
20
31.488393494057515
30
0
40
1.7500000000000071
210
6.0926798803667293e-78
220
-2.1895288505075267e-47
230
1
0
CIRCLE
5
142
100
AcDbEntity
8
0
100
AcDbCircle
10
-138.88715184261375
20
31.488393494058052
30
0
40
1.7500000000000071
210
6.0926798803667293e-78
220
-2.1895288505075267e-47
230
1
0
CIRCLE
5
143
100
AcDbEntity
8
0
100
AcDbCircle
10
181.61284815738617
20
31.488393494051927
30
0
40
1.6250000000000142
210
6.0926798803667293e-78
220
1.5886405019842726e-124
230
1
0
CIRCLE
5
144
100
AcDbEntity
8
0
100
AcDbCircle
10
-184.3871518426136
20
31.488393494050655
30
0
40
1.6250000000000142
210
6.0926798803667293e-78
220
1.5886405019842726e-124
230
1
0
LWPOLYLINE
5
145
100
AcDbEntity
8
0
100
AcDbPolyline
90
8
70
1
43
0.0
10
197.61284815738651
20
34.688393494051894
10
197.61284815738622
20
34.588393494052077
10
-197.38715184261363
20
34.58839349405072
10
-197.38715184261352
20
34.688393494051894
10
-217.3871518426123
20
34.688393494051894
10
-217.3871518426123
20
28.288393494051892
10
217.61284815738628
20
28.288393494051892
10
217.61284815738622
20
34.688393494051894
0
ENDSEC
0
SECTION
2
OBJECTS
0
DICTIONARY
5
C
100
AcDbDictionary
3
ACAD_GROUP
350
D
3
ACAD_MLINESTYLE
350
17
0
DICTIONARY
5
D
100
AcDbDictionary
0
DICTIONARY
5
1A
330
C
100
AcDbDictionary
0
DICTIONARY
5
17
100
AcDbDictionary
0
ENDSEC
0
EOF
