0
SECTION
2
HEADER
9
$INSUNITS
70
4
9
$ACADVER
1
AC1014
9
$HANDSEED
5
FFFF
0
ENDSEC
0
SECTION
2
TABLES
0
TABLE
2
VPORT
5
8
100
AcDbSymbolTable
0
ENDTAB
0
TABLE
2
LTYPE
5
5
100
AcDbSymbolTable
0
LTYPE
5
14
100
AcDbSymbolTableRecord
100
AcDbLinetypeTableRecord
2
BYBLOCK
70
0
0
LTYPE
5
15
100
AcDbSymbolTableRecord
100
AcDbLinetypeTableRecord
2
BYLAYER
70
0
0
ENDTAB
0
TABLE
2
LAYER
5
2
100
AcDbSymbolTable
70
2
0
LAYER
5
50
100
AcDbSymbolTableRecord
100
AcDbLayerTableRecord
2
0
70
0
6
CONTINUOUS
0
ENDTAB
0
TABLE
2
STYLE
5
3
100
AcDbSymbolTable
70
1
0
STYLE
5
11
100
AcDbSymbolTableRecord
100
AcDbTextStyleTableRecord
2
STANDARD
70
0
0
ENDTAB
0
TABLE
2
VIEW
5
6
100
AcDbSymbolTable
70
0
0
ENDTAB
0
TABLE
2
UCS
5
7
100
AcDbSymbolTable
70
0
0
ENDTAB
0
TABLE
2
APPID
5
9
100
AcDbSymbolTable
70
2
0
APPID
5
12
100
AcDbSymbolTableRecord
100
AcDbRegAppTableRecord
2
ACAD
70
0
0
ENDTAB
0
TABLE
2
DIMSTYLE
5
A
100
AcDbSymbolTable
70
1
0
ENDTAB
0
TABLE
2
BLOCK_RECORD
5
1
100
AcDbSymbolTable
70
1
0
BLOCK_RECORD
5
1F
100
AcDbSymbolTableRecord
100
AcDbBlockTableRecord
2
*MODEL_SPACE
0
BLOCK_RECORD
5
1B
100
AcDbSymbolTableRecord
100
AcDbBlockTableRecord
2
*PAPER_SPACE
0
ENDTAB
0
ENDSEC
0
SECTION
2
BLOCKS
0
BLOCK
5
20
100
AcDbEntity
100
AcDbBlockBegin
2
*MODEL_SPACE
0
ENDBLK
5
21
100
AcDbEntity
100
AcDbBlockEnd
0
BLOCK
5
1C
100
AcDbEntity
100
AcDbBlockBegin
2
*PAPER_SPACE
0
ENDBLK
5
1D
100
AcDbEntity
100
AcDbBlockEnd
0
ENDSEC
0
SECTION
2
ENTITIES
0
SPLINE
5
100
100
AcDbEntity
8
0
100
AcDbSpline
70
0
71
3
72
8
73
4
74
0
42
0.000000001
43
0.0000000001
44
0.0000000001
40
0
40
0
40
0
40
0
40
1
40
1
40
1
40
1
10
357.02425509366151
20
577.00312872585016
30
0
10
334.39694152776508
20
501.69763199092534
30
0
10
294.55536152776551
20
432.68999117710598
30
0
10
240.65254009366268
20
375.44140578192719
30
0
0
SPLINE
5
101
100
AcDbEntity
8
0
100
AcDbSpline
70
0
71
3
72
8
73
4
74
0
42
0.000000001
43
0.0000000001
44
0.0000000001
40
0
40
0
40
0
40
0
40
1
40
1
40
1
40
1
10
368.86238535298247
20
585.80523180161254
30
0
10
363.40616649324176
20
585.80532351932652
30
0
10
358.59423633967111
20
582.22865601086926
30
0
10
357.02425509366151
20
577.00312872585016
30
0
0
LINE
5
102
100
AcDbEntity
8
0
100
AcDbLine
10
445.06346918428193
20
585.80658058923996
30
0
11
368.8623853529823
21
585.80523180161254
31
0
0
SPLINE
5
103
100
AcDbEntity
8
0
100
AcDbSpline
70
0
71
3
72
8
73
4
74
0
42
0.000000001
43
0.0000000001
44
0.0000000001
40
0
40
0
40
0
40
0
40
1
40
1
40
1
40
1
10
456.90161200233177
20
577.00040541735893
30
0
10
455.33134582300363
20
582.22584461335555
30
0
10
450.51987062732508
20
585.8065451150826
30
0
10
445.06346918428193
20
585.80658058923996
30
0
0
SPLINE
5
104
100
AcDbEntity
8
0
100
AcDbSpline
70
0
71
3
72
8
73
4
74
0
42
0.000000001
43
0.0000000001
44
0.0000000001
40
0
40
0
40
0
40
0
40
1
40
1
40
1
40
1
10
573.2711137099999
20
375.44137482651814
30
0
10
519.36827534480358
20
432.68996010582316
30
0
10
479.52882268986866
20
501.69496396173986
30
0
10
456.90161200233177
20
577.00040541735893
30
0
0
SPLINE
5
105
100
AcDbEntity
8
0
100
AcDbSpline
70
0
71
3
72
8
73
4
74
0
42
0.000000001
43
0.0000000001
44
0.0000000001
40
0
40
0
40
0
40
0
40
1
40
1
40
1
40
1
10
574.97725751228529
20
360.787922577095
30
0
10
577.70536251228521
20
365.51313904547749
30
0
10
577.01115232934626
20
371.46895173749556
30
0
10
573.2711137099999
20
375.44137482651814
30
0
0
LINE
5
106
100
AcDbEntity
8
0
100
AcDbLine
10
536.8769075122857
20
294.79618059093877
30
0
11
574.97725751228529
21
360.787922577095
31
0
0
SPLINE
5
107
100
AcDbEntity
8
0
100
AcDbSpline
70
0
71
3
72
8
73
4
74
0
42
0.000000001
43
0.0000000001
44
0.0000000001
40
0
40
0
40
0
40
0
40
1
40
1
40
1
40
1
10
523.33356871000024
20
288.94700968126187
30
0
10
528.64374232934676
20
287.69414018698171
30
0
10
534.14880251228567
20
290.07096412255623
30
0
10
536.8769075122857
20
294.79618059093877
30
0
0
SPLINE
5
108
100
AcDbEntity
8
0
100
AcDbSpline
70
0
71
3
72
8
73
4
74
0
42
0.000000001
43
0.0000000001
44
0.0000000001
40
0
40
0
40
0
40
0
40
1
40
1
40
1
40
1
10
290.59228700233314
20
288.9442047448772
30
0
10
367.12231768986999
20
307.00118620049687
30
0
10
446.80335534480423
20
307.00383181865345
30
0
10
523.33356871000024
20
288.94700968126187
30
0
0
SPLINE
5
109
100
AcDbEntity
8
0
100
AcDbSpline
70
0
71
3
72
8
73
4
74
0
42
0.000000001
43
0.0000000001
44
0.0000000001
40
0
40
0
40
0
40
0
40
1
40
1
40
1
40
1
10
281.97616960878372
20
290.04925165527118
30
0
10
284.55710604483295
20
288.68452469361409
30
0
10
287.60512823757699
20
288.23929399404437
30
0
10
290.59228700233314
20
288.9442047448772
30
0
0
SPLINE
5
110
100
AcDbEntity
8
0
100
AcDbSpline
70
0
71
3
72
8
73
4
74
0
42
0.000000001
43
0.0000000001
44
0.0000000001
40
0
40
0
40
0
40
0
40
1
40
1
40
1
40
1
10
277.04813918428351
20
294.79549257879177
30
0
10
278.24167752076488
20
292.72822161835893
30
0
10
279.96863404454854
20
291.11033806001421
30
0
10
281.97616960878372
20
290.04925165527118
30
0
0
LINE
5
111
100
AcDbEntity
8
0
100
AcDbLine
10
238.94876035298378
20
360.78823270616465
30
0
11
277.04813918428351
21
294.79549257879177
31
0
0
SPLINE
5
112
100
AcDbEntity
8
0
100
AcDbSpline
70
0
71
3
72
8
73
4
74
0
42
0.000000001
43
0.0000000001
44
0.0000000001
40
0
40
0
40
0
40
0
40
1
40
1
40
1
40
1
10
240.65254009366268
20
375.44140578192719
30
0
10
236.91209633967233
20
371.46900715716208
30
0
10
236.22064649324329
20
365.51354089226146
30
0
10
238.94876035298378
20
360.78823270616465
30
0
0
SPLINE
5
113
100
AcDbEntity
8
0
100
AcDbSpline
70
0
71
3
72
8
73
4
74
0
42
0.000000001
43
0.0000000001
44
0.0000000001
40
0
40
0
40
0
40
0
40
1
40
1
40
1
40
1
10
279.88288889966606
20
347.56322311257509
30
0
10
276.46972187909762
20
353.47492441823181
30
0
10
278.49674361574102
20
361.03430905414456
30
0
10
284.40837992139745
20
364.44736349141073
30
0
0
LINE
5
114
100
AcDbEntity
8
0
100
AcDbLine
10
286.06391075098912
20
336.8587670017601
30
0
11
279.88288889966606
21
347.56322311257509
31
0
0
SPLINE
5
115
100
AcDbEntity
8
0
100
AcDbSpline
70
0
71
3
72
8
73
4
74
0
42
0.000000001
43
0.0000000001
44
0.0000000001
40
0
40
0
40
0
40
0
40
1
40
1
40
1
40
1
10
290.30291042121161
20
332.50422980385372
30
0
10
288.60317078493347
20
333.54513439418076
30
0
10
287.13047876143236
20
335.01135698557567
30
0
10
286.06391075098912
20
336.8587670017601
30
0
0
SPLINE
5
116
100
AcDbEntity
8
0
100
AcDbSpline
70
0
71
3
72
8
73
4
74
0
42
0.000000001
43
0.0000000001
44
0.0000000001
40
0
40
0
40
0
40
0
40
1
40
1
40
1
40
1
10
302.9493411298244
20
332.33551032557051
30
0
10
298.88516242365517
20
329.98884631544524
30
0
10
294.04194529158764
20
330.21398817061674
30
0
10
290.30291042121161
20
332.50422980385372
30
0
0
LINE
5
117
100
AcDbEntity
8
0
100
AcDbLine
10
284.40837992139745
20
364.44736349141073
30
0
11
348.27637350664122
21
401.32149335853671
31
0
0
LINE
5
118
100
AcDbEntity
8
0
100
AcDbLine
10
366.81726971506833
20
369.20952760939377
30
0
11
302.9493411298244
21
332.33551032557051
31
0
0
SPLINE
5
119
100
AcDbEntity
8
0
100
AcDbSpline
70
0
71
3
72
8
73
4
74
0
42
0.000000001
43
0.0000000001
44
0.0000000001
40
0
40
0
40
0
40
0
40
1
40
1
40
1
40
1
10
379.46710928136952
20
369.03587244582303
30
0
10
375.60159129952569
20
371.41025890369855
30
0
10
370.74610272177483
20
371.47760599146358
30
0
10
366.81726971506833
20
369.20952760939377
30
0
0
SPLINE
5
120
100
AcDbEntity
8
0
100
AcDbSpline
70
0
71
3
72
8
73
4
74
0
42
0.000000001
43
0.0000000001
44
0.0000000001
40
0
40
0
40
0
40
0
40
1
40
1
40
1
40
1
10
434.45972782263084
20
369.03698180054289
30
0
10
417.59312952046184
20
358.67565659033119
30
0
10
396.33378016383489
20
358.67440336879559
30
0
10
379.46710928136952
20
369.03587244582303
30
0
0
SPLINE
5
121
100
AcDbEntity
8
0
100
AcDbSpline
70
0
71
3
72
8
73
4
74
0
42
0.000000001
43
0.0000000001
44
0.0000000001
40
0
40
0
40
0
40
0
40
1
40
1
40
1
40
1
10
447.1077675842858
20
369.21012928388103
30
0
10
443.17896539773159
20
371.47842428388088
30
0
10
438.32503161785371
20
371.41164436055755
30
0
10
434.45972782263084
20
369.03698180054289
30
0
0
LINE
5
122
100
AcDbEntity
8
0
100
AcDbLine
10
510.97582475477384
20
332.33588928388116
30
0
11
447.1077675842858
21
369.21012928388103
31
0
0
LINE
5
123
100
AcDbEntity
8
0
100
AcDbLine
10
465.64831758428568
20
401.3233038841521
30
0
11
529.51637475477366
21
364.44906388415205
31
0
0
SPLINE
5
124
100
AcDbEntity
8
0
100
AcDbSpline
70
0
71
3
72
8
73
4
74
0
42
0.000000001
43
0.0000000001
44
0.0000000001
40
0
40
0
40
0
40
0
40
1
40
1
40
1
40
1
10
459.47424282263046
20
412.36339270723613
30
0
10
459.35038161785343
20
407.82861880747555
30
0
10
461.71951539773158
20
403.59159888415195
30
0
10
465.64831758428568
20
401.3233038841521
30
0
0
SPLINE
5
125
100
AcDbEntity
8
0
100
AcDbSpline
70
0
71
3
72
8
73
4
74
0
42
0.000000001
43
0.0000000001
44
0.0000000001
40
0
40
0
40
0
40
0
40
1
40
1
40
1
40
1
10
431.97760928136904
20
459.98672637666749
30
0
10
449.38417016383426
20
450.56037421013849
30
0
10
460.01411452046142
20
432.1509579174475
30
0
10
459.47424282263046
20
412.36339270723613
30
0
0
SPLINE
5
126
100
AcDbEntity
8
0
100
AcDbSpline
70
0
71
3
72
8
73
4
74
0
42
0.000000001
43
0.0000000001
44
0.0000000001
40
0
40
0
40
0
40
0
40
1
40
1
40
1
40
1
10
425.50358971506785
20
470.85721555863836
30
0
10
425.50372272177412
20
466.32058593301213
30
0
10
427.98843629952512
20
462.14693609193296
30
0
10
431.97760928136904
20
459.98672637666749
30
0
0
SPLINE
5
127
100
AcDbEntity
8
0
100
AcDbSpline
70
0
71
3
72
8
73
4
74
0
42
0.000000001
43
0.0000000001
44
0.0000000001
40
0
40
0
40
0
40
0
40
1
40
1
40
1
40
1
10
381.95088997638095
20
459.98680680444011
30
0
10
385.93995157969925
20
462.14690417590975
30
0
10
388.42356689119924
20
466.31863208188395
30
0
10
388.4220735066408
20
470.85588546395365
30
0
0
SPLINE
5
128
100
AcDbEntity
8
0
100
AcDbSpline
70
0
71
3
72
8
73
4
74
0
42
0.000000001
43
0.0000000001
44
0.0000000001
40
0
40
0
40
0
40
0
40
1
40
1
40
1
40
1
10
354.45496997638134
20
412.36247636359167
30
0
10
353.91504997938728
20
432.14996749677562
30
0
10
364.54445997938717
20
450.56064567125622
30
0
10
381.95088997638095
20
459.98680680444011
30
0
0
SPLINE
5
129
100
AcDbEntity
8
0
100
AcDbSpline
70
0
71
3
72
8
73
4
74
0
42
0.000000001
43
0.0000000001
44
0.0000000001
40
0
40
0
40
0
40
0
40
1
40
1
40
1
40
1
10
348.27637350664122
20
401.32149335853671
30
0
10
352.20485144293264
20
403.58977674060617
30
0
10
354.57731995829147
20
407.82849274856545
30
0
10
354.45496997638134
20
412.36247636359167
30
0
0
LINE
5
130
100
AcDbEntity
8
0
100
AcDbLine
10
388.4220735066408
20
470.85588546395365
30
0
11
388.42329992139639
21
544.60648967662087
31
0
0
SPLINE
5
131
100
AcDbEntity
8
0
100
AcDbSpline
70
0
71
3
72
8
73
4
74
0
42
0.000000001
43
0.0000000001
44
0.0000000001
40
0
40
0
40
0
40
0
40
1
40
1
40
1
40
1
10
388.42329992139639
20
544.60648967662087
30
0
10
388.42326861573997
20
551.43263545363288
30
0
10
393.95502187909631
20
556.96543316070142
30
0
10
400.78135389966491
20
556.96550704966057
30
0
0
SPLINE
5
132
100
AcDbEntity
8
0
100
AcDbSpline
70
0
71
3
72
8
73
4
74
0
42
0.000000001
43
0.0000000001
44
0.0000000001
40
0
40
0
40
0
40
0
40
1
40
1
40
1
40
1
10
413.14213075098763
20
556.96470057717306
30
0
10
419.96839777155628
20
556.96466188283
30
0
10
425.50360740746908
20
551.43166620277566
30
0
10
425.50345612982312
20
544.60546418220713
30
0
0
LINE
5
133
100
AcDbEntity
8
0
100
AcDbLine
10
425.50345612982312
20
544.60546418220713
30
0
11
425.50358971506785
21
470.85721555863836
31
0
0
LINE
5
134
100
AcDbEntity
8
0
100
AcDbLine
10
400.78135389966491
20
556.96550704966057
30
0
11
413.14213075098763
21
556.96470057717306
31
0
0
SPLINE
5
135
100
AcDbEntity
8
0
100
AcDbSpline
70
0
71
3
72
8
73
4
74
0
42
0.000000001
43
0.0000000001
44
0.0000000001
40
0
40
0
40
0
40
0
40
1
40
1
40
1
40
1
10
529.51637475477366
20
364.44906388415205
30
0
10
535.42803736608687
20
361.03596388415218
30
0
10
537.45442632194568
20
353.47373251159604
30
0
10
534.04132632194569
20
347.56206990028284
30
0
0
LINE
5
136
100
AcDbEntity
8
0
100
AcDbLine
10
534.04132632194569
20
347.56206990028284
30
0
11
527.86157132194592
21
336.85842026195508
31
0
0
SPLINE
5
137
100
AcDbEntity
8
0
100
AcDbSpline
70
0
71
3
72
8
73
4
74
0
42
0.000000001
43
0.0000000001
44
0.0000000001
40
0
40
0
40
0
40
0
40
1
40
1
40
1
40
1
10
527.86157132194592
20
336.85842026195508
30
0
10
524.44847132194582
20
330.94675765064164
30
0
10
516.88748736608704
20
328.92278928388123
30
0
10
510.97582475477384
20
332.33588928388116
30
0
0
LINE
5
138
100
AcDbEntity
8
0
100
AcDbLine
10
287.39279642856803
20
-186.387151842615
30
0
11
287.39279642856809
21
123.61284815738401
31
0
0
LWPOLYLINE
5
139
100
AcDbEntity
8
0
100
AcDbPolyline
90
25
70
1
43
0.0
10
434.39279642857429
20
-187.60027069337286
10
140.39279642857781
20
-187.60027069336519
42
-0.4142135623730937
10
132.39279642857423
20
-179.60027069336155
10
132.39279642856806
20
-149.35305944452455
42
0.30651023495865926
10
127.36848949350829
20
-141.92707460860774
42
-0.50271955959856174
10
124.19398075630376
20
-129.89862078432725
10
130.80937831446758
20
-121.01416697982337
42
0.16138934909998248
10
132.39279642856806
20
-116.23635608972464
10
132.39279642857608
20
114.39972930663475
42
-0.4142135623729038
10
140.39279642857085
20
122.39972930663484
10
249.6927964285679
20
122.39972930663484
42
0.28251047624244185
10
276.44723572849784
20
138.82770006461055
10
279.94992511825325
20
147.38760095567977
42
-0.77223478284316027
10
294.84937400685601
20
147.33515766735917
10
298.34388951499301
20
138.81679961790758
42
0.20676867574358829
10
316.64794748386208
20
123.61284815738384
42
0.071459191811936065
10
325.09279642856779
20
122.39972930663478
10
434.39279642857525
20
122.39972930662992
42
-0.41421356237300011
10
442.39279642857105
20
114.39972930664128
10
442.39279642856798
20
-116.31025529184404
42
0.15969869089465349
10
443.94485550077843
20
-121.04566000440423
10
449.86686157090435
20
-129.10933093265703
42
-0.54684140100251799
10
447.41710336362792
20
-141.92707460860461
42
0.30651023495866714
10
442.39279642857974
20
-149.35305944452142
10
442.3927964285798
20
-179.60027069335888
42
-0.41421356237334478
0
ARC
5
140
100
AcDbEntity
8
0
100
AcDbCircle
10
444.53440070696723
20
-134.73315179881016
30
0
40
2.6249999999968647
210
0
220
0
230
1
100
AcDbArc
50
-121.42173077361797
51
58.578269226383433
0
LINE
5
141
100
AcDbEntity
8
0
100
AcDbLine
10
443.16590073252036
20
-136.97320376694003
30
0
11
439.32581164429314
21
-134.6272038107428
31
0
0
LINE
5
142
100
AcDbEntity
8
0
100
AcDbLine
10
442.06281159319303
20
-130.14709987447952
30
0
11
445.90290068141701
21
-132.49309983068213
31
0
0
ARC
5
143
100
AcDbEntity
8
0
100
AcDbCircle
10
440.69431161874155
20
-132.38715184261022
30
0
40
2.6250000000000373
210
0
220
-0
230
1
100
AcDbArc
50
58.578269226305252
51
238.57826801888689
0
CIRCLE
5
144
100
AcDbEntity
8
0
100
AcDbCircle
10
379.89279642856587
20
-161.38715184261508
30
0
40
1.625
210
0
220
0
230
1
0
CIRCLE
5
145
100
AcDbEntity
8
0
100
AcDbCircle
10
169.89279642856584
20
-161.38715184261378
30
0
40
1.625
210
0
220
0
230
1
0
ARC
5
146
100
AcDbEntity
8
0
100
AcDbCircle
10
134.09128123839483
20
-132.38715184261326
30
0
40
2.6249999999999911
210
-0
220
0
230
1
100
AcDbArc
50
-58.578269226323563
51
121.42172956625896
0
LINE
5
147
100
AcDbEntity
8
0
100
AcDbLine
10
135.45978121284563
20
-134.62720381074439
30
0
11
131.61969212462083
21
-136.9732037669458
31
0
0
ARC
5
148
100
AcDbEntity
8
0
100
AcDbCircle
10
130.25119215016917
20
-134.73315179881328
30
0
40
2.6250000000016027
210
0
220
0
230
1
100
AcDbArc
50
121.4217307736362
51
301.42173077363617
0
LINE
5
149
100
AcDbEntity
8
0
100
AcDbLine
10
128.88269217571914
20
-132.49309983067985
30
0
11
132.72278126394559
21
-130.14709987448117
31
0
0
CIRCLE
5
150
100
AcDbEntity
8
0
100
AcDbCircle
10
134.0912812383948
20
-132.38715184261329
30
0
40
2.6250000000000018
210
0
220
0
230
1
0
CIRCLE
5
151
100
AcDbEntity
8
0
100
AcDbCircle
10
440.69431161874149
20
-132.38715184261022
30
0
40
2.6250000000000018
210
0
220
0
230
1
0
CIRCLE
5
152
100
AcDbEntity
8
0
100
AcDbCircle
10
295.1557620626495
20
113.7636057524725
30
0
40
2.0000000298023224
210
-0
220
0
230
1
0
CIRCLE
5
153
100
AcDbEntity
8
0
100
AcDbCircle
10
287.39279642856769
20
104.61284815738438
30
0
40
2.0000000298023224
210
-0
220
0
230
1
0
CIRCLE
5
154
100
AcDbEntity
8
0
100
AcDbCircle
10
274.89279642856735
20
98.612848157381876
30
0
40
1.625
210
0
220
0
230
1
0
CIRCLE
5
155
100
AcDbEntity
8
0
100
AcDbCircle
10
279.62983079448583
20
113.7636057524725
30
0
40
2.0000000298023224
210
-0
220
0
230
1
0
CIRCLE
5
156
100
AcDbEntity
8
0
100
AcDbCircle
10
287.39279642856775
20
122.91436334756071
30
0
40
2.0000000298023224
210
-0
220
0
230
1
0
CIRCLE
5
157
100
AcDbEntity
8
0
100
AcDbCircle
10
287.39279642856781
20
140.91436334756068
30
0
40
2.6250000000000018
210
-0
220
0
230
1
0
ARC
5
158
100
AcDbEntity
8
0
100
AcDbCircle
10
287.39279642856781
20
145.41436334756068
30
0
40
2.6249999960415593
210
-0
220
0
230
1
100
AcDbArc
50
0
51
180
0
LINE
5
159
100
AcDbEntity
8
0
100
AcDbLine
10
284.76779643252627
20
145.41436334986975
30
0
11
284.76779642856786
21
140.91436334986975
31
0
0
ARC
5
160
100
AcDbEntity
8
0
100
AcDbCircle
10
287.39279642856781
20
140.91436334756068
30
0
40
2.6249999999999929
210
0
220
0
230
1
100
AcDbArc
50
-180
51
0.0025683209973647041
0
LINE
5
161
100
AcDbEntity
8
0
100
AcDbLine
10
290.01779642065549
20
140.91415953516599
30
0
11
290.01779642460934
21
145.41436334525162
31
0
0
CIRCLE
5
162
100
AcDbEntity
8
0
100
AcDbCircle
10
379.89279642856582
20
98.612848157381379
30
0
40
1.625
210
0
220
0
230
1
0
CIRCLE
5
163
100
AcDbEntity
8
0
100
AcDbCircle
10
169.89279642856584
20
98.612848157379489
30
0
40
1.625
210
0
220
0
230
1
0
LINE
5
164
100
AcDbEntity
8
0
100
AcDbLine
10
444.53440070696723
20
-134.73315179881016
30
0
11
440.69431161874149
21
-132.38715184261022
31
0
0
LINE
5
165
100
AcDbEntity
8
0
100
AcDbLine
10
130.25119215016917
20
-134.73315179881328
30
0
11
134.0912812383948
21
-132.38715184261329
31
0
0
LINE
5
166
100
AcDbEntity
8
0
100
AcDbLine
10
123.88328067369468
20
-130.31588981566298
30
0
11
124.19398075630376
21
-129.89862078432725
31
0
0
LINE
5
167
100
AcDbEntity
8
0
100
AcDbLine
10
442.39279642857105
20
114.39972930664128
30
0
11
442.39337345292302
21
-116.40633888421512
31
0
0
LINE
5
168
100
AcDbEntity
8
0
100
AcDbLine
10
287.39279642856781
20
140.91436334756068
30
0
11
287.39279642856781
21
145.41436334756068
31
0
0
ARC
5
169
100
AcDbEntity
8
0
100
AcDbCircle
10
325.09279642856779
20
152.39972930663478
30
0
40
29.999999999999996
210
0
220
0
230
1
100
AcDbArc
50
197.68898035069094
51
206.92117884557109
0
ARC
5
170
100
AcDbEntity
8
0
100
AcDbCircle
10
249.69279642856787
20
152.39972930663487
30
0
40
30.000000000000018
210
-0
220
0
230
1
100
AcDbArc
50
333.10216734215152
51
342.38932992166542
0
LINE
5
171
100
AcDbEntity
8
0
100
AcDbLine
10
132.39279642858011
20
-0.91831339154493818
30
0
11
442.39279642856957
21
-0.95526299260878744
31
0
0
LINE
5
172
100
AcDbEntity
8
0
100
AcDbLine
10
434.39279642857343
20
-179.60027069336655
30
0
11
140.3927964285761
21
114.39972930663481
31
0
0
LINE
5
173
100
AcDbEntity
8
0
100
AcDbLine
10
434.39279642857753
20
114.39972930663642
30
0
11
140.39279642857787
21
-179.60027069336155
31
0
0
LINE
5
174
100
AcDbEntity
8
0
100
AcDbLine
10
440.69431161874149
20
-132.38715184261022
30
0
11
287.39279642856815
21
-32.600270693370334
31
0
0
LINE
5
175
100
AcDbEntity
8
0
100
AcDbLine
10
134.0912812383948
20
-132.38715184261329
30
0
11
287.39279642856815
21
-32.600270693370334
31
0
0
LINE
5
176
100
AcDbEntity
8
0
100
AcDbLine
10
287.39279642856781
20
140.91436334756068
30
0
11
287.39279642856815
21
-32.600270693370334
31
0
0
LWPOLYLINE
5
177
100
AcDbEntity
8
0
100
AcDbPolyline
90
4
70
1
43
0.0
10
413.52551100806011
20
-120.96913893939843
10
408.49919870833742
20
-117.69252717331187
42
0.99999999999999989
10
406.58784184478691
20
-120.6245426814834
10
411.6141541445096
20
-123.90115444756998
42
0.9999999925494194
0
LINE
5
178
100
AcDbEntity
8
0
100
AcDbLine
10
412.56983257628468
20
-122.43514669348436
30
0
11
407.54352027656216
21
-119.15853492739764
31
0
0
LINE
5
179
100
AcDbEntity
8
0
100
AcDbLine
10
410.05667642642317
20
-120.79684081044186
30
0
11
413.87538453045801
21
-114.93020050987982
31
0
0
LWPOLYLINE
5
180
100
AcDbEntity
8
0
100
AcDbPolyline
90
4
70
1
43
0.0
10
419.25580896605362
20
-112.1657436500147
10
414.2250259529626
20
-108.89600019292281
42
-0.99999999999999989
10
416.13237630293293
20
-105.96137676861971
10
421.16315931602406
20
-109.23112022571125
42
-0.99999999999999989
0
LINE
5
181
100
AcDbEntity
8
0
100
AcDbLine
10
420.20948414103884
20
-110.69843193786298
30
0
11
415.17870112794776
21
-107.42868848077126
31
0
0
LINE
5
182
100
AcDbEntity
8
0
100
AcDbLine
10
417.69409263449342
20
-109.06356020931716
30
0
11
413.87538453108357
21
-114.93020050891826
31
0
0
LINE
5
183
100
AcDbEntity
8
0
100
AcDbLine
10
364.04355402365479
20
-82.493711267990278
30
0
11
360.22484591962149
21
-88.3603515685502
31
0
0
LWPOLYLINE
5
184
100
AcDbEntity
8
0
100
AcDbPolyline
90
4
70
1
43
0.0
10
319.58790933898177
20
-47.294895362668463
42
0.99999999999999989
10
321.4992662025324
20
-44.36287985449701
10
316.47295390280982
20
-41.086268088410392
42
0.9999999559217716
10
314.56159691162776
20
-44.01828351337997
0
LWPOLYLINE
5
185
100
AcDbEntity
8
0
100
AcDbPolyline
90
4
70
1
43
0.0
10
308.83129914513472
20
-52.82167892747708
10
313.86208209435665
20
-56.091422343057559
42
-0.99999999999999989
10
311.95473174438632
20
-59.026045767360635
10
306.92394879302907
20
-55.756302350392772
42
-1.0000000428003277
0
LINE
5
186
100
AcDbEntity
8
0
100
AcDbLine
10
307.87762390628046
20
-54.288990598117323
30
0
11
312.90840691937149
21
-57.558734055209094
31
0
0
LINE
5
187
100
AcDbEntity
8
0
100
AcDbLine
10
310.393015412826
20
-55.923862326663205
30
0
11
314.21172351918426
21
-50.057222022532279
31
0
0
LINE
5
188
100
AcDbEntity
8
0
100
AcDbLine
10
315.51727547102445
20
-42.552275842496769
30
0
11
320.54358777075714
21
-45.828887608582804
31
0
0
LINE
5
189
100
AcDbEntity
8
0
100
AcDbLine
10
318.03043162089585
20
-44.190581725539317
30
0
11
314.21172351686101
21
-50.057222026101371
31
0
0
LINE
5
190
100
AcDbEntity
8
0
100
AcDbLine
10
266.90796895085566
20
-54.288990598117323
30
0
11
261.87718593776464
21
-57.558734055209086
31
0
0
LWPOLYLINE
5
191
100
AcDbEntity
8
0
100
AcDbPolyline
90
4
70
1
43
0.0
10
262.8308611127498
20
-59.026045767360635
10
267.86164406197167
20
-55.756302351780171
42
1.000000043443978
10
265.95429371200146
20
-52.821678927477052
10
260.92351076277953
20
-56.091422343057573
42
0.99999999999999989
0
LWPOLYLINE
5
192
100
AcDbEntity
8
0
100
AcDbPolyline
90
4
70
1
43
0.0
10
253.28632665460373
20
-44.36287985449701
10
258.31263895409342
20
-41.086268088576574
42
-0.99999995655602381
10
260.22399594550842
20
-44.018283513379998
10
255.19768351815426
20
-47.294895362668598
42
-0.99999999999999989
0
LINE
5
193
100
AcDbEntity
8
0
100
AcDbLine
10
259.26831738611168
20
-42.552275842496755
30
0
11
254.24200508637898
21
-45.828887608582804
31
0
0
LINE
5
194
100
AcDbEntity
8
0
100
AcDbLine
10
264.39257744431012
20
-55.923862326663212
30
0
11
260.57386934027511
21
-50.057222026101371
31
0
0
LINE
5
195
100
AcDbEntity
8
0
100
AcDbLine
10
256.75516123624027
20
-44.190581725539317
30
0
11
260.57386934027511
21
-50.057222026101371
31
0
0
LWPOLYLINE
5
196
100
AcDbEntity
8
0
100
AcDbPolyline
90
4
70
1
43
0.0
10
160.56056690417336
20
-108.89600019292281
42
0.99999999999999989
10
158.6532165542032
20
-105.96137676861969
10
153.62243354111223
20
-109.23112022571158
42
0.99999999999999989
10
155.52978389108247
20
-112.16574365001466
0
LINE
5
197
100
AcDbEntity
8
0
100
AcDbLine
10
162.21576028085138
20
-122.43514669348431
30
0
11
167.2420725805739
21
-119.1585349273976
31
0
0
LINE
5
198
100
AcDbEntity
8
0
100
AcDbLine
10
154.57610871609728
20
-110.69843193786295
30
0
11
159.60689172918836
21
-107.42868848077123
31
0
0
LINE
5
199
100
AcDbEntity
8
0
100
AcDbLine
10
157.09150022264268
20
-109.06356020931713
30
0
11
160.9102083266778
21
-114.93020050987897
31
0
0
LWPOLYLINE
5
200
100
AcDbEntity
8
0
100
AcDbPolyline
90
4
70
1
43
0.0
10
161.26008184907596
20
-120.96913893939842
10
166.28639414879865
20
-117.69252717331184
42
-0.99999999999999989
10
168.19775101234916
20
-120.62454268148336
10
163.17143871262681
20
-123.90115444757022
42
-0.99999999999999989
0
LINE
5
201
100
AcDbEntity
8
0
100
AcDbLine
10
164.72891643071264
20
-120.79684081044095
30
0
11
160.9102083266778
21
-114.93020050987897
31
0
0
LINE
5
202
100
AcDbEntity
8
0
100
AcDbLine
10
442.39279642856854
20
-73.887151842607082
30
0
11
350.82138909285163
21
-73.887151842605775
31
0
0
LWPOLYLINE
5
203
100
AcDbEntity
8
0
100
AcDbPolyline
90
2
70
1
43
0.0
10
433.6293404612785
20
-115.88715184260818
10
439.90751505433047
20
-115.88715184260847
0
LINE
5
204
100
AcDbEntity
8
0
100
AcDbLine
10
460.39279642856911
20
-115.88715184260946
30
0
11
439.90751505433047
21
-115.88715184260847
31
0
0
LINE
5
205
100
AcDbEntity
8
0
100
AcDbLine
10
424.84748621178608
20
-115.88715184260776
30
0
11
428.09748621178613
21
-115.88715184260791
31
0
0
LWPOLYLINE
5
206
100
AcDbEntity
8
0
100
AcDbPolyline
90
2
70
1
43
0.0
10
446.76779642856906
20
-115.8871518426088
10
450.01779642856911
20
-115.88715184260894
0
LINE
5
207
100
AcDbEntity
8
0
100
AcDbLine
10
468.68810664535204
20
-115.88715184260984
30
0
11
471.93810664535204
21
-115.88715184260998
31
0
0
LWPOLYLINE
5
208
100
AcDbEntity
8
0
100
AcDbPolyline
90
3
70
1
43
0.0
10
476.12350091092515
20
-115.88715184261019
10
477.39279642856911
20
-115.88715184261025
10
474.28066248276821
20
-115.88715184261011
0
LWPOLYLINE
5
209
100
AcDbEntity
8
0
100
AcDbPolyline
90
2
70
1
43
0.0
10
471.82023138538807
20
-115.88715184260998
10
474.28066248276821
20
-115.88715184261011
0
LWPOLYLINE
5
210
100
AcDbEntity
8
0
100
AcDbPolyline
90
17
70
1
43
0.0
10
471.82023138538807
20
-115.88715184260998
10
469.89977464990966
20
-115.8871518426099
10
464.88581820722823
20
-115.88715184260965
10
462.96536147174976
20
-115.88715184260957
10
460.50493037437059
20
-115.88715184260946
10
454.59128123841299
20
-115.88715184260917
10
451.8129093828241
20
-115.88715184260904
10
444.97268347431401
20
-115.88715184260872
10
421.14279642856906
20
-115.88715184260758
10
443.61906563813824
20
-115.88715184260863
10
444.73452525807232
20
-115.88715184260869
10
451.12781782627138
20
-115.88715184260899
10
454.38417445720791
20
-115.88715184260914
10
460.50493037437059
20
-115.88715184260946
10
462.96536147174976
20
-115.88715184260957
10
464.88581820722823
20
-115.88715184260965
10
469.89977464990966
20
-115.8871518426099
0
LWPOLYLINE
5
211
100
AcDbEntity
8
0
100
AcDbPolyline
90
4
70
1
43
0.0
10
422.39328465348223
20
-79.137151842607082
10
416.39328465348223
20
-79.137151842607082
42
0.99999999999999989
10
416.39328465348223
20
-82.637151842607096
10
422.39328465348223
20
-82.637151842607096
42
0.99999999999999989
0
LINE
5
212
100
AcDbEntity
8
0
100
AcDbLine
10
422.39328465348223
20
-80.887151842607082
30
0
11
416.39328465348223
21
-80.887151842607082
31
0
0
LINE
5
213
100
AcDbEntity
8
0
100
AcDbLine
10
422.39328465348223
20
-66.887151842607039
30
0
11
416.39328465348223
21
-66.887151842607039
31
0
0
LWPOLYLINE
5
214
100
AcDbEntity
8
0
100
AcDbPolyline
90
4
70
1
43
0.0
10
416.39328465348223
20
-65.137151842607039
10
422.39328465348223
20
-65.137151842607039
42
-0.99999999999999989
10
422.39328465348223
20
-68.637151842607054
10
416.39328465348223
20
-68.637151842607054
42
-0.99999999999999989
0
LWPOLYLINE
5
215
100
AcDbEntity
8
0
100
AcDbPolyline
90
4
70
1
43
0.0
10
152.3923082036539
20
-65.137151842607011
42
0.99999999999999989
10
152.3923082036539
20
-68.637151842607011
10
158.3923082036539
20
-68.637151842607011
42
0.99999999999999989
10
158.3923082036539
20
-65.137151842607011
0
LWPOLYLINE
5
216
100
AcDbEntity
8
0
100
AcDbPolyline
90
4
70
1
43
0.0
10
152.3923082036539
20
-79.137151842607039
10
158.3923082036539
20
-79.137151842607039
42
-0.99999999999999989
10
158.3923082036539
20
-82.637151842607054
10
152.3923082036539
20
-82.637151842607054
42
-0.99999999999999989
0
LINE
5
217
100
AcDbEntity
8
0
100
AcDbLine
10
152.3923082036539
20
-80.887151842607054
30
0
11
158.3923082036539
21
-80.887151842607054
31
0
0
LINE
5
218
100
AcDbEntity
8
0
100
AcDbLine
10
152.3923082036539
20
-66.887151842607011
30
0
11
158.3923082036539
21
-66.887151842607011
31
0
0
LWPOLYLINE
5
219
100
AcDbEntity
8
0
100
AcDbPolyline
90
4
70
1
43
0.0
10
297.89300501502464
20
1.1495207201733892
10
297.89372016859363
20
7.1495207201733884
42
0.99999999999999989
10
294.39372019345575
20
7.1499378930855473
10
294.39300503988682
20
1.1499378930855464
42
0.99999999999999989
0
LINE
5
220
100
AcDbEntity
8
0
100
AcDbLine
10
296.14300502745573
20
1.1497293066295011
30
0
11
296.14372018102466
21
7.149729306629502
31
0
0
LINE
5
221
100
AcDbEntity
8
0
100
AcDbLine
10
287.39279642856809
20
-0.6002706933703289
30
0
11
294.39279642856809
21
-0.6002706933703289
31
0
0
LINE
5
222
100
AcDbEntity
8
0
100
AcDbLine
10
278.64258782968039
20
1.1497293066285015
30
0
11
278.64187267612618
21
7.1497293066285117
31
0
0
LWPOLYLINE
5
223
100
AcDbEntity
8
0
100
AcDbPolyline
90
4
70
1
43
0.0
10
276.89258784211154
20
1.1495207201733468
42
0.99999999999999989
10
280.39258781724931
20
1.1499378930855841
10
280.39187266369515
20
7.1499378930847435
42
0.99999999999999989
10
276.89187268855721
20
7.1495207201721733
0
LWPOLYLINE
5
224
100
AcDbEntity
8
0
100
AcDbPolyline
90
4
70
1
43
0.0
10
249.39279642857008
20
98.899729306634825
10
255.39279642857011
20
98.899729306634825
42
0.99999999999999989
10
255.39279642857011
20
102.39972930663484
10
249.39279642857008
20
102.39972930663484
42
0.99999999999999989
0
LINE
5
225
100
AcDbEntity
8
0
100
AcDbLine
10
249.39279642857008
20
100.64972930663484
30
0
11
255.39279642857011
21
100.64972930663484
31
0
0
LWPOLYLINE
5
226
100
AcDbEntity
8
0
100
AcDbPolyline
90
4
70
1
43
0.0
10
249.39279642857008
20
88.399729306634839
42
0.99999999999999989
10
249.39279642857008
20
84.899729306634825
10
255.39279642857011
20
84.899729306634825
42
0.99999999999999989
10
255.39279642857011
20
88.399729306634839
0
LINE
5
227
100
AcDbEntity
8
0
100
AcDbLine
10
249.39279642857008
20
86.649729306634825
30
0
11
255.39279642857011
21
86.649729306634825
31
0
0
CIRCLE
5
228
100
AcDbEntity
8
0
100
AcDbCircle
10
287.39279642856815
20
-32.600270693370334
30
0
40
12.699999999999999
210
0
220
0
230
1
0
ENDSEC
0
SECTION
2
OBJECTS
0
DICTIONARY
5
C
100
AcDbDictionary
3
ACAD_GROUP
350
D
3
ACAD_MLINESTYLE
350
17
0
DICTIONARY
5
D
100
AcDbDictionary
0
DICTIONARY
5
1A
330
C
100
AcDbDictionary
0
DICTIONARY
5
17
100
AcDbDictionary
0
ENDSEC
0
EOF
