0
SECTION
2
HEADER
9
$INSUNITS
70
4
9
$ACADVER
1
AC1014
9
$HANDSEED
5
FFFF
0
ENDSEC
0
SECTION
2
TABLES
0
TABLE
2
VPORT
5
8
100
AcDbSymbolTable
0
ENDTAB
0
TABLE
2
LTYPE
5
5
100
AcDbSymbolTable
0
LTYPE
5
14
100
AcDbSymbolTableRecord
100
AcDbLinetypeTableRecord
2
BYBLOCK
70
0
0
LTYPE
5
15
100
AcDbSymbolTableRecord
100
AcDbLinetypeTableRecord
2
BYLAYER
70
0
0
ENDTAB
0
TABLE
2
LAYER
5
2
100
AcDbSymbolTable
70
2
0
LAYER
5
50
100
AcDbSymbolTableRecord
100
AcDbLayerTableRecord
2
0
70
0
6
CONTINUOUS
0
ENDTAB
0
TABLE
2
STYLE
5
3
100
AcDbSymbolTable
70
1
0
STYLE
5
11
100
AcDbSymbolTableRecord
100
AcDbTextStyleTableRecord
2
STANDARD
70
0
0
ENDTAB
0
TABLE
2
VIEW
5
6
100
AcDbSymbolTable
70
0
0
ENDTAB
0
TABLE
2
UCS
5
7
100
AcDbSymbolTable
70
0
0
ENDTAB
0
TABLE
2
APPID
5
9
100
AcDbSymbolTable
70
2
0
APPID
5
12
100
AcDbSymbolTableRecord
100
AcDbRegAppTableRecord
2
ACAD
70
0
0
ENDTAB
0
TABLE
2
DIMSTYLE
5
A
100
AcDbSymbolTable
70
1
0
ENDTAB
0
TABLE
2
BLOCK_RECORD
5
1
100
AcDbSymbolTable
70
1
0
BLOCK_RECORD
5
1F
100
AcDbSymbolTableRecord
100
AcDbBlockTableRecord
2
*MODEL_SPACE
0
BLOCK_RECORD
5
1B
100
AcDbSymbolTableRecord
100
AcDbBlockTableRecord
2
*PAPER_SPACE
0
ENDTAB
0
ENDSEC
0
SECTION
2
BLOCKS
0
BLOCK
5
20
100
AcDbEntity
100
AcDbBlockBegin
2
*MODEL_SPACE
0
ENDBLK
5
21
100
AcDbEntity
100
AcDbBlockEnd
0
BLOCK
5
1C
100
AcDbEntity
100
AcDbBlockBegin
2
*PAPER_SPACE
0
ENDBLK
5
1D
100
AcDbEntity
100
AcDbBlockEnd
0
ENDSEC
0
SECTION
2
ENTITIES
0
LWPOLYLINE
5
100
100
AcDbEntity
8
0
100
AcDbPolyline
90
4
70
1
43
0.0
10
197.61284815738648
20
34.588393494052077
10
197.61284815738645
20
41.488393494052069
10
-197.38715184261355
20
41.488393494050712
10
-197.38715184261352
20
34.58839349405072
0
LINE
5
101
100
AcDbEntity
8
0
100
AcDbLine
10
-217.38715184261369
20
41.488393494050996
30
0
11
-217.38715184261235
21
-353.51160650594898
31
-1.5438996809810632e-29
0
LINE
5
102
100
AcDbEntity
8
0
100
AcDbLine
10
197.61284815738645
20
41.488393494052069
30
0
11
-197.38715184261355
21
41.488393494050712
31
1.9697713203098256e-43
0
LINE
5
103
100
AcDbEntity
8
0
100
AcDbLine
10
-209.88715184261366
20
41.48839349405101
30
0
11
-204.88715184261366
21
41.488393494051024
31
8.9942118450645599e-16
0
LWPOLYLINE
5
104
100
AcDbEntity
8
0
100
AcDbPolyline
90
20
70
1
43
0.0
10
-217.38715184261372
20
41.488393494050982
10
-210.48715184261371
20
41.48839349405101
10
-213.3821518426173
20
41.488393494051003
10
-210.38715184261375
20
41.48839349405101
10
-204.38715184261366
20
41.488393494051024
10
-201.39215184260991
20
41.488393494051039
10
-204.28715184261367
20
41.488393494051039
10
-197.38715184261369
20
41.488393494051053
10
-198.68715184261379
20
41.488393494051046
10
-200.39215184261292
20
41.488393494051046
10
-203.38715184261363
20
41.488393494051024
10
-200.39215184261292
20
41.488393494051046
10
-198.68715184261379
20
41.488393494051046
10
-197.38715184261369
20
41.488393494051053
10
-204.28715184261367
20
41.488393494051039
10
-201.39215184260991
20
41.488393494051039
10
-204.38715184261366
20
41.488393494051024
10
-210.38715184261375
20
41.48839349405101
10
-213.3821518426173
20
41.488393494051003
10
-210.48715184261371
20
41.48839349405101
0
LWPOLYLINE
5
105
100
AcDbEntity
8
0
100
AcDbPolyline
90
6
70
1
43
0.0
10
-217.38715184261372
20
41.488393494050982
10
-216.08715184261348
20
41.488393494050982
10
-214.38215184261438
20
41.488393494050982
10
-211.38715184261366
20
41.488393494051003
10
-214.38215184261438
20
41.488393494050982
10
-216.08715184261348
20
41.488393494050982
0
LINE
5
106
100
AcDbEntity
8
0
100
AcDbLine
10
205.112848157386
20
41.488393494052417
30
0
11
210.112848157386
21
41.488393494052431
31
8.9942118450645599e-16
0
LWPOLYLINE
5
107
100
AcDbEntity
8
0
100
AcDbPolyline
90
20
70
1
43
0.0
10
197.61284815738603
20
41.488393494052396
10
204.51284815738643
20
41.488393494052424
10
201.61784815738383
20
41.488393494052417
10
204.61284815738605
20
41.488393494052424
10
210.61284815738594
20
41.488393494052438
10
213.60784815738799
20
41.488393494052445
10
210.712848157385
20
41.488393494052438
10
217.61284815738622
20
41.488393494052467
10
216.31284815739679
20
41.48839349405246
10
214.60784815738506
20
41.48839349405246
10
211.61284815738702
20
41.488393494052438
10
214.60784815738506
20
41.48839349405246
10
216.31284815739679
20
41.48839349405246
10
217.61284815738622
20
41.488393494052467
10
210.712848157385
20
41.488393494052438
10
213.60784815738799
20
41.488393494052445
10
210.61284815738594
20
41.488393494052438
10
204.61284815738605
20
41.488393494052424
10
201.61784815738383
20
41.488393494052417
10
204.51284815738643
20
41.488393494052424
0
LWPOLYLINE
5
108
100
AcDbEntity
8
0
100
AcDbPolyline
90
6
70
1
43
0.0
10
197.61284815738603
20
41.488393494052396
10
198.91284815737546
20
41.488393494052396
10
200.6178481573873
20
41.488393494052396
10
203.61284815738514
20
41.488393494052417
10
200.6178481573873
20
41.488393494052396
10
198.91284815737546
20
41.488393494052396
0
LINE
5
109
100
AcDbEntity
8
0
100
AcDbLine
10
217.61284815738622
20
41.488393494052467
30
0
11
217.61284815738759
21
-353.5116065059475
31
-1.5438996809810632e-29
0
LINE
5
110
100
AcDbEntity
8
0
100
AcDbLine
10
210.11284815738733
20
-353.51160650594755
30
0
11
205.11284815738733
21
-353.51160650594755
31
-8.9942118450645599e-16
0
LWPOLYLINE
5
111
100
AcDbEntity
8
0
100
AcDbPolyline
90
6
70
1
43
0.0
10
197.61284815738753
20
-353.51160650594755
10
198.91284815737657
20
-353.51160650594761
10
200.61784815738807
20
-353.51160650594755
10
203.61284815738628
20
-353.51160650594755
10
200.61784815738807
20
-353.51160650594755
10
198.91284815737657
20
-353.51160650594761
0
LWPOLYLINE
5
112
100
AcDbEntity
8
0
100
AcDbPolyline
90
20
70
1
43
0.0
10
197.61284815738753
20
-353.51160650594755
10
204.51284815738842
20
-353.51160650594755
10
201.61784815738574
20
-353.51160650594761
10
204.61284815738748
20
-353.51160650594755
10
210.61284815738748
20
-353.51160650594755
10
213.60784815739007
20
-353.51160650594755
10
210.71284815738716
20
-353.51160650594755
10
217.61284815738759
20
-353.51160650594755
10
216.31284815739829
20
-353.51160650594755
10
214.60784815738697
20
-353.51160650594755
10
211.61284815738841
20
-353.51160650594755
10
214.60784815738697
20
-353.51160650594755
10
216.31284815739829
20
-353.51160650594755
10
217.61284815738759
20
-353.51160650594755
10
210.71284815738716
20
-353.51160650594755
10
213.60784815739007
20
-353.51160650594755
10
210.61284815738748
20
-353.51160650594755
10
204.61284815738748
20
-353.51160650594755
10
201.61784815738574
20
-353.51160650594761
10
204.51284815738842
20
-353.51160650594755
0
LINE
5
113
100
AcDbEntity
8
0
100
AcDbLine
10
197.61284815738779
20
-353.51160650594755
30
0
11
-197.38715184261213
21
-353.51160650594892
31
1.9568969979548592e-43
0
LINE
5
114
100
AcDbEntity
8
0
100
AcDbLine
10
-204.8871518426123
20
-353.51160650594898
30
0
11
-209.8871518426123
21
-353.51160650594898
31
-8.9942118450645599e-16
0
LWPOLYLINE
5
115
100
AcDbEntity
8
0
100
AcDbPolyline
90
6
70
1
43
0.0
10
-217.38715184261235
20
-353.51160650594898
10
-216.08715184261226
20
-353.51160650594898
10
-214.38215184261304
20
-353.51160650594898
10
-211.38715184261224
20
-353.51160650594898
10
-214.38215184261304
20
-353.51160650594898
10
-216.08715184261226
20
-353.51160650594898
0
LWPOLYLINE
5
116
100
AcDbEntity
8
0
100
AcDbPolyline
90
20
70
1
43
0.0
10
-217.38715184261235
20
-353.51160650594898
10
-210.48715184261226
20
-353.51160650594898
10
-213.38215184261588
20
-353.51160650594909
10
-210.3871518426123
20
-353.51160650594898
10
-204.38715184261218
20
-353.51160650594898
10
-201.39215184260846
20
-353.51160650594898
10
-204.28715184261225
20
-353.51160650594898
10
-197.38715184261224
20
-353.51160650594898
10
-198.68715184261231
20
-353.51160650594898
10
-200.39215184261153
20
-353.51160650594898
10
-203.38715184261235
20
-353.51160650594898
10
-200.39215184261153
20
-353.51160650594898
10
-198.68715184261231
20
-353.51160650594898
10
-197.38715184261224
20
-353.51160650594898
10
-204.28715184261225
20
-353.51160650594898
10
-201.39215184260846
20
-353.51160650594898
10
-204.38715184261218
20
-353.51160650594898
10
-210.3871518426123
20
-353.51160650594898
10
-213.38215184261588
20
-353.51160650594909
10
-210.48715184261226
20
-353.51160650594898
0
LINE
5
117
100
AcDbEntity
8
0
100
AcDbLine
10
-142.38715184261233
20
21.488393494052119
30
0
11
-142.38715184261224
21
-333.51160650594773
31
-2.7228424793106182e-29
0
LINE
5
118
100
AcDbEntity
8
0
100
AcDbLine
10
-122.38715184261233
20
21.488393494052126
30
0
11
-122.38715184261224
21
-333.51160650594773
31
-2.7228424793106182e-29
0
LINE
5
119
100
AcDbEntity
8
0
100
AcDbLine
10
197.61284815738651
20
21.488393494052076
30
0
11
-197.38715184261349
21
21.488393494050719
31
1.9697713203098256e-43
0
LINE
5
120
100
AcDbEntity
8
0
100
AcDbLine
10
197.61284815738776
20
-333.51160650594755
30
0
11
-197.38715184261218
21
-333.51160650594892
31
1.9568969979548592e-43
0
LINE
5
121
100
AcDbEntity
8
0
100
AcDbLine
10
-197.38715184261369
20
41.488393494051053
30
0
11
-197.38715184261235
21
-353.51160650594892
31
-1.5438996809810632e-29
0
LINE
5
122
100
AcDbEntity
8
0
100
AcDbLine
10
197.6128481573862
20
41.488393494052403
30
0
11
197.61284815738753
21
-353.51160650594755
31
-1.5438996809810632e-29
0
CIRCLE
5
123
100
AcDbEntity
8
0
100
AcDbCircle
10
-184.3871518426136
20
31.488393494050655
30
0
40
1.6250000000000142
210
4.0216104411590235e-46
220
3.3078831219925821e-32
230
1
0
LWPOLYLINE
5
124
100
AcDbEntity
8
0
100
AcDbPolyline
90
6
70
1
43
0.0
10
-211.38715184261358
20
36.98839349405057
10
-217.38715184261355
20
30.988393494050534
10
-217.38715184261349
20
15.988393494050577
10
-211.38715184261346
20
9.9883934940506176
10
-197.38715184261349
20
9.9883934940507011
10
-197.3871518426136
20
36.988393494050648
0
CIRCLE
5
125
100
AcDbEntity
8
0
100
AcDbCircle
10
-207.38715184261352
20
32.988393494050612
30
0
40
1.6250000000000142
210
-6.1629758220391468e-31
220
1.9518766948204995e-32
230
1
0
CIRCLE
5
126
100
AcDbEntity
8
0
100
AcDbCircle
10
-207.38715184261341
20
13.988393494050641
30
0
40
1.6250000000000142
210
-6.1629758220391468e-31
220
1.9518766948204995e-32
230
1
0
CIRCLE
5
127
100
AcDbEntity
8
0
100
AcDbCircle
10
-207.38715184261341
20
13.988393494050641
30
0
40
1.6250000000000142
210
-6.1629758220391468e-31
220
1.9518766948204995e-32
230
1
0
CIRCLE
5
128
100
AcDbEntity
8
0
100
AcDbCircle
10
-138.88715184261375
20
31.488393494058052
30
0
40
1.7500000000000002
210
-4.9303806576317398e-32
220
-4.8972127805339365e-32
230
1
0
CIRCLE
5
129
100
AcDbEntity
8
0
100
AcDbCircle
10
-113.88715184261373
20
31.488393494057515
30
0
40
1.7500000000000002
210
-4.9303806576317398e-32
220
-4.8972127805339365e-32
230
1
0
CIRCLE
5
130
100
AcDbEntity
8
0
100
AcDbCircle
10
-88.887151842613733
20
31.488393494056982
30
0
40
1.7500000000000002
210
-4.9303806576317398e-32
220
-4.8972127805339365e-32
230
1
0
CIRCLE
5
131
100
AcDbEntity
8
0
100
AcDbCircle
10
136.11284815738625
20
31.488393494052154
30
0
40
1.7500000000000002
210
-4.9303806576317398e-32
220
-4.8972127805339365e-32
230
1
0
CIRCLE
5
132
100
AcDbEntity
8
0
100
AcDbCircle
10
111.11284815738627
20
31.488393494052694
30
0
40
1.7500000000000002
210
-4.9303806576317398e-32
220
-4.8972127805339365e-32
230
1
0
CIRCLE
5
133
100
AcDbEntity
8
0
100
AcDbCircle
10
86.112848157386267
20
31.488393494053231
30
0
40
1.7500000000000002
210
-4.9303806576317398e-32
220
-4.8972127805339365e-32
230
1
0
CIRCLE
5
134
100
AcDbEntity
8
0
100
AcDbCircle
10
61.112848157386267
20
31.488393494053764
30
0
40
1.7500000000000002
210
-4.9303806576317398e-32
220
-4.8972127805339365e-32
230
1
0
CIRCLE
5
135
100
AcDbEntity
8
0
100
AcDbCircle
10
36.112848157386267
20
31.4883934940543
30
0
40
1.7500000000000002
210
-4.9303806576317398e-32
220
-4.8972127805339365e-32
230
1
0
CIRCLE
5
136
100
AcDbEntity
8
0
100
AcDbCircle
10
11.112848157386264
20
31.48839349405484
30
0
40
1.7500000000000002
210
-4.9303806576317398e-32
220
-4.8972127805339365e-32
230
1
0
CIRCLE
5
137
100
AcDbEntity
8
0
100
AcDbCircle
10
-13.887151842613736
20
31.488393494055373
30
0
40
1.7500000000000002
210
-4.9303806576317398e-32
220
-4.8972127805339365e-32
230
1
0
CIRCLE
5
138
100
AcDbEntity
8
0
100
AcDbCircle
10
-38.887151842613733
20
31.488393494055909
30
0
40
1.7500000000000002
210
-4.9303806576317398e-32
220
-4.8972127805339365e-32
230
1
0
CIRCLE
5
139
100
AcDbEntity
8
0
100
AcDbCircle
10
-63.887151842613733
20
31.488393494056446
30
0
40
1.7500000000000002
210
-4.9303806576317398e-32
220
-4.8972127805339365e-32
230
1
0
CIRCLE
5
140
100
AcDbEntity
8
0
100
AcDbCircle
10
-88.887151842613733
20
31.488393494056982
30
0
40
1.7500000000000002
210
-4.9303806576317398e-32
220
-4.8972127805339365e-32
230
1
0
CIRCLE
5
141
100
AcDbEntity
8
0
100
AcDbCircle
10
-113.88715184261373
20
31.488393494057515
30
0
40
1.7500000000000002
210
-4.9303806576317398e-32
220
-4.8972127805339365e-32
230
1
0
CIRCLE
5
142
100
AcDbEntity
8
0
100
AcDbCircle
10
-138.88715184261375
20
31.488393494058052
30
0
40
1.7500000000000002
210
-4.9303806576317398e-32
220
-4.8972127805339365e-32
230
1
0
LWPOLYLINE
5
143
100
AcDbEntity
8
0
100
AcDbPolyline
90
4
70
1
43
0.0
10
-151.38715184261386
20
26.088393494058323
10
148.61284815738614
20
26.088393494051893
10
148.61284815738637
20
36.888393494051897
10
-151.3871518426136
20
36.888393494058327
0
CIRCLE
5
144
100
AcDbEntity
8
0
100
AcDbCircle
10
181.61284815738617
20
31.488393494051927
30
0
40
1.6250000000000142
210
9.364466204401597e-64
220
-6.7520368336252854e-33
230
1
0
CIRCLE
5
145
100
AcDbEntity
8
0
100
AcDbCircle
10
-132.38715184261204
20
-36.011606505947711
30
0
40
1.7500000000000002
210
9.3677232494995152e-31
220
-1.7945500882108462e-32
230
1
0
CIRCLE
5
146
100
AcDbEntity
8
0
100
AcDbCircle
10
-132.38715184261204
20
-61.011606505947711
30
0
40
1.7500000000000002
210
9.3677232494995152e-31
220
-1.7945500882108462e-32
230
1
0
CIRCLE
5
147
100
AcDbEntity
8
0
100
AcDbCircle
10
-132.38715184261204
20
-86.011606505947711
30
0
40
1.7500000000000002
210
9.3677232494995152e-31
220
-1.7945500882108462e-32
230
1
0
CIRCLE
5
148
100
AcDbEntity
8
0
100
AcDbCircle
10
-132.38715184261207
20
-111.01160650594771
30
0
40
1.7500000000000002
210
9.3677232494995152e-31
220
-1.7945500882108462e-32
230
1
0
CIRCLE
5
149
100
AcDbEntity
8
0
100
AcDbCircle
10
-132.38715184261207
20
-136.01160650594773
30
0
40
1.7500000000000002
210
9.3677232494995152e-31
220
-1.7945500882108462e-32
230
1
0
CIRCLE
5
150
100
AcDbEntity
8
0
100
AcDbCircle
10
-132.38715184261207
20
-161.01160650594773
30
0
40
1.7500000000000002
210
9.3677232494995152e-31
220
-1.7945500882108462e-32
230
1
0
CIRCLE
5
151
100
AcDbEntity
8
0
100
AcDbCircle
10
-132.38715184261207
20
-186.01160650594773
30
0
40
1.7500000000000002
210
9.3677232494995152e-31
220
-1.7945500882108462e-32
230
1
0
CIRCLE
5
152
100
AcDbEntity
8
0
100
AcDbCircle
10
-132.38715184261207
20
-211.01160650594773
30
0
40
1.7500000000000002
210
9.3677232494995152e-31
220
-1.7945500882108462e-32
230
1
0
CIRCLE
5
153
100
AcDbEntity
8
0
100
AcDbCircle
10
-132.38715184261207
20
-236.01160650594773
30
0
40
1.7500000000000002
210
9.3677232494995152e-31
220
-1.7945500882108462e-32
230
1
0
CIRCLE
5
154
100
AcDbEntity
8
0
100
AcDbCircle
10
-132.38715184261207
20
-261.01160650594773
30
0
40
1.7500000000000002
210
9.3677232494995152e-31
220
-1.7945500882108462e-32
230
1
0
CIRCLE
5
155
100
AcDbEntity
8
0
100
AcDbCircle
10
-132.38715184261207
20
-286.01160650594773
30
0
40
1.7500000000000002
210
9.3677232494995152e-31
220
-1.7945500882108462e-32
230
1
0
CIRCLE
5
156
100
AcDbEntity
8
0
100
AcDbCircle
10
-132.38715184261207
20
-311.01160650594773
30
0
40
1.7500000000000002
210
9.3677232494995152e-31
220
-1.7945500882108462e-32
230
1
0
LWPOLYLINE
5
157
100
AcDbEntity
8
0
100
AcDbPolyline
90
4
70
1
43
0.0
10
-126.98715184261209
20
-323.51160650594773
10
-126.98715184261205
20
-23.511606505947711
10
-137.78715184261205
20
-23.511606505947711
10
-137.78715184261208
20
-323.51160650594773
0
LWPOLYLINE
5
158
100
AcDbEntity
8
0
100
AcDbPolyline
90
4
70
1
43
0.0
10
-135.58715184261206
20
21.488393494050719
10
-129.18715184261205
20
21.488393494050719
10
-129.18715184261205
20
-353.51160650594755
10
-135.58715184261206
20
-353.51160650594755
0
LINE
5
159
100
AcDbEntity
8
0
100
AcDbLine
10
-132.38715184261204
20
21.488393494050719
30
0
11
-132.38715184261204
21
-353.51160650594755
31
0
0
LINE
5
160
100
AcDbEntity
8
0
100
AcDbLine
10
-132.38715184261204
20
-23.511606505947711
30
-3.8937547460912975e-30
11
-132.38715184261207
21
-323.51160650594773
31
2.6611595816834665e-30
0
CIRCLE
5
161
100
AcDbEntity
8
0
100
AcDbCircle
10
-132.38715184261233
20
-343.51160650594801
30
0
40
1.625
210
-2.7117093616972281e-31
220
-1.7766769580538456e-32
230
1
0
CIRCLE
5
162
100
AcDbEntity
8
0
100
AcDbCircle
10
-132.38715184261233
20
-3.5116065059481194
30
0
40
1.625
210
-9.9636500000159923e-48
220
-1.7766769580538472e-32
230
1
0
LWPOLYLINE
5
163
100
AcDbEntity
8
0
100
AcDbPolyline
90
4
70
1
43
0.0
10
-217.38715184261235
20
34.688393494051894
10
217.61284815738622
20
34.688393494051894
10
217.61284815738622
20
28.288393494051892
10
-217.38715184261235
20
28.288393494051892
0
LINE
5
164
100
AcDbEntity
8
0
100
AcDbLine
10
-217.38715184261235
20
31.488393494051891
30
0
11
217.61284815738622
21
31.488393494051891
31
0
0
LINE
5
165
100
AcDbEntity
8
0
100
AcDbLine
10
148.61284815738625
20
31.488393494051895
30
-3.6235078284399691e-30
11
-151.38715184261375
21
31.488393494058325
31
3.9443045261045931e-30
0
ARC
5
166
100
AcDbEntity
8
0
100
AcDbCircle
10
207.6128481573877
20
10.998775784603579
30
5.4738221262688167e-46
40
3.4999999999999787
210
6.9025329206835765e-31
220
7.6512789397070857e-31
230
1
100
AcDbArc
50
0
51
180
0
LINE
5
167
100
AcDbEntity
8
0
100
AcDbLine
10
204.11284815738787
20
5.9987757846033718
30
0
11
204.11284815738765
21
10.998775784603392
31
1.4590625062521425e-29
0
LINE
5
168
100
AcDbEntity
8
0
100
AcDbLine
10
211.11284815738765
20
10.998775784603765
30
0
11
211.11284815738787
21
5.9987757846037448
31
-1.4590625062521425e-29
0
ARC
5
169
100
AcDbEntity
8
0
100
AcDbCircle
10
207.61284815738793
20
5.9987757846035583
30
3.8316754883881717e-46
40
3.5000000000000497
210
6.9025329206834855e-31
220
6.7953719901001975e-31
230
1
100
AcDbArc
50
-180
51
0
0
ARC
5
170
100
AcDbEntity
8
0
100
AcDbCircle
10
207.61284815738787
20
-317.91523162262598
30
7.1054273576010019e-14
40
3.5000000000000142
210
0
220
0
230
1
100
AcDbArc
50
0
51
180
0
LINE
5
171
100
AcDbEntity
8
0
100
AcDbLine
10
204.11284815738784
20
-322.91523162262598
30
7.1054273576010019e-14
11
204.11284815738784
21
-317.91523162262598
31
7.1054273576010019e-14
0
LINE
5
172
100
AcDbEntity
8
0
100
AcDbLine
10
211.11284815738787
20
-317.91523162262598
30
0
11
211.11284815738787
21
-322.91523162262598
31
1.3186604045529877e-31
0
ARC
5
173
100
AcDbEntity
8
0
100
AcDbCircle
10
207.61284815738787
20
-322.91523162262604
30
7.1054273576010019e-14
40
3.5000000000000142
210
0
220
0
230
1
100
AcDbArc
50
180
51
360
0
ARC
5
174
100
AcDbEntity
8
0
100
AcDbCircle
10
-207.38715184261252
20
-318.02198879649984
30
-2.1895288505075267e-46
40
3.5000000000000142
210
8.1351280850916562e-31
220
1.7633523822008009e-31
230
1
100
AcDbArc
50
0
51
180
0
ARC
5
175
100
AcDbEntity
8
0
100
AcDbCircle
10
-207.38715184261252
20
-323.02198879649978
30
-1.0947644252537633e-46
40
3.5000000000000142
210
8.1351280850916562e-31
220
2.6192593318076862e-31
230
1
100
AcDbArc
50
-180
51
0
0
LINE
5
176
100
AcDbEntity
8
0
100
AcDbLine
10
-203.88715184261252
20
-318.02198879649978
30
0
11
-203.88715184261252
21
-323.02198879649978
31
9.2447153858074723e-31
0
LINE
5
177
100
AcDbEntity
8
0
100
AcDbLine
10
-210.88715184261252
20
-323.02198879649978
30
0
11
-210.88715184261252
21
-318.02198879649978
31
-9.2447153858074723e-31
0
LINE
5
178
100
AcDbEntity
8
0
100
AcDbLine
10
-210.88715184261258
20
-256.0219887965041
30
0
11
-210.88715184261258
21
-251.0219887965041
31
-9.2447153858074723e-31
0
ARC
5
179
100
AcDbEntity
8
0
100
AcDbCircle
10
-207.38715184261255
20
-251.0219887965041
30
-2.1895288505075267e-46
40
3.5000000000000142
210
8.1351280850916562e-31
220
1.7633523822008009e-31
230
1
100
AcDbArc
50
0
51
180
0
LINE
5
180
100
AcDbEntity
8
0
100
AcDbLine
10
-203.88715184261255
20
-251.02198879650405
30
0
11
-203.88715184261255
21
-256.02198879650405
31
9.2447153858074723e-31
0
ARC
5
181
100
AcDbEntity
8
0
100
AcDbCircle
10
-207.38715184261255
20
-256.0219887965041
30
-1.0947644252537633e-46
40
3.5000000000000142
210
8.1351280850916562e-31
220
2.6192593318076862e-31
230
1
100
AcDbArc
50
-180
51
0
0
ARC
5
182
100
AcDbEntity
8
0
100
AcDbCircle
10
-207.38715184261295
20
10.998775784581527
30
1.0947644252537633e-46
40
3.4999999999999787
210
6.9025329206835757e-31
220
7.6512789397071418e-31
230
1
100
AcDbArc
50
0
51
180
0
LINE
5
183
100
AcDbEntity
8
0
100
AcDbLine
10
-210.88715184261275
20
5.9987757845813192
30
0
11
-210.88715184261301
21
10.998775784581341
31
1.4590625062521406e-29
0
LINE
5
184
100
AcDbEntity
8
0
100
AcDbLine
10
-203.88715184261301
20
10.998775784581712
30
0
11
-203.88715184261275
21
5.9987757845816914
31
-1.4590625062521406e-29
0
ARC
5
185
100
AcDbEntity
8
0
100
AcDbCircle
10
-207.3871518426127
20
5.9987757845815075
30
6.0212043388956984e-46
40
3.5000000000000497
210
6.9025329206834837e-31
220
6.7953719901002536e-31
230
1
100
AcDbArc
50
-180
51
0
0
LWPOLYLINE
5
186
100
AcDbEntity
8
0
100
AcDbPolyline
90
4
70
1
43
0.0
10
204.51284815738643
20
41.488393494052424
10
197.6128481573862
20
41.488393494052403
10
197.61284815738753
20
-353.51160650594755
10
204.51284815738777
20
-353.51160650594755
0
LWPOLYLINE
5
187
100
AcDbEntity
8
0
100
AcDbPolyline
90
4
70
1
43
0.0
10
-209.88715184261252
20
-305.51160650594778
10
-209.8871518426125
20
-315.57249905371668
42
-0.4202041028867376
10
-204.8871518426125
20
-315.57249905371668
10
-204.8871518426125
20
-305.51160650594773
0
LWPOLYLINE
5
188
100
AcDbEntity
8
0
100
AcDbPolyline
90
4
70
1
43
0.0
10
-209.8871518426125
20
-333.51160650594778
10
-204.8871518426125
20
-333.51160650594778
10
-204.8871518426125
20
-325.471478539283
42
-0.42020410288672694
10
-209.8871518426125
20
-325.47147853928311
0
LWPOLYLINE
5
189
100
AcDbEntity
8
0
100
AcDbPolyline
90
4
70
1
43
0.0
10
-209.88715184261252
20
-266.51160650595205
10
-204.88715184261252
20
-266.51160650595205
10
-204.88715184261252
20
-258.47147853928726
42
-0.42020410288673121
10
-209.88715184261255
20
-258.47147853928726
0
LWPOLYLINE
5
190
100
AcDbEntity
8
0
100
AcDbPolyline
90
4
70
1
43
0.0
10
-209.88715184261255
20
-238.51160650595205
10
-209.88715184261255
20
-248.57249905372095
42
-0.42020410288674187
10
-204.88715184261252
20
-248.57249905372095
10
-204.88715184261252
20
-238.51160650595202
0
LWPOLYLINE
5
191
100
AcDbEntity
8
0
100
AcDbPolyline
90
4
70
1
43
0.0
10
-204.88715184261201
20
-6.5116065059703434
10
-204.88715184261255
20
3.5492860417985428
42
-0.42020410288672838
10
-209.88715184261255
20
3.5492860417983008
10
-209.88715184261207
20
-6.5116065059706081
0
LWPOLYLINE
5
192
100
AcDbEntity
8
0
100
AcDbPolyline
90
4
70
1
43
0.0
10
-204.88715184261352
20
21.488393494029769
10
-209.88715184261352
20
21.488393494029502
10
-209.88715184261312
20
13.448265527364738
42
-0.42020410288672649
10
-204.88715184261312
20
13.44826552736496
0
LWPOLYLINE
5
193
100
AcDbEntity
8
0
100
AcDbPolyline
90
4
70
1
43
0.0
10
-209.88715184261355
20
21.488393494029392
10
-204.88715184261355
20
21.488393494029658
10
-204.88715184261366
20
23.188393494029668
10
-209.88715184261363
20
23.188393494029395
0
LWPOLYLINE
5
194
100
AcDbEntity
8
0
100
AcDbPolyline
90
4
70
1
43
0.0
10
210.11284815738861
20
-6.5116065059482953
10
210.11284815738807
20
3.5492860418205909
42
-0.42020410288672838
10
205.11284815738807
20
3.5492860418203485
10
205.11284815738858
20
-6.5116065059485608
0
LWPOLYLINE
5
195
100
AcDbEntity
8
0
100
AcDbPolyline
90
4
70
1
43
0.0
10
210.11284815738713
20
21.48839349405182
10
205.11284815738713
20
21.48839349405155
10
205.1128481573875
20
13.448265527386784
42
-0.42020410288672677
10
210.1128481573875
20
13.448265527387008
0
LWPOLYLINE
5
196
100
AcDbEntity
8
0
100
AcDbPolyline
90
4
70
1
43
0.0
10
205.1128481573879
20
-333.40484933207398
10
210.1128481573879
20
-333.40484933207398
10
210.11284815738782
20
-325.36472136540914
42
-0.42020410288672272
10
205.1128481573879
20
-325.3647213654092
0
LWPOLYLINE
5
197
100
AcDbEntity
8
0
100
AcDbPolyline
90
4
70
1
43
0.0
10
210.11284815738787
20
-333.40484933207398
10
205.11284815738787
20
-333.40484933207398
10
205.11284815738787
20
-335.10484933207402
10
210.11284815738787
20
-335.10484933207402
0
LWPOLYLINE
5
198
100
AcDbEntity
8
0
100
AcDbPolyline
90
4
70
1
43
0.0
10
205.1128481573879
20
-305.40484933207392
10
205.1128481573879
20
-315.46574187984282
42
-0.42020410288673327
10
210.11284815738793
20
-315.46574187984282
10
210.1128481573879
20
-305.40484933207392
0
LWPOLYLINE
5
199
100
AcDbEntity
8
0
100
AcDbPolyline
90
4
70
1
43
0.0
10
205.11284815738708
20
21.488393494051444
10
210.11284815738708
20
21.488393494051714
10
210.11284815738696
20
23.18839349405172
10
205.11284815738702
20
23.18839349405145
0
LWPOLYLINE
5
200
100
AcDbEntity
8
0
100
AcDbPolyline
90
4
70
1
43
0.0
10
-204.88715184261255
20
-266.51160650595205
10
-209.88715184261255
20
-266.51160650595205
10
-209.88715184261255
20
-268.21160650595209
10
-204.88715184261255
20
-268.21160650595203
0
LWPOLYLINE
5
201
100
AcDbEntity
8
0
100
AcDbPolyline
90
4
70
1
43
0.0
10
-204.88715184261252
20
-333.51160650594778
10
-209.88715184261252
20
-333.51160650594778
10
-209.88715184261252
20
-335.21160650594777
10
-204.88715184261252
20
-335.21160650594777
0
LWPOLYLINE
5
202
100
AcDbEntity
8
0
100
AcDbPolyline
90
4
70
1
43
0.0
10
-197.38715184261343
20
1.4883934940513961
10
-155.38715184261343
20
1.4883934940513961
10
-155.38715184261343
20
-47.511606505948606
10
-197.38715184261343
20
-47.511606505948606
0
LINE
5
203
100
AcDbEntity
8
0
100
AcDbLine
10
-197.38715184261338
20
1.4883934940513961
30
0
11
-155.38715184261338
21
1.4883934940515404
31
-6.9025329206838743e-30
0
LINE
5
204
100
AcDbEntity
8
0
100
AcDbLine
10
-197.38715184261349
20
14.988393494050465
30
0
11
-155.38715184261349
21
14.988393494050754
31
-9.8607613152626896e-30
0
LWPOLYLINE
5
205
100
AcDbEntity
8
0
100
AcDbPolyline
90
4
70
1
43
0.0
10
-197.38715184261343
20
14.988393494050465
10
-155.38715184261343
20
14.988393494050465
10
-155.38715184261343
20
-34.011606505949537
10
-197.38715184261343
20
-34.011606505949537
0
LINE
5
206
100
AcDbEntity
8
0
100
AcDbLine
10
-122.38715184261245
20
-327.51160650594795
30
0
11
-142.38715184261247
21
-327.51160650594795
31
3.4512664603419266e-30
0
LWPOLYLINE
5
207
100
AcDbEntity
8
0
100
AcDbPolyline
90
4
70
1
43
0.0
10
-160.38715184261221
20
-329.51160650594761
10
-148.38715184261224
20
-329.51160650594761
10
-148.38715184261224
20
-333.51160650594755
10
-160.38715184261221
20
-333.51160650594755
0
LINE
5
208
100
AcDbEntity
8
0
100
AcDbLine
10
-148.88715184261034
20
-150.51160650593545
30
0
11
-148.88715184261034
21
-196.51160650593545
31
-2.7408509348295809e-30
0
LWPOLYLINE
5
209
100
AcDbEntity
8
0
100
AcDbPolyline
90
4
70
1
43
0.0
10
-138.88715184261198
20
-156.4116065059477
10
-145.88715184261201
20
-156.4116065059477
10
-145.88715184261198
20
-190.61160650594772
10
-138.88715184261198
20
-190.61160650594772
0
LINE
5
210
100
AcDbEntity
8
0
100
AcDbLine
10
-145.88715184261198
20
-190.61160650594772
30
0
11
-145.88715184261198
21
-156.41160650594773
31
-2.5964558632658618e-31
0
LWPOLYLINE
5
211
100
AcDbEntity
8
0
100
AcDbPolyline
90
8
70
1
43
0.0
10
-211.38715184261366
20
41.48839349405069
10
211.61284815738634
20
41.48839349405069
42
-0.41421356237309503
10
217.61284815738631
20
35.488393494050712
10
217.61284815738622
20
-347.51160650594755
42
-0.41421356237308815
10
211.61284815738622
20
-353.51160650594755
10
-211.38715184261366
20
-353.51160650594755
42
-0.41421356237309503
10
-217.38715184261366
20
-347.51160650594755
10
-217.38715184261372
20
35.488393494050676
42
-0.41421356237309159
0
CIRCLE
5
212
100
AcDbEntity
8
0
100
AcDbCircle
10
-207.38715184261221
20
-333.62410650594779
30
0
40
1.5875000000000195
210
0
220
0
230
1
0
LINE
5
213
100
AcDbEntity
8
0
100
AcDbLine
10
-207.38715184261252
20
-335.21160650594777
30
1.8997688795635599e-30
11
-207.38715184261252
21
-332.03660650594776
31
1.8997688795635599e-30
0
CIRCLE
5
214
100
AcDbEntity
8
0
100
AcDbCircle
10
-168.38715184261349
20
31.488393494050776
30
0
40
1.6250000000000142
210
-4.0039249011327532e-47
220
1.5659769830692477e-31
230
1
0
ENDSEC
0
SECTION
2
OBJECTS
0
DICTIONARY
5
C
100
AcDbDictionary
3
ACAD_GROUP
350
D
3
ACAD_MLINESTYLE
350
17
0
DICTIONARY
5
D
100
AcDbDictionary
0
DICTIONARY
5
1A
330
C
100
AcDbDictionary
0
DICTIONARY
5
17
100
AcDbDictionary
0
ENDSEC
0
EOF
