<?xml version="1.0" encoding="UTF-8"?>
<svg id="_x30_" xmlns="http://www.w3.org/2000/svg" viewBox="0 0 427.04 193.71">
  <defs>
    <style>
      .cls-1 {
        fill: none;
        stroke: #000;
        stroke-linecap: round;
        stroke-linejoin: round;
        stroke-width: 6px;
      }
    </style>
  </defs>
  <g id="SPLINE">
    <path class="cls-1" d="M24.39,3C12.65,3,3,12.65,3,24.39"/>
  </g>
  <g id="SPLINE-2" data-name="SPLINE">
    <path class="cls-1" d="M3,169.31c0,11.74,9.65,21.39,21.39,21.39"/>
  </g>
  <g id="LINE">
    <line class="cls-1" x1="3" y1="24.39" x2="3" y2="169.31"/>
  </g>
  <g id="SPLINE-3" data-name="SPLINE">
    <path class="cls-1" d="M321.98,190.71c-4.98-4.45-10.12-8.7-15.4-12.75"/>
  </g>
  <g id="LINE-2" data-name="LINE">
    <line class="cls-1" x1="24.39" y1="190.71" x2="321.98" y2="190.71"/>
  </g>
  <g id="SPLINE-4" data-name="SPLINE">
    <path class="cls-1" d="M24.39,177.96c-4.9,0-8.64-3.74-8.64-8.64"/>
  </g>
  <g id="LINE-3" data-name="LINE">
    <line class="cls-1" x1="306.58" y1="177.96" x2="24.39" y2="177.96"/>
  </g>
  <g id="SPLINE-5" data-name="SPLINE">
    <path class="cls-1" d="M15.75,24.39c0-4.9,3.74-8.64,8.64-8.64"/>
  </g>
  <g id="LINE-4" data-name="LINE">
    <line class="cls-1" x1="15.75" y1="169.31" x2="15.75" y2="24.39"/>
  </g>
  <g id="SPLINE-6" data-name="SPLINE">
    <path class="cls-1" d="M306.58,15.75c5.28-4.05,10.42-8.3,15.4-12.75"/>
  </g>
  <g id="LINE-5" data-name="LINE">
    <line class="cls-1" x1="24.39" y1="15.75" x2="306.58" y2="15.75"/>
  </g>
  <g id="LINE-6" data-name="LINE">
    <line class="cls-1" x1="321.98" y1="3" x2="24.39" y2="3"/>
  </g>
  <g id="SPLINE-7" data-name="SPLINE">
    <path class="cls-1" d="M402.64,15.75c4.9,0,8.64,3.74,8.64,8.64"/>
  </g>
  <g id="LINE-7" data-name="LINE">
    <line class="cls-1" x1="380.9" y1="15.75" x2="402.64" y2="15.75"/>
  </g>
  <g id="LINE-8" data-name="LINE">
    <line class="cls-1" x1="358.81" y1="3" x2="380.9" y2="15.75"/>
  </g>
  <g id="SPLINE-8" data-name="SPLINE">
    <path class="cls-1" d="M411.29,169.31c0,4.9-3.74,8.64-8.64,8.64"/>
  </g>
  <g id="LINE-9" data-name="LINE">
    <line class="cls-1" x1="411.29" y1="24.39" x2="411.29" y2="169.31"/>
  </g>
  <g id="SPLINE-9" data-name="SPLINE">
    <path class="cls-1" d="M402.64,190.71c11.74,0,21.39-9.65,21.39-21.39"/>
  </g>
  <g id="LINE-10" data-name="LINE">
    <line class="cls-1" x1="358.81" y1="190.71" x2="402.64" y2="190.71"/>
  </g>
  <g id="LINE-11" data-name="LINE">
    <line class="cls-1" x1="402.64" y1="177.96" x2="380.9" y2="177.96"/>
  </g>
  <g id="LINE-12" data-name="LINE">
    <line class="cls-1" x1="380.9" y1="177.96" x2="358.81" y2="190.71"/>
  </g>
  <g id="SPLINE-10" data-name="SPLINE">
    <path class="cls-1" d="M424.04,24.39c0-11.74-9.65-21.39-21.39-21.39"/>
  </g>
  <g id="LINE-13" data-name="LINE">
    <line class="cls-1" x1="424.04" y1="169.31" x2="424.04" y2="24.39"/>
  </g>
  <g id="SPLINE-11" data-name="SPLINE">
    <path class="cls-1" d="M83.93,165.1c-3.98,0-6.74-1.91-8.28-5.72"/>
  </g>
  <g id="LINE-14" data-name="LINE">
    <line class="cls-1" x1="402.64" y1="3" x2="358.81" y2="3"/>
  </g>
  <g id="SPLINE-12" data-name="SPLINE">
    <path class="cls-1" d="M29.84,42.25c-.68-1.76-1.02-3.3-1.02-4.61"/>
  </g>
  <g id="SPLINE-13" data-name="SPLINE">
    <path class="cls-1" d="M28.82,37.65c0-1.25.23-2.42.68-3.5"/>
  </g>
  <g id="SPLINE-14" data-name="SPLINE">
    <path class="cls-1" d="M29.5,34.15c.46-1.14,1.08-2.1,1.88-2.9"/>
  </g>
  <g id="SPLINE-15" data-name="SPLINE">
    <path class="cls-1" d="M31.38,31.25c.85-.85,1.82-1.51,2.9-1.96"/>
  </g>
  <g id="SPLINE-16" data-name="SPLINE">
    <path class="cls-1" d="M34.28,29.28c1.08-.46,2.28-.68,3.58-.68"/>
  </g>
  <g id="SPLINE-17" data-name="SPLINE">
    <path class="cls-1" d="M37.86,28.6c3.98,0,6.77,1.79,8.36,5.37"/>
  </g>
  <g id="LINE-15" data-name="LINE">
    <line class="cls-1" x1="75.65" y1="159.39" x2="29.84" y2="42.25"/>
  </g>
  <g id="SPLINE-18" data-name="SPLINE">
    <path class="cls-1" d="M121.64,33.98c1.37-3.58,4.15-5.37,8.36-5.37"/>
  </g>
  <g id="SPLINE-19" data-name="SPLINE">
    <path class="cls-1" d="M130,28.6c1.25,0,2.42.23,3.5.68"/>
  </g>
  <g id="SPLINE-20" data-name="SPLINE">
    <path class="cls-1" d="M133.49,29.28c1.14.46,2.1,1.11,2.9,1.96"/>
  </g>
  <g id="SPLINE-21" data-name="SPLINE">
    <path class="cls-1" d="M136.4,31.25c.85.8,1.51,1.76,1.96,2.9"/>
  </g>
  <g id="SPLINE-22" data-name="SPLINE">
    <path class="cls-1" d="M138.36,34.15c.46,1.08.68,2.25.68,3.5"/>
  </g>
  <g id="SPLINE-23" data-name="SPLINE">
    <path class="cls-1" d="M139.04,37.65c0,1.48-.34,3.01-1.02,4.61"/>
  </g>
  <g id="LINE-16" data-name="LINE">
    <line class="cls-1" x1="83.93" y1="130.98" x2="121.64" y2="33.98"/>
  </g>
  <g id="LINE-17" data-name="LINE">
    <line class="cls-1" x1="46.22" y1="33.98" x2="83.93" y2="130.98"/>
  </g>
  <g id="SPLINE-24" data-name="SPLINE">
    <path class="cls-1" d="M92.2,159.39c-1.54,3.81-4.29,5.72-8.28,5.72"/>
  </g>
  <g id="LINE-18" data-name="LINE">
    <line class="cls-1" x1="138.02" y1="42.25" x2="92.2" y2="159.39"/>
  </g>
  <g id="SPLINE-25" data-name="SPLINE">
    <path class="cls-1" d="M169.67,50.02c-1.71.57-3.5,1.22-5.37,1.96"/>
  </g>
  <g id="SPLINE-26" data-name="SPLINE">
    <path class="cls-1" d="M164.29,51.98c-1.88.68-3.58,1.02-5.12,1.02"/>
  </g>
  <g id="SPLINE-27" data-name="SPLINE">
    <path class="cls-1" d="M159.17,53c-2.56,0-4.69-.82-6.4-2.47"/>
  </g>
  <g id="SPLINE-28" data-name="SPLINE">
    <path class="cls-1" d="M152.78,50.53c-1.65-1.71-2.47-3.84-2.47-6.4"/>
  </g>
  <g id="SPLINE-29" data-name="SPLINE">
    <path class="cls-1" d="M150.3,44.13c0-1.82.46-3.44,1.37-4.86"/>
  </g>
  <g id="SPLINE-30" data-name="SPLINE">
    <path class="cls-1" d="M151.67,39.27c.97-1.42,2.42-2.59,4.35-3.5"/>
  </g>
  <g id="LINE-19" data-name="LINE">
    <line class="cls-1" x1="169.67" y1="156.23" x2="169.67" y2="50.02"/>
  </g>
  <g id="SPLINE-31" data-name="SPLINE">
    <path class="cls-1" d="M175.55,29.28c1.02-.4,2.05-.6,3.07-.6"/>
  </g>
  <g id="SPLINE-32" data-name="SPLINE">
    <path class="cls-1" d="M178.62,28.69c2.56,0,4.66.88,6.31,2.64"/>
  </g>
  <g id="SPLINE-33" data-name="SPLINE">
    <path class="cls-1" d="M184.94,31.33c1.71,1.71,2.56,3.81,2.56,6.31"/>
  </g>
  <g id="LINE-20" data-name="LINE">
    <line class="cls-1" x1="156.02" y1="35.77" x2="175.55" y2="29.28"/>
  </g>
  <g id="SPLINE-34" data-name="SPLINE">
    <path class="cls-1" d="M187.5,156.23c0,2.45-.88,4.55-2.64,6.31"/>
  </g>
  <g id="SPLINE-35" data-name="SPLINE">
    <path class="cls-1" d="M184.85,162.54c-1.71,1.71-3.81,2.56-6.31,2.56"/>
  </g>
  <g id="SPLINE-36" data-name="SPLINE">
    <path class="cls-1" d="M178.54,165.1c-2.45,0-4.55-.85-6.31-2.56"/>
  </g>
  <g id="SPLINE-37" data-name="SPLINE">
    <path class="cls-1" d="M172.23,162.54c-1.71-1.76-2.56-3.87-2.56-6.31"/>
  </g>
  <g id="LINE-21" data-name="LINE">
    <line class="cls-1" x1="187.5" y1="37.65" x2="187.5" y2="156.23"/>
  </g>
  <g id="SPLINE-38" data-name="SPLINE">
    <path class="cls-1" d="M338.16,3.11c-1.61.06-3.19.69-4.43,1.85"/>
  </g>
  <g id="SPLINE-39" data-name="SPLINE">
    <path class="cls-1" d="M333.73,4.96c-31.63,29.78-69.76,51.8-111.37,64.3"/>
  </g>
  <g id="SPLINE-40" data-name="SPLINE">
    <path class="cls-1" d="M222.36,69.26c-2.89.87-4.86,3.53-4.86,6.54"/>
  </g>
  <g id="SPLINE-41" data-name="SPLINE">
    <path class="cls-1" d="M217.5,117.9c0,3.01,1.98,5.67,4.86,6.54"/>
  </g>
  <g id="SPLINE-42" data-name="SPLINE">
    <path class="cls-1" d="M222.36,124.45c41.61,12.5,79.74,34.52,111.37,64.3"/>
  </g>
  <g id="SPLINE-43" data-name="SPLINE">
    <path class="cls-1" d="M333.73,188.74c2.2,2.07,5.49,2.45,8.1.94"/>
  </g>
  <g id="LINE-22" data-name="LINE">
    <line class="cls-1" x1="217.5" y1="75.8" x2="217.5" y2="117.9"/>
  </g>
  <g id="SPLINE-44" data-name="SPLINE">
    <path class="cls-1" d="M378.29,168.64c2.61-1.51,3.93-4.55,3.23-7.48"/>
  </g>
  <g id="SPLINE-45" data-name="SPLINE">
    <path class="cls-1" d="M381.52,161.15c-9.98-42.29-9.98-86.31,0-128.6"/>
  </g>
  <g id="SPLINE-46" data-name="SPLINE">
    <path class="cls-1" d="M381.52,32.55c.69-2.93-.62-5.98-3.23-7.48"/>
  </g>
  <g id="LINE-23" data-name="LINE">
    <line class="cls-1" x1="341.83" y1="189.69" x2="378.29" y2="168.64"/>
  </g>
  <g id="SPLINE-47" data-name="SPLINE">
    <path class="cls-1" d="M341.83,4.02c-1.14-.66-2.42-.96-3.67-.91"/>
  </g>
  <g id="LINE-24" data-name="LINE">
    <line class="cls-1" x1="378.29" y1="25.07" x2="341.83" y2="4.02"/>
  </g>
  <g id="SPLINE-48" data-name="SPLINE">
    <path class="cls-1" d="M345.9,25.72c1.1.03,2.21.32,3.23.91"/>
  </g>
  <g id="SPLINE-49" data-name="SPLINE">
    <path class="cls-1" d="M355.05,30.05c3.27,1.89,4.38,6.06,2.5,9.33"/>
  </g>
  <g id="LINE-25" data-name="LINE">
    <line class="cls-1" x1="349.14" y1="26.64" x2="355.05" y2="30.05"/>
  </g>
  <g id="SPLINE-50" data-name="SPLINE">
    <path class="cls-1" d="M337.17,74.67c-1.25,2.17-1.22,4.85.09,6.99"/>
  </g>
  <g id="SPLINE-51" data-name="SPLINE">
    <path class="cls-1" d="M337.27,81.66c5.73,9.32,5.73,21.07,0,30.39"/>
  </g>
  <g id="SPLINE-52" data-name="SPLINE">
    <path class="cls-1" d="M337.27,112.05c-1.31,2.14-1.35,4.82-.09,6.99"/>
  </g>
  <g id="LINE-26" data-name="LINE">
    <line class="cls-1" x1="357.55" y1="39.38" x2="337.17" y2="74.67"/>
  </g>
  <g id="SPLINE-53" data-name="SPLINE">
    <path class="cls-1" d="M357.55,154.32c1.89,3.27.77,7.44-2.5,9.33"/>
  </g>
  <g id="LINE-27" data-name="LINE">
    <line class="cls-1" x1="337.17" y1="119.03" x2="357.55" y2="154.32"/>
  </g>
  <g id="SPLINE-54" data-name="SPLINE">
    <path class="cls-1" d="M349.14,167.07c-3.27,1.89-7.44.77-9.33-2.5"/>
  </g>
  <g id="LINE-28" data-name="LINE">
    <line class="cls-1" x1="355.05" y1="163.65" x2="349.14" y2="167.07"/>
  </g>
  <g id="SPLINE-55" data-name="SPLINE">
    <path class="cls-1" d="M319.43,129.28c-1.25-2.17-3.6-3.48-6.1-3.41"/>
  </g>
  <g id="SPLINE-56" data-name="SPLINE">
    <path class="cls-1" d="M313.33,125.87c-10.93.3-21.11-5.57-26.31-15.19"/>
  </g>
  <g id="SPLINE-57" data-name="SPLINE">
    <path class="cls-1" d="M287.02,110.67c-1.19-2.2-3.5-3.58-6-3.58"/>
  </g>
  <g id="LINE-29" data-name="LINE">
    <line class="cls-1" x1="339.81" y1="164.57" x2="319.43" y2="129.28"/>
  </g>
  <g id="SPLINE-58" data-name="SPLINE">
    <path class="cls-1" d="M240.26,107.1c-3.77,0-6.83-3.06-6.83-6.83"/>
  </g>
  <g id="LINE-30" data-name="LINE">
    <line class="cls-1" x1="281.01" y1="107.1" x2="240.26" y2="107.1"/>
  </g>
  <g id="SPLINE-59" data-name="SPLINE">
    <path class="cls-1" d="M233.43,93.44c0-3.77,3.06-6.83,6.83-6.83"/>
  </g>
  <g id="LINE-31" data-name="LINE">
    <line class="cls-1" x1="233.43" y1="100.27" x2="233.43" y2="93.44"/>
  </g>
  <g id="SPLINE-60" data-name="SPLINE">
    <path class="cls-1" d="M281.01,86.61c2.51,0,4.81-1.37,6-3.58"/>
  </g>
  <g id="SPLINE-61" data-name="SPLINE">
    <path class="cls-1" d="M287.02,83.03c5.21-9.62,15.38-15.49,26.31-15.19"/>
  </g>
  <g id="SPLINE-62" data-name="SPLINE">
    <path class="cls-1" d="M313.33,67.84c2.51.07,4.85-1.24,6.1-3.41"/>
  </g>
  <g id="LINE-32" data-name="LINE">
    <line class="cls-1" x1="240.26" y1="86.61" x2="281.01" y2="86.61"/>
  </g>
  <g id="SPLINE-63" data-name="SPLINE">
    <path class="cls-1" d="M339.81,29.14c1.3-2.25,3.68-3.48,6.1-3.41"/>
  </g>
  <g id="LINE-33" data-name="LINE">
    <line class="cls-1" x1="319.43" y1="64.43" x2="339.81" y2="29.14"/>
  </g>
</svg>