0
SECTION
2
HEADER
9
$INSUNITS
70
4
9
$ACADVER
1
AC1014
9
$HANDSEED
5
FFFF
0
ENDSEC
0
SECTION
2
TABLES
0
TABLE
2
VPORT
5
8
100
AcDbSymbolTable
0
ENDTAB
0
TABLE
2
LTYPE
5
5
100
AcDbSymbolTable
0
LTYPE
5
14
100
AcDbSymbolTableRecord
100
AcDbLinetypeTableRecord
2
BYBLOCK
70
0
0
LTYPE
5
15
100
AcDbSymbolTableRecord
100
AcDbLinetypeTableRecord
2
BYLAYER
70
0
0
ENDTAB
0
TABLE
2
LAYER
5
2
100
AcDbSymbolTable
70
2
0
LAYER
5
50
100
AcDbSymbolTableRecord
100
AcDbLayerTableRecord
2
0
70
0
6
CONTINUOUS
0
ENDTAB
0
TABLE
2
STYLE
5
3
100
AcDbSymbolTable
70
1
0
STYLE
5
11
100
AcDbSymbolTableRecord
100
AcDbTextStyleTableRecord
2
STANDARD
70
0
0
ENDTAB
0
TABLE
2
VIEW
5
6
100
AcDbSymbolTable
70
0
0
ENDTAB
0
TABLE
2
UCS
5
7
100
AcDbSymbolTable
70
0
0
ENDTAB
0
TABLE
2
APPID
5
9
100
AcDbSymbolTable
70
2
0
APPID
5
12
100
AcDbSymbolTableRecord
100
AcDbRegAppTableRecord
2
ACAD
70
0
0
ENDTAB
0
TABLE
2
DIMSTYLE
5
A
100
AcDbSymbolTable
70
1
0
ENDTAB
0
TABLE
2
BLOCK_RECORD
5
1
100
AcDbSymbolTable
70
1
0
BLOCK_RECORD
5
1F
100
AcDbSymbolTableRecord
100
AcDbBlockTableRecord
2
*MODEL_SPACE
0
BLOCK_RECORD
5
1B
100
AcDbSymbolTableRecord
100
AcDbBlockTableRecord
2
*PAPER_SPACE
0
ENDTAB
0
ENDSEC
0
SECTION
2
BLOCKS
0
BLOCK
5
20
100
AcDbEntity
100
AcDbBlockBegin
2
*MODEL_SPACE
0
ENDBLK
5
21
100
AcDbEntity
100
AcDbBlockEnd
0
BLOCK
5
1C
100
AcDbEntity
100
AcDbBlockBegin
2
*PAPER_SPACE
0
ENDBLK
5
1D
100
AcDbEntity
100
AcDbBlockEnd
0
ENDSEC
0
SECTION
2
ENTITIES
0
LWPOLYLINE
5
100
100
AcDbEntity
8
0
100
AcDbPolyline
90
3
70
1
43
0.0
10
159.09532921380168
20
147.49896260273789
10
149.89033375102861
20
167.88925566250569
10
141.09532087288639
20
147.40146902916979
0
CIRCLE
5
101
100
AcDbEntity
8
0
100
AcDbCircle
10
150.07074844547031
20
170.48551142639468
30
-2.7755575615628914e-16
40
2.6250000000000067
210
0
220
0
230
1
0
CIRCLE
5
102
100
AcDbEntity
8
0
100
AcDbCircle
10
150.09036510618327
20
114.53499076238668
30
0
40
2.6249999999999978
210
0
220
0
230
1
0
LWPOLYLINE
5
103
100
AcDbEntity
8
0
100
AcDbPolyline
90
3
70
1
43
0.0
10
141.08955958875333
20
176.27572217095349
10
150.16212032999087
20
173.1537615656589
10
159.08954561490401
20
176.28541821180644
0
LWPOLYLINE
5
104
100
AcDbEntity
8
0
100
AcDbPolyline
90
3
70
1
43
0.0
10
159.10343326079499
20
108.83940462956818
10
149.84816535917165
20
111.89262915981578
10
141.10360531008931
20
108.66732760856472
0
SPLINE
5
105
100
AcDbEntity
8
0
100
AcDbSpline
70
0
71
3
72
8
73
4
74
0
42
0.000000001
43
0.0000000001
44
0.0000000001
40
0
40
0
40
0
40
0
40
1
40
1
40
1
40
1
10
396.64998640511948
20
655.08569552090091
30
8.8817841970012523e-15
10
392.50794940511952
20
655.08569552090091
30
0
10
389.10316040511941
20
651.68090552090109
30
8.8817841970012523e-15
10
389.10316040511941
20
647.53887952090099
30
8.8817841970012523e-15
0
SPLINE
5
106
100
AcDbEntity
8
0
100
AcDbSpline
70
0
71
3
72
8
73
4
74
0
42
0.000000001
43
0.0000000001
44
0.0000000001
40
0
40
0
40
0
40
0
40
1
40
1
40
1
40
1
10
389.10316040511952
20
596.41434152090108
30
8.8817841970012523e-15
10
389.10316040511941
20
592.27231652090109
30
8.8817841970012523e-15
10
392.50794940511946
20
588.86752552090104
30
1.7763568394002505e-14
10
396.64998640511948
20
588.86752552090104
30
1.7763568394002505e-14
0
LINE
5
107
100
AcDbEntity
8
0
100
AcDbLine
10
389.10316040511941
20
647.53887952090099
30
8.8817841970012523e-15
11
389.10316040511941
21
596.41434152090096
31
9.9920072216264089e-15
0
SPLINE
5
108
100
AcDbEntity
8
0
100
AcDbSpline
70
0
71
3
72
8
73
4
74
0
42
0.000000001
43
0.0000000001
44
0.0000000001
40
0
40
0
40
0
40
0
40
1
40
1
40
1
40
1
10
501.63324240511946
20
588.86752552090104
30
1.7763568394002505e-14
10
499.87594340511941
20
590.43594952090109
30
1.7763568394002505e-14
10
498.06343440511938
20
591.93542252090106
30
1.7763568394002505e-14
10
496.2010164051195
20
593.36544252090096
30
1.7763568394002505e-14
0
LINE
5
109
100
AcDbEntity
8
0
100
AcDbLine
10
396.64998640511948
20
588.86752552090104
30
1.7763568394002505e-14
11
501.6332424051194
21
588.86752552090104
31
1.7694179454963432e-14
0
SPLINE
5
110
100
AcDbEntity
8
0
100
AcDbSpline
70
0
71
3
72
8
73
4
74
0
42
0.000000001
43
0.0000000001
44
0.0000000001
40
0
40
0
40
0
40
0
40
1
40
1
40
1
40
1
10
396.64998640511953
20
593.36544252090096
30
8.8817841970012523e-15
10
394.92199340511945
20
593.36544252090096
30
1.7763568394002505e-14
10
393.60107640511944
20
594.68634752090099
30
8.8817841970012523e-15
10
393.60107640511944
20
596.41434152090108
30
1.7763568394002505e-14
0
LINE
5
111
100
AcDbEntity
8
0
100
AcDbLine
10
496.2010164051195
20
593.36544252090096
30
1.7763568394002505e-14
11
396.64998640511953
21
593.36544252090096
31
1.7867651802561113e-14
0
SPLINE
5
112
100
AcDbEntity
8
0
100
AcDbSpline
70
0
71
3
72
8
73
4
74
0
42
0.000000001
43
0.0000000001
44
0.0000000001
40
0
40
0
40
0
40
0
40
1
40
1
40
1
40
1
10
393.60107640511944
20
647.53887952090099
30
8.8817841970012523e-15
10
393.60107640511944
20
649.26687352090096
30
1.7763568394002505e-14
10
394.92199340511945
20
650.58777952090099
30
8.8817841970012523e-15
10
396.64998640511948
20
650.58777952090111
30
8.8817841970012523e-15
0
LINE
5
113
100
AcDbEntity
8
0
100
AcDbLine
10
393.60107640511944
20
596.41434152090108
30
1.7763568394002505e-14
11
393.60107640511944
21
647.53887952090099
31
1.6653345369377348e-14
0
SPLINE
5
114
100
AcDbEntity
8
0
100
AcDbSpline
70
0
71
3
72
8
73
4
74
0
42
0.000000001
43
0.0000000001
44
0.0000000001
40
0
40
0
40
0
40
0
40
1
40
1
40
1
40
1
10
496.20050040511944
20
650.58777952090099
30
8.8817841970012523e-15
10
498.06289940511942
20
652.01779952090101
30
-8.8817841970012523e-15
10
499.87544140511943
20
653.51732552090095
30
8.8817841970012523e-15
10
501.6327264051194
20
655.08569552090091
30
8.8817841970012523e-15
0
LINE
5
115
100
AcDbEntity
8
0
100
AcDbLine
10
396.64998640511948
20
650.58777952090111
30
8.8817841970012523e-15
11
496.20050040511944
21
650.58777952090111
31
8.7777007884426439e-15
0
LINE
5
116
100
AcDbEntity
8
0
100
AcDbLine
10
501.6327264051194
20
655.08569552090091
30
8.8817841970012523e-15
11
396.64998640511948
21
655.08569552090091
31
8.9858676055598607e-15
0
SPLINE
5
117
100
AcDbEntity
8
0
100
AcDbSpline
70
0
71
3
72
8
73
4
74
0
42
0.000000001
43
0.0000000001
44
0.0000000001
40
0
40
0
40
0
40
0
40
1
40
1
40
1
40
1
10
530.08835240511939
20
650.58777952090099
30
8.8817841970012523e-15
10
531.81634540511948
20
650.58777952090099
30
8.8817841970012523e-15
10
533.13726240511949
20
649.26687352090084
30
1.7763568394002505e-14
10
533.13726240511949
20
647.53887952090099
30
8.8817841970012523e-15
0
LINE
5
118
100
AcDbEntity
8
0
100
AcDbLine
10
522.41750440511942
20
650.58777952090099
30
8.8817841970012523e-15
11
530.08835240511939
21
650.58777952090099
31
8.8752789839663393e-15
0
LINE
5
119
100
AcDbEntity
8
0
100
AcDbLine
10
514.62676340511939
20
655.08569552090091
30
0
11
522.41750440511942
21
650.58777952090099
31
8.8817841970012523e-15
0
SPLINE
5
120
100
AcDbEntity
8
0
100
AcDbSpline
70
0
71
3
72
8
73
4
74
0
42
0.000000001
43
0.0000000001
44
0.0000000001
40
0
40
0
40
0
40
0
40
1
40
1
40
1
40
1
10
533.13726240511949
20
596.41434152090119
30
1.7763568394002505e-14
10
533.13726240511937
20
594.68634752090099
30
8.8817841970012523e-15
10
531.81634540511948
20
593.36544252090096
30
1.7763568394002505e-14
10
530.08835240511939
20
593.36544252090096
30
1.7763568394002505e-14
0
LINE
5
121
100
AcDbEntity
8
0
100
AcDbLine
10
533.13726240511949
20
647.53887952090099
30
8.8817841970012523e-15
11
533.13726240511949
21
596.41434152090096
31
9.9920072216264089e-15
0
SPLINE
5
122
100
AcDbEntity
8
0
100
AcDbSpline
70
0
71
3
72
8
73
4
74
0
42
0.000000001
43
0.0000000001
44
0.0000000001
40
0
40
0
40
0
40
0
40
1
40
1
40
1
40
1
10
530.08835240511939
20
588.86752552090104
30
1.7763568394002505e-14
10
534.23039040511946
20
588.86752552090104
30
1.7763568394002505e-14
10
537.6351784051194
20
592.27231652090109
30
8.8817841970012523e-15
10
537.6351784051194
20
596.41434152090119
30
1.7763568394002505e-14
0
LINE
5
123
100
AcDbEntity
8
0
100
AcDbLine
10
514.62676340511939
20
588.86752552090104
30
1.7763568394002505e-14
11
530.08835240511939
21
588.86752552090104
31
1.7750557967932679e-14
0
LINE
5
124
100
AcDbEntity
8
0
100
AcDbLine
10
530.08835240511939
20
593.36544252090096
30
1.7763568394002505e-14
11
522.41750440511942
21
593.36544252090096
31
1.7770073607037418e-14
0
LINE
5
125
100
AcDbEntity
8
0
100
AcDbLine
10
522.41750440511942
20
593.36544252090096
30
1.7770073607037418e-14
11
514.62676340511939
21
588.86752552090104
31
1.7763568394002505e-14
0
SPLINE
5
126
100
AcDbEntity
8
0
100
AcDbSpline
70
0
71
3
72
8
73
4
74
0
42
0.000000001
43
0.0000000001
44
0.0000000001
40
0
40
0
40
0
40
0
40
1
40
1
40
1
40
1
10
537.6351784051194
20
647.53887952090099
30
8.8817841970012523e-15
10
537.6351784051194
20
651.68090552090109
30
8.8817841970012523e-15
10
534.23039040511946
20
655.08569552090091
30
8.8817841970012523e-15
10
530.08835240511939
20
655.08569552090091
30
8.8817841970012523e-15
0
LINE
5
127
100
AcDbEntity
8
0
100
AcDbLine
10
537.6351784051194
20
596.41434152090119
30
1.7763568394002505e-14
11
537.6351784051194
21
647.53887952090111
31
1.6653345369377348e-14
0
SPLINE
5
128
100
AcDbEntity
8
0
100
AcDbSpline
70
0
71
3
72
8
73
4
74
0
42
0.000000001
43
0.0000000001
44
0.0000000001
40
0
40
0
40
0
40
0
40
1
40
1
40
1
40
1
10
417.65279940511948
20
597.8996065209011
30
8.8817841970012523e-15
10
416.24830240511949
20
597.89960652090099
30
0
10
415.27518740511942
20
598.57175452090098
30
1.7763568394002505e-14
10
414.73345340511941
20
599.91604952090108
30
8.8817841970012523e-15
0
LINE
5
129
100
AcDbEntity
8
0
100
AcDbLine
10
530.08835240511939
20
655.08569552090091
30
8.8817841970012523e-15
11
514.62676340511939
21
655.08569552090091
31
0
0
SPLINE
5
130
100
AcDbEntity
8
0
100
AcDbSpline
70
0
71
3
72
8
73
4
74
0
42
0.000000001
43
0.0000000001
44
0.0000000001
40
0
40
0
40
0
40
0
40
1
40
1
40
1
40
1
10
398.57171040511946
20
641.23835652090111
30
1.7763568394002505e-14
10
398.33093940511947
20
641.86033952090099
30
8.8817841970012523e-15
10
398.21055440511947
20
642.40207352090113
30
2.6645352591003757e-14
10
398.21055440511947
20
642.86355952090094
30
0
0
SPLINE
5
131
100
AcDbEntity
8
0
100
AcDbSpline
70
0
71
3
72
8
73
4
74
0
42
0.000000001
43
0.0000000001
44
0.0000000001
40
0
40
0
40
0
40
0
40
1
40
1
40
1
40
1
10
398.21055440511947
20
642.86355952090094
30
0
10
398.21055440511947
20
643.30497352090106
30
2.6645352591003757e-14
10
398.29081140511948
20
643.71628552090101
30
8.8817841970012523e-15
10
398.45132440511946
20
644.09749752090079
30
0
0
SPLINE
5
132
100
AcDbEntity
8
0
100
AcDbSpline
70
0
71
3
72
8
73
4
74
0
42
0.000000001
43
0.0000000001
44
0.0000000001
40
0
40
0
40
0
40
0
40
1
40
1
40
1
40
1
10
398.45132440511946
20
644.09749752090079
30
0
10
398.61183840511944
20
644.49878152090093
30
8.8817841970012523e-15
10
398.8325454051195
20
644.83987352090082
30
8.8817841970012523e-15
10
399.11344440511948
20
645.12077352090114
30
8.8817841970012523e-15
0
SPLINE
5
133
100
AcDbEntity
8
0
100
AcDbSpline
70
0
71
3
72
8
73
4
74
0
42
0.000000001
43
0.0000000001
44
0.0000000001
40
0
40
0
40
0
40
0
40
1
40
1
40
1
40
1
10
399.11344440511948
20
645.12077352090114
30
8.8817841970012523e-15
10
399.4144084051195
20
645.42174552090103
30
0
10
399.75550040511951
20
645.65248852090099
30
0
10
400.13672040511943
20
645.81300252090114
30
1.7763568394002505e-14
0
SPLINE
5
134
100
AcDbEntity
8
0
100
AcDbSpline
70
0
71
3
72
8
73
4
74
0
42
0.000000001
43
0.0000000001
44
0.0000000001
40
0
40
0
40
0
40
0
40
1
40
1
40
1
40
1
10
400.13672040511943
20
645.81300252090114
30
1.7763568394002505e-14
10
400.51794140511947
20
645.97351652090094
30
0
10
400.93929040511938
20
646.0537735209009
30
1.7763568394002505e-14
10
401.40076740511944
20
646.05377352090102
30
1.7763568394002505e-14
0
SPLINE
5
135
100
AcDbEntity
8
0
100
AcDbSpline
70
0
71
3
72
8
73
4
74
0
42
0.000000001
43
0.0000000001
44
0.0000000001
40
0
40
0
40
0
40
0
40
1
40
1
40
1
40
1
10
401.40076740511944
20
646.05377352090102
30
1.7763568394002505e-14
10
402.80526440511949
20
646.05377352090102
30
1.7763568394002505e-14
10
403.78841140511946
20
645.42174552090103
30
0
10
404.35021040511947
20
644.15768952090104
30
2.6645352591003757e-14
0
LINE
5
136
100
AcDbEntity
8
0
100
AcDbLine
10
414.73345340511941
20
599.91604952090108
30
8.8817841970012523e-15
11
398.57171040511946
21
641.23835652090088
31
8.3266726846886741e-15
0
SPLINE
5
137
100
AcDbEntity
8
0
100
AcDbSpline
70
0
71
3
72
8
73
4
74
0
42
0.000000001
43
0.0000000001
44
0.0000000001
40
0
40
0
40
0
40
0
40
1
40
1
40
1
40
1
10
430.9553874051195
20
644.15768952090116
30
2.6645352591003757e-14
10
431.43692940511937
20
645.42174552090103
30
0
10
432.42007740511946
20
646.0537735209009
30
2.6645352591003757e-14
10
433.90483040511947
20
646.0537735209009
30
1.7763568394002505e-14
0
SPLINE
5
138
100
AcDbEntity
8
0
100
AcDbSpline
70
0
71
3
72
8
73
4
74
0
42
0.000000001
43
0.0000000001
44
0.0000000001
40
0
40
0
40
0
40
0
40
1
40
1
40
1
40
1
10
433.90483040511947
20
646.0537735209009
30
1.7763568394002505e-14
10
434.34624340511948
20
646.0537735209009
30
1.7763568394002505e-14
10
434.75756040511942
20
645.97351652090094
30
0
10
435.13878140511952
20
645.81300252090114
30
1.7763568394002505e-14
0
SPLINE
5
139
100
AcDbEntity
8
0
100
AcDbSpline
70
0
71
3
72
8
73
4
74
0
42
0.000000001
43
0.0000000001
44
0.0000000001
40
0
40
0
40
0
40
0
40
1
40
1
40
1
40
1
10
435.13878140511952
20
645.81300252090114
30
1.7763568394002505e-14
10
435.54006540511944
20
645.65248852090099
30
0
10
435.88115740511955
20
645.42174552090103
30
0
10
436.16205740511941
20
645.12077352090114
30
1.7763568394002505e-14
0
SPLINE
5
140
100
AcDbEntity
8
0
100
AcDbSpline
70
0
71
3
72
8
73
4
74
0
42
0.000000001
43
0.0000000001
44
0.0000000001
40
0
40
0
40
0
40
0
40
1
40
1
40
1
40
1
10
436.16205740511941
20
645.12077352090114
30
1.7763568394002505e-14
10
436.46302040511944
20
644.83987352090082
30
8.8817841970012523e-15
10
436.69375940511947
20
644.49878152090105
30
8.8817841970012523e-15
10
436.85427340511944
20
644.09749752090079
30
0
0
SPLINE
5
141
100
AcDbEntity
8
0
100
AcDbSpline
70
0
71
3
72
8
73
4
74
0
42
0.000000001
43
0.0000000001
44
0.0000000001
40
0
40
0
40
0
40
0
40
1
40
1
40
1
40
1
10
436.85427340511944
20
644.09749752090079
30
0
10
437.01478740511936
20
643.71628552090101
30
1.7763568394002505e-14
10
437.09504440511944
20
643.30497352090094
30
1.7763568394002505e-14
10
437.09504440511944
20
642.86355952090094
30
0
0
SPLINE
5
142
100
AcDbEntity
8
0
100
AcDbSpline
70
0
71
3
72
8
73
4
74
0
42
0.000000001
43
0.0000000001
44
0.0000000001
40
0
40
0
40
0
40
0
40
1
40
1
40
1
40
1
10
437.09504440511944
20
642.86355952090094
30
0
10
437.09504440511949
20
642.34188952090096
30
1.7763568394002505e-14
10
436.97465840511938
20
641.80015552090117
30
0
10
436.73388740511945
20
641.23835652090111
30
8.8817841970012523e-15
0
LINE
5
143
100
AcDbEntity
8
0
100
AcDbLine
10
417.65279940511948
20
609.93814852090111
30
8.8817841970012523e-15
11
430.95538740511938
21
644.15768952090104
31
7.7715611723760958e-15
0
LINE
5
144
100
AcDbEntity
8
0
100
AcDbLine
10
404.35021040511947
20
644.15768952090104
30
2.6645352591003757e-14
11
417.65279940511948
21
609.93814852090111
31
8.8817841970012523e-15
0
SPLINE
5
145
100
AcDbEntity
8
0
100
AcDbSpline
70
0
71
3
72
8
73
4
74
0
42
0.000000001
43
0.0000000001
44
0.0000000001
40
0
40
0
40
0
40
0
40
1
40
1
40
1
40
1
10
420.5721454051195
20
599.91604952090108
30
0
10
420.03041140511948
20
598.57175452090098
30
1.7763568394002505e-14
10
419.05729540511948
20
597.89960652090099
30
1.7763568394002505e-14
10
417.65279940511948
20
597.8996065209011
30
8.8817841970012523e-15
0
LINE
5
146
100
AcDbEntity
8
0
100
AcDbLine
10
436.73388740511945
20
641.23835652090111
30
8.8817841970012523e-15
11
420.57214540511944
21
599.9160495209012
31
9.9920072216264089e-15
0
SPLINE
5
147
100
AcDbEntity
8
0
100
AcDbSpline
70
0
71
3
72
8
73
4
74
0
42
0.000000001
43
0.0000000001
44
0.0000000001
40
0
40
0
40
0
40
0
40
1
40
1
40
1
40
1
10
447.89963540511951
20
638.49957552090109
30
1.7763568394002505e-14
10
447.29770840511947
20
638.29893252090108
30
8.8817841970012523e-15
10
446.66568440511952
20
638.06819852090109
30
1.7763568394002505e-14
10
446.00356540511945
20
637.80737252090103
30
8.8817841970012523e-15
0
SPLINE
5
148
100
AcDbEntity
8
0
100
AcDbSpline
70
0
71
3
72
8
73
4
74
0
42
0.000000001
43
0.0000000001
44
0.0000000001
40
0
40
0
40
0
40
0
40
1
40
1
40
1
40
1
10
446.00356540511945
20
637.80737252090103
30
8.8817841970012523e-15
10
445.34144540511943
20
637.56660152090114
30
1.7763568394002505e-14
10
444.73951840511944
20
637.44621652090086
30
-8.8817841970012523e-15
10
444.19778340511948
20
637.44621652090086
30
-8.8817841970012523e-15
0
SPLINE
5
149
100
AcDbEntity
8
0
100
AcDbSpline
70
0
71
3
72
8
73
4
74
0
42
0.000000001
43
0.0000000001
44
0.0000000001
40
0
40
0
40
0
40
0
40
1
40
1
40
1
40
1
10
444.19778340511948
20
637.44621652090086
30
-8.8817841970012523e-15
10
443.29489340511947
20
637.44621652090086
30
-8.8817841970012523e-15
10
442.54248440511947
20
637.73714352090087
30
0
10
441.94055740511948
20
638.31899752090089
30
0
0
SPLINE
5
150
100
AcDbEntity
8
0
100
AcDbSpline
70
0
71
3
72
8
73
4
74
0
42
0.000000001
43
0.0000000001
44
0.0000000001
40
0
40
0
40
0
40
0
40
1
40
1
40
1
40
1
10
441.94055740511948
20
638.31899752090089
30
0
10
441.35869440511948
20
638.92092452090105
30
8.8817841970012523e-15
10
441.06776240511942
20
639.67333752090087
30
0
10
441.06776240511942
20
640.57623652090115
30
1.7763568394002505e-14
0
SPLINE
5
151
100
AcDbEntity
8
0
100
AcDbSpline
70
0
71
3
72
8
73
4
74
0
42
0.000000001
43
0.0000000001
44
0.0000000001
40
0
40
0
40
0
40
0
40
1
40
1
40
1
40
1
10
441.06776240511942
20
640.57623652090115
30
1.7763568394002505e-14
10
441.06776240511948
20
641.21829252090095
30
1.7763568394002505e-14
10
441.22827640511946
20
641.79011852090082
30
0
10
441.54930440511947
20
642.29171552090088
30
0
0
SPLINE
5
152
100
AcDbEntity
8
0
100
AcDbSpline
70
0
71
3
72
8
73
4
74
0
42
0.000000001
43
0.0000000001
44
0.0000000001
40
0
40
0
40
0
40
0
40
1
40
1
40
1
40
1
10
441.54930440511947
20
642.29171552090088
30
0
10
441.89039640511953
20
642.79333052090101
30
8.8817841970012523e-15
10
442.40203440511942
20
643.20465152090094
30
8.8817841970012523e-15
10
443.08421840511937
20
643.52567952090101
30
0
0
LINE
5
153
100
AcDbEntity
8
0
100
AcDbLine
10
447.89963540511951
20
601.02962752090104
30
1.7763568394002505e-14
11
447.89963540511951
21
638.49957552090109
31
1.7208456881689926e-14
0
SPLINE
5
154
100
AcDbEntity
8
0
100
AcDbSpline
70
0
71
3
72
8
73
4
74
0
42
0.000000001
43
0.0000000001
44
0.0000000001
40
0
40
0
40
0
40
0
40
1
40
1
40
1
40
1
10
449.97628340511937
20
645.81300252090114
30
1.7763568394002505e-14
10
450.33744040511948
20
645.95344352090081
30
0
10
450.69859640511942
20
646.02366352090087
30
-8.8817841970012523e-15
10
451.05975240511947
20
646.02366352090098
30
-8.8817841970012523e-15
0
SPLINE
5
155
100
AcDbEntity
8
0
100
AcDbSpline
70
0
71
3
72
8
73
4
74
0
42
0.000000001
43
0.0000000001
44
0.0000000001
40
0
40
0
40
0
40
0
40
1
40
1
40
1
40
1
10
451.05975240511947
20
646.02366352090098
30
-8.8817841970012523e-15
10
451.96264340511948
20
646.02366352090098
30
-8.8817841970012523e-15
10
452.7050194051194
20
645.71267252090081
30
-8.8817841970012523e-15
10
453.28688240511946
20
645.09069052090103
30
1.7763568394002505e-14
0
SPLINE
5
156
100
AcDbEntity
8
0
100
AcDbSpline
70
0
71
3
72
8
73
4
74
0
42
0.000000001
43
0.0000000001
44
0.0000000001
40
0
40
0
40
0
40
0
40
1
40
1
40
1
40
1
10
453.28688240511946
20
645.09069052090103
30
1.7763568394002505e-14
10
453.88880940511945
20
644.48876252090099
30
0
10
454.18977340511947
20
643.74638652090107
30
1.7763568394002505e-14
10
454.18977340511947
20
642.86355952090094
30
-8.8817841970012523e-15
0
LINE
5
157
100
AcDbEntity
8
0
100
AcDbLine
10
443.08421840511937
20
643.52567952090101
30
0
11
449.97628340511937
21
645.81300252090091
31
-6.9388939039072284e-17
0
SPLINE
5
158
100
AcDbEntity
8
0
100
AcDbSpline
70
0
71
3
72
8
73
4
74
0
42
0.000000001
43
0.0000000001
44
0.0000000001
40
0
40
0
40
0
40
0
40
1
40
1
40
1
40
1
10
454.18977340511947
20
601.02962752090104
30
8.8817841970012523e-15
10
454.18977340511952
20
600.16685652090109
30
1.7763568394002505e-14
10
453.87877740511948
20
599.42447952090106
30
1.7763568394002505e-14
10
453.25678640511944
20
598.80249752090106
30
1.7763568394002505e-14
0
SPLINE
5
159
100
AcDbEntity
8
0
100
AcDbSpline
70
0
71
3
72
8
73
4
74
0
42
0.000000001
43
0.0000000001
44
0.0000000001
40
0
40
0
40
0
40
0
40
1
40
1
40
1
40
1
10
453.25678640511944
20
598.80249752090106
30
1.7763568394002505e-14
10
452.65485940511945
20
598.20057052090101
30
8.8817841970012523e-15
10
451.91248240511948
20
597.8996065209011
30
1.7763568394002505e-14
10
451.02965640511945
20
597.8996065209011
30
8.8817841970012523e-15
0
SPLINE
5
160
100
AcDbEntity
8
0
100
AcDbSpline
70
0
71
3
72
8
73
4
74
0
42
0.000000001
43
0.0000000001
44
0.0000000001
40
0
40
0
40
0
40
0
40
1
40
1
40
1
40
1
10
451.02965640511945
20
597.8996065209011
30
8.8817841970012523e-15
10
450.16689440511936
20
597.8996065209011
30
8.8817841970012523e-15
10
449.42451740511945
20
598.2005705209009
30
1.7763568394002505e-14
10
448.80252540511947
20
598.80249752090106
30
1.7763568394002505e-14
0
SPLINE
5
161
100
AcDbEntity
8
0
100
AcDbSpline
70
0
71
3
72
8
73
4
74
0
42
0.000000001
43
0.0000000001
44
0.0000000001
40
0
40
0
40
0
40
0
40
1
40
1
40
1
40
1
10
448.80252540511947
20
598.80249752090106
30
1.7763568394002505e-14
10
448.20059840511942
20
599.42447952090106
30
1.7763568394002505e-14
10
447.8996354051194
20
600.16685652090109
30
1.7763568394002505e-14
10
447.89963540511951
20
601.02962752090104
30
1.7763568394002505e-14
0
LINE
5
162
100
AcDbEntity
8
0
100
AcDbLine
10
454.18977340511947
20
642.86355952090094
30
-8.8817841970012523e-15
11
454.18977340511947
21
601.02962752090093
31
-8.3266726846886741e-15
0
SPLINE
5
163
100
AcDbEntity
8
0
100
AcDbSpline
70
0
71
3
72
8
73
4
74
0
42
0.000000001
43
0.0000000001
44
0.0000000001
40
0
40
0
40
0
40
0
40
1
40
1
40
1
40
1
10
507.33988940511944
20
655.04772852090105
30
0
10
506.77119440511945
20
655.02656152090117
30
1.7763568394002505e-14
10
506.2132674051195
20
654.80465552090095
30
1.7763568394002505e-14
10
505.77771040511942
20
654.39452452090097
30
1.7763568394002505e-14
0
SPLINE
5
164
100
AcDbEntity
8
0
100
AcDbSpline
70
0
71
3
72
8
73
4
74
0
42
0.000000001
43
0.0000000001
44
0.0000000001
40
0
40
0
40
0
40
0
40
1
40
1
40
1
40
1
10
505.77771040511942
20
654.39452452090097
30
1.7763568394002505e-14
10
494.61861740511938
20
643.88757652090078
30
1.7763568394002505e-14
10
481.16799440511949
20
636.12126252090081
30
0
10
466.48914940511952
20
631.71063152090096
30
0
0
SPLINE
5
165
100
AcDbEntity
8
0
100
AcDbSpline
70
0
71
3
72
8
73
4
74
0
42
0.000000001
43
0.0000000001
44
0.0000000001
40
0
40
0
40
0
40
0
40
1
40
1
40
1
40
1
10
466.48914940511952
20
631.71063152090096
30
0
10
465.47063540511942
20
631.40458752090103
30
8.8817841970012523e-15
10
464.77298240511942
20
630.46682552090101
30
1.7763568394002505e-14
10
464.77298240511942
20
629.40327952090104
30
8.8817841970012523e-15
0
SPLINE
5
166
100
AcDbEntity
8
0
100
AcDbSpline
70
0
71
3
72
8
73
4
74
0
42
0.000000001
43
0.0000000001
44
0.0000000001
40
0
40
0
40
0
40
0
40
1
40
1
40
1
40
1
10
464.77298240511942
20
614.54994152090103
30
2.6645352591003757e-14
10
464.77298240511942
20
613.48639652090117
30
8.8817841970012523e-15
10
465.47063540511937
20
612.54865952090108
30
2.6645352591003757e-14
10
466.48914940511941
20
612.24258952090111
30
8.8817841970012523e-15
0
SPLINE
5
167
100
AcDbEntity
8
0
100
AcDbSpline
70
0
71
3
72
8
73
4
74
0
42
0.000000001
43
0.0000000001
44
0.0000000001
40
0
40
0
40
0
40
0
40
1
40
1
40
1
40
1
10
466.48914940511941
20
612.24258952090111
30
8.8817841970012523e-15
10
481.16799440511949
20
607.83198552090107
30
1.7763568394002505e-14
10
494.61861740511944
20
600.06614752090104
30
1.7763568394002505e-14
10
505.77771040511948
20
589.55919952090107
30
1.7763568394002505e-14
0
SPLINE
5
168
100
AcDbEntity
8
0
100
AcDbSpline
70
0
71
3
72
8
73
4
74
0
42
0.000000001
43
0.0000000001
44
0.0000000001
40
0
40
0
40
0
40
0
40
1
40
1
40
1
40
1
10
505.77771040511948
20
589.55919952090107
30
1.7763568394002505e-14
10
506.55206640511943
20
588.83013952090096
30
8.8817841970012523e-15
10
507.71326940511938
20
588.69462052090103
30
1.7763568394002505e-14
10
508.63436340511947
20
589.22640652090115
30
1.7763568394002505e-14
0
LINE
5
169
100
AcDbEntity
8
0
100
AcDbLine
10
464.77298240511942
20
629.40327952090104
30
8.8817841970012523e-15
11
464.77298240511942
21
614.54994152090092
31
8.6042284408449632e-15
0
SPLINE
5
170
100
AcDbEntity
8
0
100
AcDbSpline
70
0
71
3
72
8
73
4
74
0
42
0.000000001
43
0.0000000001
44
0.0000000001
40
0
40
0
40
0
40
0
40
1
40
1
40
1
40
1
10
521.49766440511939
20
596.653339520901
30
1.7763568394002505e-14
10
522.41873240511939
20
597.18509952090108
30
1.7763568394002505e-14
10
522.8824404051195
20
598.25785252090111
30
1.7763568394002505e-14
10
522.63817740511945
20
599.29298152090109
30
8.8817841970012523e-15
0
SPLINE
5
171
100
AcDbEntity
8
0
100
AcDbSpline
70
0
71
3
72
8
73
4
74
0
42
0.000000001
43
0.0000000001
44
0.0000000001
40
0
40
0
40
0
40
0
40
1
40
1
40
1
40
1
10
522.63817740511945
20
599.29298152090109
30
8.8817841970012523e-15
10
519.11845140511946
20
614.21053452090109
30
8.8817841970012523e-15
10
519.11845140511946
20
629.74268752090097
30
8.8817841970012523e-15
10
522.63817740511945
20
644.66023952090063
30
-8.8817841970012523e-15
0
SPLINE
5
172
100
AcDbEntity
8
0
100
AcDbSpline
70
0
71
3
72
8
73
4
74
0
42
0.000000001
43
0.0000000001
44
0.0000000001
40
0
40
0
40
0
40
0
40
1
40
1
40
1
40
1
10
522.63817740511945
20
644.66023952090063
30
-8.8817841970012523e-15
10
522.88244040511938
20
645.69536852090096
30
8.8817841970012523e-15
10
522.41873240511939
20
646.76809552090106
30
1.7763568394002505e-14
10
521.49766440511928
20
647.29988152090084
30
0
0
LINE
5
173
100
AcDbEntity
8
0
100
AcDbLine
10
508.63436340511947
20
589.22640652090115
30
1.7763568394002505e-14
11
521.49766440511951
21
596.65333952090111
31
1.7763568394002505e-14
0
SPLINE
5
174
100
AcDbEntity
8
0
100
AcDbSpline
70
0
71
3
72
8
73
4
74
0
42
0.000000001
43
0.0000000001
44
0.0000000001
40
0
40
0
40
0
40
0
40
1
40
1
40
1
40
1
10
508.63436340511947
20
654.72681552090103
30
2.6645352591003757e-14
10
508.23140340511947
20
654.95946352090084
30
1.7763568394002505e-14
10
507.78219340511941
20
655.06426452090113
30
1.7763568394002505e-14
10
507.33988940511944
20
655.04772852090105
30
0
0
LINE
5
175
100
AcDbEntity
8
0
100
AcDbLine
10
521.49766440511928
20
647.29988152090084
30
0
11
508.6343634051193
21
654.72681552090091
31
0
0
SPLINE
5
176
100
AcDbEntity
8
0
100
AcDbSpline
70
0
71
3
72
8
73
4
74
0
42
0.000000001
43
0.0000000001
44
0.0000000001
40
0
40
0
40
0
40
0
40
1
40
1
40
1
40
1
10
510.0720034051194
20
647.06940252090112
30
8.8817841970012523e-15
10
510.46038540511944
20
647.05934852090093
30
1.7763568394002505e-14
10
510.85188940511944
20
646.95536752090095
30
8.8817841970012523e-15
10
511.21198740511943
20
646.74745752090087
30
0
0
SPLINE
5
177
100
AcDbEntity
8
0
100
AcDbSpline
70
0
71
3
72
8
73
4
74
0
42
0.000000001
43
0.0000000001
44
0.0000000001
40
0
40
0
40
0
40
0
40
1
40
1
40
1
40
1
10
513.29867640511929
20
645.54286252090128
30
8.8817841970012523e-15
10
514.45101640511939
20
644.87756852090092
30
0
10
514.84558940511943
20
643.40391852090102
30
1.7763568394002505e-14
10
514.18029540511941
20
642.25160552090097
30
8.8817841970012523e-15
0
LINE
5
178
100
AcDbEntity
8
0
100
AcDbLine
10
511.21198740511943
20
646.74745752090087
30
0
11
513.29867640511941
21
645.54286252090105
31
-1.7347234759768071e-17
0
SPLINE
5
179
100
AcDbEntity
8
0
100
AcDbSpline
70
0
71
3
72
8
73
4
74
0
42
0.000000001
43
0.0000000001
44
0.0000000001
40
0
40
0
40
0
40
0
40
1
40
1
40
1
40
1
10
506.99262440511939
20
629.80221852090108
30
1.7763568394002505e-14
10
506.55053140511944
20
629.03643452090103
30
8.8817841970012523e-15
10
506.56315240511947
20
628.08967652090098
30
1.7763568394002505e-14
10
507.02569740511939
20
627.33622252090095
30
8.8817841970012523e-15
0
SPLINE
5
180
100
AcDbEntity
8
0
100
AcDbSpline
70
0
71
3
72
8
73
4
74
0
42
0.000000001
43
0.0000000001
44
0.0000000001
40
0
40
0
40
0
40
0
40
1
40
1
40
1
40
1
10
507.02569740511939
20
627.33622252090095
30
8.8817841970012523e-15
10
509.04536740511935
20
624.04853652090105
30
8.8817841970012523e-15
10
509.04536740511946
20
619.90468552090101
30
8.8817841970012523e-15
10
507.02569740511939
20
616.61699952090112
30
1.7763568394002505e-14
0
SPLINE
5
181
100
AcDbEntity
8
0
100
AcDbSpline
70
0
71
3
72
8
73
4
74
0
42
0.000000001
43
0.0000000001
44
0.0000000001
40
0
40
0
40
0
40
0
40
1
40
1
40
1
40
1
10
507.02569740511939
20
616.61699952090112
30
1.7763568394002505e-14
10
506.56283540511936
20
615.86357152090102
30
2.6645352591003757e-14
10
506.55016140511941
20
614.91728952090102
30
8.8817841970012523e-15
10
506.99262440511944
20
614.15150552090097
30
2.6645352591003757e-14
0
LINE
5
182
100
AcDbEntity
8
0
100
AcDbLine
10
514.18029540511941
20
642.25160552090097
30
8.8817841970012523e-15
11
506.99262440511944
21
629.80221852090108
31
9.1593399531575415e-15
0
SPLINE
5
183
100
AcDbEntity
8
0
100
AcDbSpline
70
0
71
3
72
8
73
4
74
0
42
0.000000001
43
0.0000000001
44
0.0000000001
40
0
40
0
40
0
40
0
40
1
40
1
40
1
40
1
10
514.18029540511941
20
601.7016165209011
30
8.8817841970012523e-15
10
514.84558940511943
20
600.54930252090094
30
1.7763568394002505e-14
10
514.45101640511939
20
599.07618252090106
30
1.7763568394002505e-14
10
513.29867640511941
20
598.41086152090111
30
8.8817841970012523e-15
0
LINE
5
184
100
AcDbEntity
8
0
100
AcDbLine
10
506.99262440511944
20
614.15150552090097
30
2.6645352591003757e-14
11
514.18029540511941
21
601.7016165209011
31
2.6922908347160046e-14
0
SPLINE
5
185
100
AcDbEntity
8
0
100
AcDbSpline
70
0
71
3
72
8
73
4
74
0
42
0.000000001
43
0.0000000001
44
0.0000000001
40
0
40
0
40
0
40
0
40
1
40
1
40
1
40
1
10
511.21198740511949
20
597.20629252090112
30
8.8817841970012523e-15
10
510.05964740511945
20
596.5409975209011
30
1.7763568394002505e-14
10
508.58599740511943
20
596.93554452090109
30
1.7763568394002505e-14
10
507.92072940511952
20
598.08788452090107
30
1.7763568394002505e-14
0
LINE
5
186
100
AcDbEntity
8
0
100
AcDbLine
10
513.29867640511941
20
598.41086152090111
30
8.8817841970012523e-15
11
511.21198740511943
21
597.20629252090112
31
8.8991314317610204e-15
0
SPLINE
5
187
100
AcDbEntity
8
0
100
AcDbSpline
70
0
71
3
72
8
73
4
74
0
42
0.000000001
43
0.0000000001
44
0.0000000001
40
0
40
0
40
0
40
0
40
1
40
1
40
1
40
1
10
500.73305840511944
20
610.53724452090091
30
1.7763568394002505e-14
10
500.29088740511941
20
611.30305452090113
30
8.8817841970012523e-15
10
499.46467240511942
20
611.76544052090105
30
1.7763568394002505e-14
10
498.58072640511944
20
611.74131052090104
30
1.7763568394002505e-14
0
SPLINE
5
188
100
AcDbEntity
8
0
100
AcDbSpline
70
0
71
3
72
8
73
4
74
0
42
0.000000001
43
0.0000000001
44
0.0000000001
40
0
40
0
40
0
40
0
40
1
40
1
40
1
40
1
10
498.58072640511944
20
611.74131052090104
30
1.7763568394002505e-14
10
494.72363040511937
20
611.63608552090102
30
1.7763568394002505e-14
10
491.13498040511945
20
613.70774652090086
30
8.8817841970012523e-15
10
489.2975814051195
20
617.10068352090116
30
1.7763568394002505e-14
0
SPLINE
5
189
100
AcDbEntity
8
0
100
AcDbSpline
70
0
71
3
72
8
73
4
74
0
42
0.000000001
43
0.0000000001
44
0.0000000001
40
0
40
0
40
0
40
0
40
1
40
1
40
1
40
1
10
489.2975814051195
20
617.10068352090116
30
1.7763568394002505e-14
10
488.87652440511943
20
617.87826752090086
30
1.7763568394002505e-14
10
488.06364440511948
20
618.36261452090093
30
1.7763568394002505e-14
10
487.17935440511945
20
618.36261452090093
30
1.7763568394002505e-14
0
LINE
5
190
100
AcDbEntity
8
0
100
AcDbLine
10
507.92072940511952
20
598.08788452090107
30
1.7763568394002505e-14
11
500.73305840511949
21
610.53724452090091
31
1.7763568394002505e-14
0
SPLINE
5
191
100
AcDbEntity
8
0
100
AcDbSpline
70
0
71
3
72
8
73
4
74
0
42
0.000000001
43
0.0000000001
44
0.0000000001
40
0
40
0
40
0
40
0
40
1
40
1
40
1
40
1
10
472.80401240511941
20
618.36261452090093
30
1.7763568394002505e-14
10
471.47342240511938
20
618.36261452090093
30
1.7763568394002505e-14
10
470.3943194051194
20
619.44169052090115
30
1.7763568394002505e-14
10
470.39431940511946
20
620.77228052090095
30
8.8817841970012523e-15
0
LINE
5
192
100
AcDbEntity
8
0
100
AcDbLine
10
487.17935440511945
20
618.36261452090093
30
1.7763568394002505e-14
11
472.80401240511941
21
618.36261452090093
31
1.7772242011382389e-14
0
SPLINE
5
193
100
AcDbEntity
8
0
100
AcDbSpline
70
0
71
3
72
8
73
4
74
0
42
0.000000001
43
0.0000000001
44
0.0000000001
40
0
40
0
40
0
40
0
40
1
40
1
40
1
40
1
10
470.3943194051194
20
623.1814435209011
30
8.8817841970012523e-15
10
470.39431940511946
20
624.5120335209009
30
-8.8817841970012523e-15
10
471.47342240511944
20
625.59060752090102
30
0
10
472.80401240511935
20
625.59060752090102
30
0
0
LINE
5
194
100
AcDbEntity
8
0
100
AcDbLine
10
470.39431940511946
20
620.77228052090095
30
8.8817841970012523e-15
11
470.39431940511946
21
623.18144352090098
31
8.8817841970012523e-15
0
SPLINE
5
195
100
AcDbEntity
8
0
100
AcDbSpline
70
0
71
3
72
8
73
4
74
0
42
0.000000001
43
0.0000000001
44
0.0000000001
40
0
40
0
40
0
40
0
40
1
40
1
40
1
40
1
10
487.1793544051194
20
625.59060752090102
30
0
10
488.06364440511948
20
625.59060752090102
30
0
10
488.87652440511943
20
626.07495352090086
30
0
10
489.29758140511944
20
626.85253752090102
30
8.8817841970012523e-15
0
SPLINE
5
196
100
AcDbEntity
8
0
100
AcDbSpline
70
0
71
3
72
8
73
4
74
0
42
0.000000001
43
0.0000000001
44
0.0000000001
40
0
40
0
40
0
40
0
40
1
40
1
40
1
40
1
10
489.29758140511944
20
626.85253752090102
30
8.8817841970012523e-15
10
491.13498040511945
20
630.24547452090098
30
0
10
494.72363040511942
20
632.31766552090096
30
0
10
498.58072640511944
20
632.21241352090101
30
0
0
SPLINE
5
197
100
AcDbEntity
8
0
100
AcDbSpline
70
0
71
3
72
8
73
4
74
0
42
0.000000001
43
0.0000000001
44
0.0000000001
40
0
40
0
40
0
40
0
40
1
40
1
40
1
40
1
10
498.58072640511944
20
632.21241352090101
30
0
10
499.46467240511942
20
632.18833652090109
30
2.6645352591003757e-14
10
500.29088740511946
20
632.65019352090098
30
8.8817841970012523e-15
10
500.73305840511944
20
633.41597652090081
30
8.8817841970012523e-15
0
LINE
5
198
100
AcDbEntity
8
0
100
AcDbLine
10
472.80401240511935
20
625.59060752090102
30
0
11
487.1793544051194
21
625.59060752090102
31
-8.6736173798840355e-18
0
SPLINE
5
199
100
AcDbEntity
8
0
100
AcDbSpline
70
0
71
3
72
8
73
4
74
0
42
0.000000001
43
0.0000000001
44
0.0000000001
40
0
40
0
40
0
40
0
40
1
40
1
40
1
40
1
10
507.92072940511946
20
645.86533752090099
30
8.8817841970012523e-15
10
508.3780884051194
20
646.65757952090098
30
0
10
509.21761140511944
20
647.09160152090112
30
0
10
510.0720034051194
20
647.06940252090112
30
8.8817841970012523e-15
0
LINE
5
200
100
AcDbEntity
8
0
100
AcDbLine
10
500.73305840511944
20
633.41597652090081
30
8.8817841970012523e-15
11
507.92072940511946
21
645.86533752090077
31
8.3266726846886741e-15
0
ENDSEC
0
SECTION
2
OBJECTS
0
DICTIONARY
5
C
100
AcDbDictionary
3
ACAD_GROUP
350
D
3
ACAD_MLINESTYLE
350
17
0
DICTIONARY
5
D
100
AcDbDictionary
0
DICTIONARY
5
1A
330
C
100
AcDbDictionary
0
DICTIONARY
5
17
100
AcDbDictionary
0
ENDSEC
0
EOF
