0
SECTION
2
HEADER
9
$INSUNITS
70
4
9
$ACADVER
1
AC1014
9
$HANDSEED
5
FFFF
0
ENDSEC
0
SECTION
2
TABLES
0
TABLE
2
VPORT
5
8
100
AcDbSymbolTable
0
ENDTAB
0
TABLE
2
LTYPE
5
5
100
AcDbSymbolTable
0
LTYPE
5
14
100
AcDbSymbolTableRecord
100
AcDbLinetypeTableRecord
2
BYBLOCK
70
0
0
LTYPE
5
15
100
AcDbSymbolTableRecord
100
AcDbLinetypeTableRecord
2
BYLAYER
70
0
0
ENDTAB
0
TABLE
2
LAYER
5
2
100
AcDbSymbolTable
70
2
0
LAYER
5
50
100
AcDbSymbolTableRecord
100
AcDbLayerTableRecord
2
0
70
0
6
CONTINUOUS
0
ENDTAB
0
TABLE
2
STYLE
5
3
100
AcDbSymbolTable
70
1
0
STYLE
5
11
100
AcDbSymbolTableRecord
100
AcDbTextStyleTableRecord
2
STANDARD
70
0
0
ENDTAB
0
TABLE
2
VIEW
5
6
100
AcDbSymbolTable
70
0
0
ENDTAB
0
TABLE
2
UCS
5
7
100
AcDbSymbolTable
70
0
0
ENDTAB
0
TABLE
2
APPID
5
9
100
AcDbSymbolTable
70
2
0
APPID
5
12
100
AcDbSymbolTableRecord
100
AcDbRegAppTableRecord
2
ACAD
70
0
0
ENDTAB
0
TABLE
2
DIMSTYLE
5
A
100
AcDbSymbolTable
70
1
0
ENDTAB
0
TABLE
2
BLOCK_RECORD
5
1
100
AcDbSymbolTable
70
1
0
BLOCK_RECORD
5
1F
100
AcDbSymbolTableRecord
100
AcDbBlockTableRecord
2
*MODEL_SPACE
0
BLOCK_RECORD
5
1B
100
AcDbSymbolTableRecord
100
AcDbBlockTableRecord
2
*PAPER_SPACE
0
ENDTAB
0
ENDSEC
0
SECTION
2
BLOCKS
0
BLOCK
5
20
100
AcDbEntity
100
AcDbBlockBegin
2
*MODEL_SPACE
0
ENDBLK
5
21
100
AcDbEntity
100
AcDbBlockEnd
0
BLOCK
5
1C
100
AcDbEntity
100
AcDbBlockBegin
2
*PAPER_SPACE
0
ENDBLK
5
1D
100
AcDbEntity
100
AcDbBlockEnd
0
ENDSEC
0
SECTION
2
ENTITIES
0
LWPOLYLINE
5
100
100
AcDbEntity
8
0
100
AcDbPolyline
90
8
70
1
43
0.0
10
-74.867523103616023
20
20
10
582.23247689638401
20
19.999999999999972
42
-0.41421356237309503
10
590.23247689638401
20
12
10
590.23247689638401
20
-349.82500000000005
42
-0.41421356237309503
10
582.23247689638401
20
-357.82499999999999
10
-74.867523103616094
20
-357.82499999999999
42
-0.41421356237309243
10
-82.867523103616037
20
-349.82500000000005
10
-82.867523103616037
20
12
42
-0.41421356237309503
0
CIRCLE
5
101
100
AcDbEntity
8
0
100
AcDbCircle
10
-44.767523103616028
20
-18.100000000000001
30
0
40
2.7500000000000013
210
0
220
0
230
1
0
CIRCLE
5
102
100
AcDbEntity
8
0
100
AcDbCircle
10
85.407476896383969
20
10
30
0
40
2.7500000000000084
210
0
220
0
230
1
0
CIRCLE
5
103
100
AcDbEntity
8
0
100
AcDbCircle
10
421.95747689638392
20
10
30
0
40
2.7499999999999893
210
0
220
0
230
1
0
CIRCLE
5
104
100
AcDbEntity
8
0
100
AcDbCircle
10
-44.767523103616028
20
-18.100000000000001
30
0
40
6.25
210
0
220
0
230
1
0
CIRCLE
5
105
100
AcDbEntity
8
0
100
AcDbCircle
10
253.68247689638397
20
10
30
0
40
2.7499999999999858
210
0
220
0
230
1
0
LINE
5
106
100
AcDbEntity
8
0
100
AcDbLine
10
254.62126810220084
20
20
30
0
11
254.93343178671796
21
-357.82499999999999
31
0
0
LINE
5
107
100
AcDbEntity
8
0
100
AcDbLine
10
-82.867523103616051
20
-169.35653531080862
30
0
11
590.23247689638401
21
-168.41585429436194
31
0
0
CIRCLE
5
108
100
AcDbEntity
8
0
100
AcDbCircle
10
554.07260790540943
20
-17.605230882730194
30
0
40
6.25
210
0
220
0
230
1
0
CIRCLE
5
109
100
AcDbEntity
8
0
100
AcDbCircle
10
554.07260790540943
20
-17.605230882730194
30
0
40
2.7500000000000013
210
0
220
0
230
1
0
CIRCLE
5
110
100
AcDbEntity
8
0
100
AcDbCircle
10
-44.344900058030433
20
-320.5059878004476
30
0
40
6.25
210
0
220
0
230
1
0
CIRCLE
5
111
100
AcDbEntity
8
0
100
AcDbCircle
10
-44.344900058030433
20
-320.5059878004476
30
0
40
2.7500000000000013
210
0
220
0
230
1
0
CIRCLE
5
112
100
AcDbEntity
8
0
100
AcDbCircle
10
85.90813278305454
20
-348.24203042911461
30
0
40
2.7500000000000084
210
0
220
0
230
1
0
CIRCLE
5
113
100
AcDbEntity
8
0
100
AcDbCircle
10
254.18247546687095
20
-347.77169083951401
30
0
40
2.7499999999999858
210
0
220
0
230
1
0
CIRCLE
5
114
100
AcDbEntity
8
0
100
AcDbCircle
10
422.45681815068707
20
-347.30135124991318
30
0
40
2.7499999999999893
210
0
220
0
230
1
0
CIRCLE
5
115
100
AcDbEntity
8
0
100
AcDbCircle
10
-44.767523103616028
20
-169.30328921553803
30
0
40
2.7500000000000036
210
0
220
0
230
1
0
CIRCLE
5
116
100
AcDbEntity
8
0
100
AcDbCircle
10
-44.767523103616028
20
-169.30328921553803
30
0
40
6.2500000000000036
210
0
220
0
230
1
0
CIRCLE
5
117
100
AcDbEntity
8
0
100
AcDbCircle
10
554.32245978737888
20
-168.80831366755547
30
0
40
6.2500000000000036
210
0
220
0
230
1
0
CIRCLE
5
118
100
AcDbEntity
8
0
100
AcDbCircle
10
554.32245978737888
20
-168.80831366755547
30
0
40
2.7500000000000036
210
0
220
0
230
1
0
CIRCLE
5
119
100
AcDbEntity
8
0
100
AcDbCircle
10
554.49427467224905
20
-319.32695779916145
30
0
40
2.7500000000000013
210
0
220
0
230
1
0
CIRCLE
5
120
100
AcDbEntity
8
0
100
AcDbCircle
10
554.49427467224905
20
-319.32695779916145
30
0
40
6.25
210
0
220
0
230
1
0
CIRCLE
5
121
100
AcDbEntity
8
0
100
AcDbCircle
10
85.407476896383969
20
10
30
0
40
6.2499999999999964
210
0
220
0
230
1
0
CIRCLE
5
122
100
AcDbEntity
8
0
100
AcDbCircle
10
253.68247689638397
20
10
30
0
40
6.2499999999999982
210
0
220
0
230
1
0
CIRCLE
5
123
100
AcDbEntity
8
0
100
AcDbCircle
10
421.95747689638392
20
10
30
0
40
6.2499999999999716
210
0
220
0
230
1
0
CIRCLE
5
124
100
AcDbEntity
8
0
100
AcDbCircle
10
85.90813278305454
20
-348.24203042911461
30
0
40
6.2499999999999964
210
0
220
0
230
1
0
CIRCLE
5
125
100
AcDbEntity
8
0
100
AcDbCircle
10
254.18247546687095
20
-347.77169083951401
30
0
40
6.2499999999999982
210
0
220
0
230
1
0
CIRCLE
5
126
100
AcDbEntity
8
0
100
AcDbCircle
10
422.45681815068707
20
-347.30135124991318
30
0
40
6.2499999999999716
210
0
220
0
230
1
0
ENDSEC
0
SECTION
2
OBJECTS
0
DICTIONARY
5
C
100
AcDbDictionary
3
ACAD_GROUP
350
D
3
ACAD_MLINESTYLE
350
17
0
DICTIONARY
5
D
100
AcDbDictionary
0
DICTIONARY
5
1A
330
C
100
AcDbDictionary
0
DICTIONARY
5
17
100
AcDbDictionary
0
ENDSEC
0
EOF
