0
SECTION
2
HEADER
9
$INSUNITS
70
4
9
$ACADVER
1
AC1014
9
$HANDSEED
5
FFFF
0
ENDSEC
0
SECTION
2
TABLES
0
TABLE
2
VPORT
5
8
100
AcDbSymbolTable
0
ENDTAB
0
TABLE
2
LTYPE
5
5
100
AcDbSymbolTable
0
LTYPE
5
14
100
AcDbSymbolTableRecord
100
AcDbLinetypeTableRecord
2
BYBLOCK
70
0
0
LTYPE
5
15
100
AcDbSymbolTableRecord
100
AcDbLinetypeTableRecord
2
BYLAYER
70
0
0
ENDTAB
0
TABLE
2
LAYER
5
2
100
AcDbSymbolTable
70
2
0
LAYER
5
50
100
AcDbSymbolTableRecord
100
AcDbLayerTableRecord
2
0
70
0
6
CONTINUOUS
0
ENDTAB
0
TABLE
2
STYLE
5
3
100
AcDbSymbolTable
70
1
0
STYLE
5
11
100
AcDbSymbolTableRecord
100
AcDbTextStyleTableRecord
2
STANDARD
70
0
0
ENDTAB
0
TABLE
2
VIEW
5
6
100
AcDbSymbolTable
70
0
0
ENDTAB
0
TABLE
2
UCS
5
7
100
AcDbSymbolTable
70
0
0
ENDTAB
0
TABLE
2
APPID
5
9
100
AcDbSymbolTable
70
2
0
APPID
5
12
100
AcDbSymbolTableRecord
100
AcDbRegAppTableRecord
2
ACAD
70
0
0
ENDTAB
0
TABLE
2
DIMSTYLE
5
A
100
AcDbSymbolTable
70
1
0
ENDTAB
0
TABLE
2
BLOCK_RECORD
5
1
100
AcDbSymbolTable
70
1
0
BLOCK_RECORD
5
1F
100
AcDbSymbolTableRecord
100
AcDbBlockTableRecord
2
*MODEL_SPACE
0
BLOCK_RECORD
5
1B
100
AcDbSymbolTableRecord
100
AcDbBlockTableRecord
2
*PAPER_SPACE
0
ENDTAB
0
ENDSEC
0
SECTION
2
BLOCKS
0
BLOCK
5
20
100
AcDbEntity
100
AcDbBlockBegin
2
*MODEL_SPACE
0
ENDBLK
5
21
100
AcDbEntity
100
AcDbBlockEnd
0
BLOCK
5
1C
100
AcDbEntity
100
AcDbBlockBegin
2
*PAPER_SPACE
0
ENDBLK
5
1D
100
AcDbEntity
100
AcDbBlockEnd
0
ENDSEC
0
SECTION
2
ENTITIES
0
LINE
5
100
100
AcDbEntity
8
0
100
AcDbLine
10
49.703510229144932
20
-47.294796312358407
30
0
11
40.641731855851944
21
-31.739304109490458
31
0
0
LINE
5
101
100
AcDbEntity
8
0
100
AcDbLine
10
16.781216481149791
20
-41.164045526922578
30
0
11
26.781216481149798
21
-41.164045526922557
31
0
0
LINE
5
102
100
AcDbEntity
8
0
100
AcDbLine
10
16.781216481149791
20
-54.164045526922578
30
0
11
19.281216481149791
21
-54.164045526922578
31
0
0
LINE
5
103
100
AcDbEntity
8
0
100
AcDbLine
10
16.781216481149791
20
-40.164045526922578
30
0
11
19.281216481149791
21
-40.164045526922578
31
0
0
LINE
5
104
100
AcDbEntity
8
0
100
AcDbLine
10
16.781216481149791
20
-53.164045526922578
30
0
11
19.281216481149791
21
-53.164045526922578
31
0
0
LINE
5
105
100
AcDbEntity
8
0
100
AcDbLine
10
16.781216481149791
20
-35.164045526922578
30
0
11
19.281216481149791
21
-35.164045526922578
31
0
0
LINE
5
106
100
AcDbEntity
8
0
100
AcDbLine
10
16.781216481149791
20
-51.164045526922578
30
0
11
26.781216481149798
21
-51.164045526922557
31
0
0
LINE
5
107
100
AcDbEntity
8
0
100
AcDbLine
10
16.781216481149791
20
-45.164045526922578
30
0
11
19.281216481149791
21
-45.164045526922578
31
0
0
LINE
5
108
100
AcDbEntity
8
0
100
AcDbLine
10
16.781216481149791
20
-43.164045526922578
30
0
11
19.281216481149791
21
-43.164045526922578
31
0
0
LINE
5
109
100
AcDbEntity
8
0
100
AcDbLine
10
16.781216481149791
20
-48.164045526922578
30
0
11
19.281216481149791
21
-48.164045526922578
31
0
0
LINE
5
110
100
AcDbEntity
8
0
100
AcDbLine
10
16.781216481149791
20
-42.164045526922578
30
0
11
19.281216481149791
21
-42.164045526922578
31
0
0
LINE
5
111
100
AcDbEntity
8
0
100
AcDbLine
10
105.28557254918363
20
-32.155873371399935
30
0
11
105.28534447950835
21
-32.155873371399935
31
0
0
LINE
5
112
100
AcDbEntity
8
0
100
AcDbLine
10
83.167375439966818
20
-50.63898196107408
30
0
11
80.377969276383837
21
-55.384997868933922
31
0
0
LWPOLYLINE
5
113
100
AcDbEntity
8
0
100
AcDbPolyline
90
7
70
1
43
0.0
10
16.781216481149787
20
-78.521404839803296
10
16.781216481149791
20
18.835954473077425
10
112.03121648114981
20
18.835954473077425
42
-0.41421356237309503
10
118.38121648114979
20
12.485954473077445
10
118.38121648114979
20
-77.107191277430161
10
112.72436223165744
20
-82.764045526922573
10
21.023857168269068
20
-82.764045526922573
0
LINE
5
114
100
AcDbEntity
8
0
100
AcDbLine
10
16.781216481149791
20
-46.164045526922578
30
0
11
21.781216481149794
21
-46.164045526922578
31
0
0
LINE
5
115
100
AcDbEntity
8
0
100
AcDbLine
10
16.781216481149791
20
-37.164045526922578
30
0
11
19.281216481149791
21
-37.164045526922578
31
0
0
LINE
5
116
100
AcDbEntity
8
0
100
AcDbLine
10
16.781216481149791
20
-50.164045526922578
30
0
11
19.281216481149791
21
-50.164045526922578
31
0
0
LINE
5
117
100
AcDbEntity
8
0
100
AcDbLine
10
16.781216481149791
20
-47.164045526922578
30
0
11
19.281216481149791
21
-47.164045526922578
31
0
0
LINE
5
118
100
AcDbEntity
8
0
100
AcDbLine
10
16.781216481149791
20
-39.164045526922578
30
0
11
19.281216481149791
21
-39.164045526922578
31
0
0
LINE
5
119
100
AcDbEntity
8
0
100
AcDbLine
10
16.781216481149791
20
-34.164045526922578
30
0
11
19.281216481149791
21
-34.164045526922578
31
0
0
LINE
5
120
100
AcDbEntity
8
0
100
AcDbLine
10
16.781216481149791
20
-49.164045526922578
30
0
11
19.281216481149791
21
-49.164045526922578
31
0
0
LINE
5
121
100
AcDbEntity
8
0
100
AcDbLine
10
16.781216481149791
20
-36.164045526922578
30
0
11
21.781216481149794
21
-36.164045526922578
31
0
0
LINE
5
122
100
AcDbEntity
8
0
100
AcDbLine
10
16.781216481149791
20
-32.164045526922578
30
0
11
19.281216481149791
21
-32.164045526922578
31
0
0
LINE
5
123
100
AcDbEntity
8
0
100
AcDbLine
10
16.781216481149791
20
-55.164045526922578
30
0
11
19.281216481149791
21
-55.164045526922578
31
0
0
LINE
5
124
100
AcDbEntity
8
0
100
AcDbLine
10
85.041994135978456
20
-46.997621525461007
30
0
11
75.235454238039651
21
-31.467901195900332
31
0
0
ELLIPSE
5
125
100
AcDbEntity
8
0
100
AcDbEllipse
10
93.913963552120492
20
-31.960135957970088
30
0
11
-0.0036870497405697622
21
0.20658822440281782
31
0.0
40
0.96498138665633959
41
4.1481324200470961
42
5.2396597437650296
0
LINE
5
126
100
AcDbEntity
8
0
100
AcDbLine
10
54.253614285934319
20
-55.075165215058163
30
0
11
51.76708465113088
21
-50.771034303064567
31
0
0
LINE
5
127
100
AcDbEntity
8
0
100
AcDbLine
10
16.781216481149791
20
-38.164045526922578
30
0
11
19.281216481149791
21
-38.164045526922578
31
0
0
LINE
5
128
100
AcDbEntity
8
0
100
AcDbLine
10
16.781216481149791
20
-52.164045526922578
30
0
11
19.281216481149791
21
-52.164045526922578
31
0
0
LINE
5
129
100
AcDbEntity
8
0
100
AcDbLine
10
16.781216481149791
20
-44.164045526922578
30
0
11
19.281216481149791
21
-44.164045526922578
31
0
0
SPLINE
5
130
100
AcDbEntity
8
0
100
AcDbSpline
70
0
71
3
72
8
73
4
74
0
42
0.000000001
43
0.0000000001
44
0.0000000001
40
0.5
40
0.5
40
0.5
40
0.5
40
0.55000000000000004
40
0.55000000000000004
40
0.55000000000000004
40
0.55000000000000004
10
63.062463389335392
20
-50.474999864543584
30
0
10
63.170682450258496
20
-50.474657760030667
30
0
10
63.258033135892937
20
-50.38696496988328
30
0
10
63.258033135892937
20
-50.278859943797798
30
0
0
SPLINE
5
131
100
AcDbEntity
8
0
100
AcDbSpline
70
0
71
3
72
11
73
7
74
0
42
0.000000001
43
0.0000000001
44
0.0000000001
40
0.14999999999999999
40
0.14999999999999999
40
0.14999999999999999
40
0.14999999999999999
40
0.20000000000000001
40
0.20000000000000001
40
0.20000000000000001
40
0.25
40
0.25
40
0.25
40
0.25
10
54.423412159184593
20
-55.169357990951198
30
0
10
54.422841984996367
20
-55.169586060626486
30
0
10
54.421929706295217
20
-55.169586060626486
30
0
10
54.420789357918821
20
-55.169586060626486
30
0
10
54.352368455333071
20
-55.169586060626486
30
0
10
54.28885105076597
20
-55.13355105193132
30
0
10
54.253614285934319
20
-55.075165215058163
30
0
0
LINE
5
132
100
AcDbEntity
8
0
100
AcDbLine
10
51.93733866373173
20
-50.474657760030667
30
0
11
63.062463389335392
21
-50.474999864543584
31
0
0
LINE
5
133
100
AcDbEntity
8
0
100
AcDbLine
10
49.703510229144932
20
-47.294226138170188
30
0
11
49.703510229144932
21
-47.294796312358407
31
0
0
SPLINE
5
134
100
AcDbEntity
8
0
100
AcDbSpline
70
0
71
3
72
14
73
10
74
0
42
0.000000001
43
0.0000000001
44
0.0000000001
40
0.29999999999999999
40
0.29999999999999999
40
0.29999999999999999
40
0.29999999999999999
40
0.34999999999999998
40
0.34999999999999998
40
0.34999999999999998
40
0.40000000000000002
40
0.40000000000000002
40
0.40000000000000002
40
0.45000000000000001
40
0.45000000000000001
40
0.45000000000000001
40
0.45000000000000001
10
51.76708465113088
20
-50.771034303064567
30
0
10
51.748611007432721
20
-50.740929105926824
30
0
10
51.739032081070711
20
-50.705692341095165
30
0
10
51.739032081070711
20
-50.670227506588233
30
0
10
51.739032081070711
20
-50.562122480502758
30
0
10
51.826382766705173
20
-50.474657760030667
30
0
10
51.934259723115368
20
-50.474657760030667
30
0
10
51.935400071491785
20
-50.474657760030667
30
0
10
51.936312350192935
20
-50.474657760030667
30
0
10
51.93733866373173
20
-50.474657760030667
30
0
0
LINE
5
135
100
AcDbEntity
8
0
100
AcDbLine
10
63.258033135892937
20
-50.278859943797798
30
0
11
63.182542073373341
21
-35.134007191281924
31
0
0
SPLINE
5
136
100
AcDbEntity
8
0
100
AcDbSpline
70
0
71
3
72
14
73
10
74
0
42
0.000000001
43
0.0000000001
44
0.0000000001
40
0.63636363636363635
40
0.63636363636363635
40
0.63636363636363635
40
0.63636363636363635
40
0.72727272727272729
40
0.72727272727272729
40
0.72727272727272729
40
0.81818181818181823
40
0.81818181818181823
40
0.81818181818181823
40
0.90909090909090917
40
0.90909090909090917
40
0.90909090909090917
40
0.90909090909090917
10
50.082333959794674
20
-47.193761446206793
30
0
10
50.082333959794674
20
-47.194331620395012
30
0
10
50.082333959794674
20
-47.195471968771436
30
0
10
50.082333959794674
20
-47.196270212634943
30
0
10
50.082333959794674
20
-47.308138388362629
30
0
10
49.991790298706221
20
-47.398453979775788
30
0
10
49.880264227491445
20
-47.398453979775788
30
0
10
49.806825792049423
20
-47.398453979775788
30
0
10
49.739203133327187
20
-47.35865582143844
30
0
10
49.703510229144932
20
-47.294226138170188
30
0
0
SPLINE
5
137
100
AcDbEntity
8
0
100
AcDbSpline
70
0
71
3
72
11
73
7
74
0
42
0.000000001
43
0.0000000001
44
0.0000000001
40
0.60000000000000009
40
0.60000000000000009
40
0.60000000000000009
40
0.60000000000000009
40
0.65000000000000002
40
0.65000000000000002
40
0.65000000000000002
40
0.70000000000000007
40
0.70000000000000007
40
0.70000000000000007
40
0.70000000000000007
10
63.182542073373341
20
-35.134007191281924
30
0
10
63.183112247561567
20
-35.026472339384668
30
0
10
63.270576968033666
20
-34.939919897613706
30
0
10
63.378111819930908
20
-34.939919897613706
30
0
10
63.448813419269534
20
-34.939919897613706
30
0
10
63.513813276725983
20
-34.977893498548781
30
0
10
63.548365832531779
20
-35.039472310875972
30
0
0
SPLINE
5
138
100
AcDbEntity
8
0
100
AcDbSpline
70
0
71
3
72
11
73
7
74
0
42
0.000000001
43
0.0000000001
44
0.0000000001
40
0.30769230769230771
40
0.30769230769230771
40
0.30769230769230771
40
0.30769230769230771
40
0.38461538461538458
40
0.38461538461538458
40
0.38461538461538458
40
0.46153846153846162
40
0.46153846153846162
40
0.46153846153846162
40
0.46153846153846162
10
85.407817895136887
20
-46.991919783578872
30
0
10
85.369274120013586
20
-47.056691571360034
30
0
10
85.299142694863193
20
-47.097287973560896
30
0
10
85.222739353642453
20
-47.097287973560896
30
0
10
85.149528987875698
20
-47.097287973560896
30
0
10
85.081450189802879
20
-47.059770511976396
30
0
10
85.041994135978456
20
-46.997621525461007
30
0
0
ELLIPSE
5
139
100
AcDbEntity
8
0
100
AcDbEllipse
10
80.21070979611099
20
-55.296531911643349
30
0
11
0.17500394308016101
21
0.077496296499727071
31
0.0
40
0.98172126662185077
41
4.2878066296573305
42
5.3708540315285251
0
LINE
5
140
100
AcDbEntity
8
0
100
AcDbLine
10
67.581216481149781
20
-82.764045526922573
30
0
11
67.581216481149781
21
18.835954473077425
31
0
0
LINE
5
141
100
AcDbEntity
8
0
100
AcDbLine
10
50.34712285280149
20
-16.240829325443951
30
0
11
50.082333959794674
21
-47.193761446206793
31
0
0
SPLINE
5
142
100
AcDbEntity
8
0
100
AcDbSpline
70
0
71
3
72
17
73
13
74
0
42
0.000000001
43
0.0000000001
44
0.0000000001
40
0
40
0
40
0
40
0
40
0.25
40
0.25
40
0.25
40
0.5
40
0.5
40
0.5
40
0.75
40
0.75
40
0.75
40
1
40
1
40
1
40
1
10
97.93386060118354
20
-32.269452069692278
30
0
10
97.93386060118354
20
-15.739076039815174
30
0
10
84.527925087884228
20
-2.3329124568405923
30
0
10
67.997549058007166
20
-2.3329124568405923
30
0
10
51.466488819104192
20
-2.3329124568406101
30
0
10
38.060667340642532
20
-15.739076039815192
30
0
10
38.060667340642539
20
-32.269452069692299
30
0
10
38.060667340642539
20
-48.799600029894101
30
0
10
51.4664888191042
20
-62.205535543193406
30
0
10
67.997549058007181
20
-62.205535543193406
30
0
10
84.527925087884256
20
-62.205535543193406
30
0
10
97.93386060118354
20
-48.799600029894094
30
0
10
97.93386060118354
20
-32.269452069692278
30
0
0
LINE
5
143
100
AcDbEntity
8
0
100
AcDbLine
10
72.187531097520207
20
-50.247386328608385
30
0
11
82.997349497041242
21
-50.348079090247055
31
0
0
LINE
5
144
100
AcDbEntity
8
0
100
AcDbLine
10
94.084386586872185
20
-32.067610407064336
30
0
11
85.407817895136887
21
-46.991919783578872
31
0
0
LINE
5
145
100
AcDbEntity
8
0
100
AcDbLine
10
83.167603509642092
20
-50.638753891398792
30
0
11
83.167375439966818
21
-50.63898196107408
31
0
0
LINE
5
146
100
AcDbEntity
8
0
100
AcDbLine
10
112.72436223165744
20
-82.764045526922573
30
0
11
110.3765005567717
21
-82.764045526922573
31
0
0
SPLINE
5
147
100
AcDbEntity
8
0
100
AcDbSpline
70
0
71
3
72
15
73
11
74
0
42
0.000000001
43
0.0000000001
44
0.0000000001
40
0
40
0
40
0
40
0
40
0.20000000000000001
40
0.20000000000000001
40
0.40000000000000002
40
0.40000000000000002
40
0.40000000000000002
40
0.60000000000000009
40
0.60000000000000009
40
0.80000000000000004
40
0.80000000000000004
40
0.80000000000000004
40
0.80000000000000004
10
105.28545851434599
20
-32.155873371399935
30
0
10
105.28557254918363
20
-52.811915792359521
30
0
10
88.533740864604056
20
-69.563519407263868
30
0
10
47.221199883334329
20
-69.563519407263868
30
0
10
30.469368198754701
20
-52.811915792359528
30
0
10
30.469368198754701
20
-32.155873371399949
30
0
10
30.469368198754694
20
-11.499602880765121
30
0
10
47.221199883334322
20
5.2522288038145248
30
0
10
88.533740864604042
20
5.2522288038145426
30
0
10
105.28557254918363
20
-11.499602880765103
30
0
10
105.28545851434599
20
-32.155873371399935
30
0
0
ELLIPSE
5
148
100
AcDbEntity
8
0
100
AcDbEllipse
10
72.191981134930131
20
-50.048836622544059
30
0
11
0.14227406034649215
21
0.14104704945722094
31
0.0
40
0.98221997926546345
41
2.8649427678659904
42
3.9178791992981581
0
SPLINE
5
149
100
AcDbEntity
8
0
100
AcDbSpline
70
0
71
3
72
11
73
7
74
0
42
0.000000001
43
0.0000000001
44
0.0000000001
40
0.85000000000000009
40
0.85000000000000009
40
0.85000000000000009
40
0.85000000000000009
40
0.90000000000000002
40
0.90000000000000002
40
0.90000000000000002
40
0.94999999999999996
40
0.94999999999999996
40
0.94999999999999996
40
0.94999999999999996
10
82.997349497041242
20
-50.348079090247055
30
0
10
83.104884348938498
20
-50.348991368948184
30
0
10
83.191778895222399
20
-50.436684159095577
30
0
10
83.191778895222399
20
-50.544219010992833
30
0
10
83.191778895222399
20
-50.577175079071623
30
0
10
83.1835683869121
20
-50.609560972962214
30
0
10
83.167603509642092
20
-50.638753891398792
30
0
0
LINE
5
150
100
AcDbEntity
8
0
100
AcDbLine
10
112.0312164811498
20
18.835954473077425
30
0
11
112.0312164811498
21
12.485954473077426
31
0
0
LINE
5
151
100
AcDbEntity
8
0
100
AcDbLine
10
80.207943333458317
20
-55.485006421546757
30
0
11
54.423412159184593
21
-55.169357990951198
31
0
0
LINE
5
152
100
AcDbEntity
8
0
100
AcDbLine
10
16.781216481149791
20
-65.164045526922578
30
0
11
19.281216481149791
21
-65.164045526922578
31
0
0
LINE
5
153
100
AcDbEntity
8
0
100
AcDbLine
10
63.548365832531779
20
-35.039472310875972
30
0
11
72.017277084919357
21
-50.146351462456749
31
0
0
LINE
5
154
100
AcDbEntity
8
0
100
AcDbLine
10
102.50621648114979
20
18.835954473077425
30
0
11
102.50621648114979
21
15.660954473077426
31
0
0
LINE
5
155
100
AcDbEntity
8
0
100
AcDbLine
10
16.781216481149791
20
-72.164045526922564
30
0
11
19.281216481149791
21
-72.164045526922564
31
0
0
LINE
5
156
100
AcDbEntity
8
0
100
AcDbLine
10
48.531216481149784
20
18.835954473077425
30
0
11
48.531216481149798
21
12.485954473077426
31
0
0
LINE
5
157
100
AcDbEntity
8
0
100
AcDbLine
10
16.781216481149791
20
-63.164045526922585
30
0
11
19.281216481149791
21
-63.164045526922585
31
0
0
LINE
5
158
100
AcDbEntity
8
0
100
AcDbLine
10
23.131216481149792
20
18.835954473077425
30
0
11
23.131216481149796
21
12.485954473077426
31
0
0
LINE
5
159
100
AcDbEntity
8
0
100
AcDbLine
10
54.881216481149792
20
18.835954473077425
30
0
11
54.881216481149799
21
9.3109544730774285
31
0
0
LINE
5
160
100
AcDbEntity
8
0
100
AcDbLine
10
16.781216481149791
20
-73.164045526922592
30
0
11
19.281216481149791
21
-73.164045526922592
31
0
0
LINE
5
161
100
AcDbEntity
8
0
100
AcDbLine
10
118.38121648114979
20
12.485954473077445
30
0
11
118.38121648114979
21
9.3109544730774285
31
0
0
LINE
5
162
100
AcDbEntity
8
0
100
AcDbLine
10
118.38121648114979
20
-31.964045526922582
30
0
11
16.781216481149791
21
-31.964045526922568
31
0
0
LINE
5
163
100
AcDbEntity
8
0
100
AcDbLine
10
16.781216481149791
20
18.835954473077425
30
0
11
16.781216481149794
21
6.1359544730774243
31
0
0
LINE
5
164
100
AcDbEntity
8
0
100
AcDbLine
10
16.781216481149791
20
-33.164045526922578
30
0
11
19.281216481149791
21
-33.164045526922578
31
0
0
LINE
5
165
100
AcDbEntity
8
0
100
AcDbLine
10
29.48121648114979
20
18.835954473077425
30
0
11
29.481216481149794
21
9.3109544730774285
31
0
0
LINE
5
166
100
AcDbEntity
8
0
100
AcDbLine
10
62.633122225609874
20
-13.874606444353752
30
0
11
52.397697303296113
21
-13.87460644435377
31
0
0
LINE
5
167
100
AcDbEntity
8
0
100
AcDbLine
10
16.781216481149791
20
-67.164045526922564
30
0
11
19.281216481149791
21
-67.164045526922564
31
0
0
LINE
5
168
100
AcDbEntity
8
0
100
AcDbLine
10
92.981216481149787
20
18.835954473077425
30
0
11
92.981216481149787
21
6.1359544730774243
31
0
0
LINE
5
169
100
AcDbEntity
8
0
100
AcDbLine
10
54.5627627307842
20
-8.984108397200341
30
0
11
80.416056912156563
21
-8.984108397200341
31
0
0
LINE
5
170
100
AcDbEntity
8
0
100
AcDbLine
10
16.781216481149791
20
-58.164045526922578
30
0
11
19.281216481149791
21
-58.164045526922578
31
0
0
LINE
5
171
100
AcDbEntity
8
0
100
AcDbLine
10
42.181216481149789
20
18.835954473077425
30
0
11
42.181216481149796
21
6.1359544730774243
31
0
0
LINE
5
172
100
AcDbEntity
8
0
100
AcDbLine
10
35.831216481149788
20
18.835954473077425
30
0
11
35.831216481149795
21
12.485954473077426
31
0
0
LINE
5
173
100
AcDbEntity
8
0
100
AcDbLine
10
118.38121648114979
20
12.485954473077445
30
0
11
118.38121648114979
21
6.1359544730774243
31
0
0
ARC
5
174
100
AcDbEntity
8
0
100
AcDbCircle
10
16.782216481149788
20
-82.763045526922582
30
0
40
0.00099999999999988987
210
0
220
0
230
1
100
AcDbArc
50
180
51
270
0
LINE
5
175
100
AcDbEntity
8
0
100
AcDbLine
10
18.423857168269066
20
-80.164045526922578
30
0
11
19.281216481149791
21
-80.164045526922578
31
0
0
LINE
5
176
100
AcDbEntity
8
0
100
AcDbLine
10
16.781216481149791
20
-15.164045526922578
30
0
11
19.281216481149791
21
-15.164045526922578
31
0
0
SPLINE
5
177
100
AcDbEntity
8
0
100
AcDbSpline
70
0
71
3
72
8
73
4
74
0
42
0.000000001
43
0.0000000001
44
0.0000000001
40
0.6470588235294118
40
0.6470588235294118
40
0.6470588235294118
40
0.6470588235294118
40
0.70588235294117641
40
0.70588235294117641
40
0.70588235294117641
40
0.70588235294117641
10
64.116601428506343
20
-28.237522315152255
30
0
10
63.481085278322489
20
-29.322905899837384
30
0
10
63.167489474804484
20
-29.236239423228785
30
0
10
63.1760420876277
20
-27.978435164027591
30
0
0
LINE
5
178
100
AcDbEntity
8
0
100
AcDbLine
10
39.006216481149792
20
18.835954473077425
30
0
11
39.006216481149806
21
15.660954473077426
31
0
0
ELLIPSE
5
179
100
AcDbEntity
8
0
100
AcDbEllipse
10
54.556944762222209
20
-9.6071774383652375
30
0
11
0.52970529847479975
21
0.33619522142378094
31
0.0
40
0.99033095122561698
41
1.0003514274041916
42
2.0429931528747725
0
SPLINE
5
180
100
AcDbEntity
8
0
100
AcDbSpline
70
0
71
3
72
11
73
7
74
0
42
0.000000001
43
0.0000000001
44
0.0000000001
40
0.36363636363636359
40
0.36363636363636359
40
0.36363636363636359
40
0.36363636363636359
40
0.45454545454545459
40
0.45454545454545459
40
0.45454545454545459
40
0.54545454545454541
40
0.54545454545454541
40
0.54545454545454541
40
0.54545454545454541
10
49.974799107897411
20
-16.133522543221961
30
0
10
50.011974464969015
20
-16.075592845699376
30
0
10
50.075833974049019
20
-16.040128011192447
30
0
10
50.145053120498261
20
-16.040128011192447
30
0
10
50.256579191713001
20
-16.040128011192447
30
0
10
50.346894783126203
20
-16.129873428417394
30
0
10
50.34712285280149
20
-16.240829325443951
30
0
0
ELLIPSE
5
181
100
AcDbEntity
8
0
100
AcDbEllipse
10
75.390291434273593
20
-31.352050438192283
30
0
11
0.017482211402588963
21
0.20109029344627999
31
0.0
40
0.92811123337897117
41
1.067558506218905
42
2.262993131083634
0
LINE
5
182
100
AcDbEntity
8
0
100
AcDbLine
10
16.781216481149791
20
-23.164045526922578
30
0
11
19.281216481149791
21
-23.164045526922578
31
0
0
LINE
5
183
100
AcDbEntity
8
0
100
AcDbLine
10
51.855119545791183
20
-12.921845375847365
30
0
11
54.019500764253436
21
-9.2929147375373411
31
0
0
LINE
5
184
100
AcDbEntity
8
0
100
AcDbLine
10
16.781216481149791
20
18.835954473077425
30
0
11
19.281216481149791
21
18.835954473077425
31
0
0
LINE
5
185
100
AcDbEntity
8
0
100
AcDbLine
10
67.581216481149795
20
18.835954473077425
30
0
11
67.581216481149795
21
6.1359544730774243
31
0
0
LINE
5
186
100
AcDbEntity
8
0
100
AcDbLine
10
16.781216481149791
20
-75.164045526922578
30
0
11
19.281216481149791
21
-75.164045526922578
31
0
0
LINE
5
187
100
AcDbEntity
8
0
100
AcDbLine
10
16.781216481149791
20
16.835954473077422
30
0
11
19.281216481149791
21
16.835954473077422
31
0
0
LINE
5
188
100
AcDbEntity
8
0
100
AcDbLine
10
16.781216481149791
20
-26.164045526922575
30
0
11
21.781216481149794
21
-26.164045526922575
31
0
0
LINE
5
189
100
AcDbEntity
8
0
100
AcDbLine
10
16.781216481149791
20
-71.164045526922578
30
0
11
26.781216481149798
21
-71.164045526922564
31
0
0
LINE
5
190
100
AcDbEntity
8
0
100
AcDbLine
10
16.781216481149791
20
-61.164045526922578
30
0
11
26.781216481149798
21
-61.164045526922557
31
0
0
LINE
5
191
100
AcDbEntity
8
0
100
AcDbLine
10
75.235226168364335
20
-31.240857834153317
30
0
11
84.78940697059943
21
-16.462170945308792
31
0
0
LINE
5
192
100
AcDbEntity
8
0
100
AcDbLine
10
16.781216481149791
20
-3.1640455269225765
30
0
11
19.281216481149791
21
-3.1640455269225765
31
0
0
LINE
5
193
100
AcDbEntity
8
0
100
AcDbLine
10
45.356216481149794
20
18.835954473077425
30
0
11
45.356216481149801
21
15.660954473077426
31
0
0
LINE
5
194
100
AcDbEntity
8
0
100
AcDbLine
10
16.781216481149791
20
18.835954473077425
30
0
11
21.781216481149794
21
18.835954473077425
31
0
0
ELLIPSE
5
195
100
AcDbEntity
8
0
100
AcDbEllipse
10
40.805570468208671
20
-31.634377273248937
30
0
11
0.01783898037671125
21
0.19684445781897525
31
0.0
40
0.97527007427597523
41
1.1082048850320534
42
2.2187010706384602
0
LINE
5
196
100
AcDbEntity
8
0
100
AcDbLine
10
16.781216481149791
20
-56.164045526922578
30
0
11
21.781216481149794
21
-56.164045526922578
31
0
0
LINE
5
197
100
AcDbEntity
8
0
100
AcDbLine
10
16.781216481149791
20
-57.164045526922578
30
0
11
19.281216481149791
21
-57.164045526922578
31
0
0
SPLINE
5
198
100
AcDbEntity
8
0
100
AcDbSpline
70
0
71
3
72
8
73
4
74
0
42
0.000000001
43
0.0000000001
44
0.0000000001
40
0.058823529411764698
40
0.058823529411764698
40
0.058823529411764698
40
0.058823529411764698
40
0.1176470588235294
40
0.1176470588235294
40
0.1176470588235294
40
0.1176470588235294
10
52.397697303296113
20
-13.87460644435377
30
0
10
51.657269102480768
20
-13.87460644435377
30
0
10
51.476181780303833
20
-13.557361526031251
30
0
10
51.855119545791183
20
-12.921845375847365
30
0
0
LINE
5
199
100
AcDbEntity
8
0
100
AcDbLine
10
16.781216481149791
20
-60.164045526922578
30
0
11
19.281216481149791
21
-60.164045526922578
31
0
0
LINE
5
200
100
AcDbEntity
8
0
100
AcDbLine
10
16.781216481149791
20
-20.164045526922578
30
0
11
19.281216481149791
21
-20.164045526922578
31
0
0
LINE
5
201
100
AcDbEntity
8
0
100
AcDbLine
10
16.781216481149791
20
-0.16404552692257601
30
0
11
19.281216481149791
21
-0.16404552692257601
31
0
0
LINE
5
202
100
AcDbEntity
8
0
100
AcDbLine
10
16.781216481149791
20
14.835954473077425
30
0
11
19.281216481149791
21
14.835954473077425
31
0
0
LINE
5
203
100
AcDbEntity
8
0
100
AcDbLine
10
16.781216481149791
20
9.8359544730774253
30
0
11
19.281216481149791
21
9.8359544730774253
31
0
0
SPLINE
5
204
100
AcDbEntity
8
0
100
AcDbSpline
70
0
71
3
72
8
73
4
74
0
42
0.000000001
43
0.0000000001
44
0.0000000001
40
0.76470588235294112
40
0.76470588235294112
40
0.76470588235294112
40
0.76470588235294112
40
0.82352941176470584
40
0.82352941176470584
40
0.82352941176470584
40
0.82352941176470584
10
63.257805066217671
20
-14.512061186777583
30
0
10
63.257805066217671
20
-14.518561172523228
30
0
10
63.258033135892937
20
-14.517762928659721
30
0
10
63.258033135892937
20
-14.516622580283283
30
0
0
LINE
5
205
100
AcDbEntity
8
0
100
AcDbLine
10
16.781216481149787
20
-78.521404839803296
30
0
11
18.306579921394615
21
-78.521404839803296
31
0
0
LINE
5
206
100
AcDbEntity
8
0
100
AcDbLine
10
77.106216481149787
20
18.835954473077425
30
0
11
77.106216481149801
21
15.660954473077426
31
0
0
LINE
5
207
100
AcDbEntity
8
0
100
AcDbLine
10
16.781216481149791
20
-16.164045526922575
30
0
11
21.781216481149794
21
-16.164045526922575
31
0
0
LINE
5
208
100
AcDbEntity
8
0
100
AcDbLine
10
115.2062164811498
20
17.985215787108622
30
0
11
115.2062164811498
21
15.660954473077426
31
0
0
SPLINE
5
209
100
AcDbEntity
8
0
100
AcDbSpline
70
0
71
3
72
8
73
4
74
0
42
0.000000001
43
0.0000000001
44
0.0000000001
40
0.82352941176470584
40
0.82352941176470584
40
0.82352941176470584
40
0.82352941176470584
40
0.88235294117647056
40
0.88235294117647056
40
0.88235294117647056
40
0.88235294117647056
10
63.258033135892937
20
-14.516622580283283
30
0
10
63.264305051963312
20
-14.168132116446586
30
0
10
62.989595128081547
20
-13.880878360424127
30
0
10
62.644411674536485
20
-13.874606444353752
30
0
0
LINE
5
210
100
AcDbEntity
8
0
100
AcDbLine
10
16.781216481149791
20
18.835954473077425
30
0
11
26.781216481149798
21
18.83595447307744
31
0
0
LINE
5
211
100
AcDbEntity
8
0
100
AcDbLine
10
51.706216481149795
20
18.835954473077425
30
0
11
51.706216481149802
21
15.660954473077426
31
0
0
LINE
5
212
100
AcDbEntity
8
0
100
AcDbLine
10
40.641731855851958
20
-31.530962461116889
30
0
11
49.974799107897411
21
-16.133522543221961
31
0
0
LINE
5
213
100
AcDbEntity
8
0
100
AcDbLine
10
62.644411674536485
20
-13.874606444353752
30
0
11
62.641332733920159
21
-13.874606444353752
31
0
0
LINE
5
214
100
AcDbEntity
8
0
100
AcDbLine
10
17.42385716826907
20
-79.164045526922578
30
0
11
19.281216481149791
21
-79.164045526922578
31
0
0
LINE
5
215
100
AcDbEntity
8
0
100
AcDbLine
10
16.781216481149791
20
-59.164045526922578
30
0
11
19.281216481149791
21
-59.164045526922578
31
0
0
LINE
5
216
100
AcDbEntity
8
0
100
AcDbLine
10
82.751034247732576
20
-14.190254874949311
30
0
11
72.692135254090061
21
-14.190254874949311
31
0
0
LINE
5
217
100
AcDbEntity
8
0
100
AcDbLine
10
108.85621648114979
20
18.835954473077425
30
0
11
108.85621648114979
21
15.660954473077426
31
0
0
LINE
5
218
100
AcDbEntity
8
0
100
AcDbLine
10
16.781216481149791
20
-66.164045526922578
30
0
11
21.781216481149794
21
-66.164045526922578
31
0
0
LINE
5
219
100
AcDbEntity
8
0
100
AcDbLine
10
32.656216481149791
20
18.835954473077425
30
0
11
32.656216481149798
21
15.660954473077426
31
0
0
LINE
5
220
100
AcDbEntity
8
0
100
AcDbLine
10
105.6812164811498
20
18.835954473077425
30
0
11
105.6812164811498
21
9.3109544730774285
31
0
0
LINE
5
221
100
AcDbEntity
8
0
100
AcDbLine
10
19.956216481149792
20
18.835954473077425
30
0
11
19.956216481149799
21
15.660954473077426
31
0
0
LINE
5
222
100
AcDbEntity
8
0
100
AcDbLine
10
16.781216481149791
20
-31.164045526922575
30
0
11
26.781216481149798
21
-31.16404552692256
31
0
0
LINE
5
223
100
AcDbEntity
8
0
100
AcDbLine
10
16.781216481149791
20
-27.164045526922578
30
0
11
19.281216481149791
21
-27.164045526922578
31
0
0
LINE
5
224
100
AcDbEntity
8
0
100
AcDbLine
10
16.781216481149791
20
-6.1640455269225747
30
0
11
21.781216481149794
21
-6.1640455269225747
31
0
0
LINE
5
225
100
AcDbEntity
8
0
100
AcDbLine
10
16.781216481149791
20
4.8359544730774235
30
0
11
19.281216481149791
21
4.8359544730774235
31
0
0
LINE
5
226
100
AcDbEntity
8
0
100
AcDbLine
10
80.281216481149784
20
18.835954473077425
30
0
11
80.281216481149784
21
9.3109544730774285
31
0
0
LINE
5
227
100
AcDbEntity
8
0
100
AcDbLine
10
16.781216481149791
20
-74.164045526922578
30
0
11
19.281216481149791
21
-74.164045526922578
31
0
0
LINE
5
228
100
AcDbEntity
8
0
100
AcDbLine
10
16.781216481149791
20
17.835954473077425
30
0
11
19.281216481149791
21
17.835954473077425
31
0
0
LINE
5
229
100
AcDbEntity
8
0
100
AcDbLine
10
16.781216481149791
20
10.835954473077425
30
0
11
19.281216481149791
21
10.835954473077425
31
0
0
LINE
5
230
100
AcDbEntity
8
0
100
AcDbLine
10
16.781216481149791
20
6.8359544730774235
30
0
11
19.281216481149791
21
6.8359544730774235
31
0
0
LINE
5
231
100
AcDbEntity
8
0
100
AcDbLine
10
86.631216481149792
20
18.835954473077425
30
0
11
86.631216481149792
21
12.485954473077426
31
0
0
LINE
5
232
100
AcDbEntity
8
0
100
AcDbLine
10
16.781216481149791
20
5.8359544730774253
30
0
11
19.281216481149791
21
5.8359544730774253
31
0
0
LINE
5
233
100
AcDbEntity
8
0
100
AcDbLine
10
16.781216481149791
20
-11.164045526922575
30
0
11
26.781216481149798
21
-11.16404552692256
31
0
0
LINE
5
234
100
AcDbEntity
8
0
100
AcDbLine
10
73.931216481149789
20
18.835954473077425
30
0
11
73.931216481149789
21
12.485954473077426
31
0
0
LINE
5
235
100
AcDbEntity
8
0
100
AcDbLine
10
16.781216481149791
20
-7.1640455269225756
30
0
11
19.281216481149791
21
-7.1640455269225756
31
0
0
LINE
5
236
100
AcDbEntity
8
0
100
AcDbLine
10
16.781216481149791
20
1.8359544730774235
30
0
11
19.281216481149791
21
1.8359544730774235
31
0
0
LINE
5
237
100
AcDbEntity
8
0
100
AcDbLine
10
16.781216481149791
20
13.835954473077425
30
0
11
21.781216481149794
21
13.835954473077425
31
0
0
LINE
5
238
100
AcDbEntity
8
0
100
AcDbLine
10
16.781216481149791
20
-64.164045526922578
30
0
11
19.281216481149791
21
-64.164045526922578
31
0
0
LINE
5
239
100
AcDbEntity
8
0
100
AcDbLine
10
26.306216481149789
20
18.835954473077425
30
0
11
26.3062164811498
21
15.660954473077426
31
0
0
LINE
5
240
100
AcDbEntity
8
0
100
AcDbLine
10
16.781216481149791
20
15.835954473077425
30
0
11
19.281216481149791
21
15.835954473077425
31
0
0
LINE
5
241
100
AcDbEntity
8
0
100
AcDbLine
10
61.231216481149801
20
18.835954473077425
30
0
11
61.231216481149801
21
12.485954473077426
31
0
0
LINE
5
242
100
AcDbEntity
8
0
100
AcDbLine
10
16.781216481149791
20
-62.164045526922571
30
0
11
19.281216481149791
21
-62.164045526922571
31
0
0
LINE
5
243
100
AcDbEntity
8
0
100
AcDbLine
10
16.781216481149791
20
-30.164045526922578
30
0
11
19.281216481149791
21
-30.164045526922578
31
0
0
LINE
5
244
100
AcDbEntity
8
0
100
AcDbLine
10
72.14978556626042
20
-14.499289284961581
30
0
11
64.116601428506343
21
-28.237522315152255
31
0
0
LINE
5
245
100
AcDbEntity
8
0
100
AcDbLine
10
16.781216481149791
20
-18.164045526922578
30
0
11
19.281216481149791
21
-18.164045526922578
31
0
0
SPLINE
5
246
100
AcDbEntity
8
0
100
AcDbSpline
70
0
71
3
72
8
73
4
74
0
42
0.000000001
43
0.0000000001
44
0.0000000001
40
0.41176470588235292
40
0.41176470588235292
40
0.41176470588235292
40
0.41176470588235292
40
0.47058823529411759
40
0.47058823529411759
40
0.47058823529411759
40
0.47058823529411759
10
83.29418217942569
20
-13.237493806442888
30
0
10
83.66798837721916
20
-13.872895921789112
30
0
10
83.487243159555149
20
-14.190254874949311
30
0
10
82.751034247732576
20
-14.190254874949311
30
0
0
LINE
5
247
100
AcDbEntity
8
0
100
AcDbLine
10
96.156216481149798
20
18.835954473077425
30
0
11
96.156216481149798
21
15.660954473077426
31
0
0
LINE
5
248
100
AcDbEntity
8
0
100
AcDbLine
10
89.806216481149789
20
18.835954473077425
30
0
11
89.806216481149789
21
15.660954473077426
31
0
0
LINE
5
249
100
AcDbEntity
8
0
100
AcDbLine
10
16.781216481149791
20
-10.164045526922578
30
0
11
19.281216481149791
21
-10.164045526922578
31
0
0
LINE
5
250
100
AcDbEntity
8
0
100
AcDbLine
10
64.406216481149784
20
18.835954473077425
30
0
11
64.406216481149812
21
15.660954473077426
31
0
0
LINE
5
251
100
AcDbEntity
8
0
100
AcDbLine
10
16.781216481149791
20
-17.164045526922575
30
0
11
19.281216481149791
21
-17.164045526922575
31
0
0
LINE
5
252
100
AcDbEntity
8
0
100
AcDbLine
10
80.958976774174403
20
-9.2934849117255602
30
0
11
83.29418217942569
21
-13.237493806442888
31
0
0
LINE
5
253
100
AcDbEntity
8
0
100
AcDbLine
10
16.781216481149791
20
-8.1640455269225765
30
0
11
19.281216481149791
21
-8.1640455269225765
31
0
0
LINE
5
254
100
AcDbEntity
8
0
100
AcDbLine
10
83.456216481149795
20
18.835954473077425
30
0
11
83.456216481149795
21
15.660954473077426
31
0
0
ELLIPSE
5
255
100
AcDbEntity
8
0
100
AcDbEllipse
10
72.682736656110038
20
-14.803483428698367
30
0
11
0.54559524446990038
21
0.29769066127348665
31
0.0
40
0.98264166599607816
41
1.0634628465215696
42
2.1156694224917278
0
LINE
5
256
100
AcDbEntity
8
0
100
AcDbLine
10
16.781216481149791
20
-77.164045526922592
30
0
11
19.281216481149791
21
-77.164045526922592
31
0
0
LINE
5
257
100
AcDbEntity
8
0
100
AcDbLine
10
16.781216481149791
20
-13.164045526922576
30
0
11
19.281216481149791
21
-13.164045526922576
31
0
0
LINE
5
258
100
AcDbEntity
8
0
100
AcDbLine
10
58.056216481149789
20
18.835954473077425
30
0
11
58.056216481149804
21
15.660954473077426
31
0
0
LINE
5
259
100
AcDbEntity
8
0
100
AcDbLine
10
16.781216481149791
20
-22.164045526922578
30
0
11
19.281216481149791
21
-22.164045526922578
31
0
0
LINE
5
260
100
AcDbEntity
8
0
100
AcDbLine
10
16.781216481149791
20
-14.164045526922578
30
0
11
19.281216481149791
21
-14.164045526922578
31
0
0
LINE
5
261
100
AcDbEntity
8
0
100
AcDbLine
10
99.331216481149795
20
18.835954473077425
30
0
11
99.331216481149795
21
12.485954473077426
31
0
0
LINE
5
262
100
AcDbEntity
8
0
100
AcDbLine
10
16.781216481149791
20
-19.164045526922578
30
0
11
19.281216481149791
21
-19.164045526922578
31
0
0
LINE
5
263
100
AcDbEntity
8
0
100
AcDbLine
10
16.781216481149791
20
-76.164045526922578
30
0
11
21.781216481149794
21
-76.164045526922578
31
0
0
SPLINE
5
264
100
AcDbEntity
8
0
100
AcDbSpline
70
0
71
3
72
11
73
7
74
0
42
0.000000001
43
0.0000000001
44
0.0000000001
40
0.76923076923076927
40
0.76923076923076927
40
0.76923076923076927
40
0.76923076923076927
40
0.84615384615384626
40
0.84615384615384626
40
0.84615384615384626
40
0.92307692307692324
40
0.92307692307692324
40
0.92307692307692324
40
0.92307692307692324
10
84.78940697059943
20
-16.462170945308792
30
0
10
84.828863024423882
20
-16.400021958793403
30
0
10
84.896941822496657
20
-16.362276427533615
30
0
10
84.970494292776351
20
-16.362276427533615
30
0
10
85.046555529484152
20
-16.362276427533615
30
0
10
85.116915024309847
20
-16.402530725221549
30
0
10
85.155458799433148
20
-16.468442861379149
30
0
0
LINE
5
265
100
AcDbEntity
8
0
100
AcDbLine
10
85.155458799433148
20
-16.468442861379149
30
0
11
85.155230729757832
21
-16.468442861379149
31
0
0
LINE
5
266
100
AcDbEntity
8
0
100
AcDbLine
10
16.781216481149791
20
-78.164045526922592
30
0
11
19.281216481149791
21
-78.164045526922592
31
0
0
LINE
5
267
100
AcDbEntity
8
0
100
AcDbLine
10
16.781216481149791
20
-2.1640455269225756
30
0
11
19.281216481149791
21
-2.1640455269225756
31
0
0
LINE
5
268
100
AcDbEntity
8
0
100
AcDbLine
10
19.423857168269059
20
-81.164045526922578
30
0
11
26.781216481149798
21
-81.164045526922564
31
0
0
LINE
5
269
100
AcDbEntity
8
0
100
AcDbLine
10
16.781216481149791
20
-69.164045526922578
30
0
11
19.281216481149791
21
-69.164045526922578
31
0
0
LINE
5
270
100
AcDbEntity
8
0
100
AcDbLine
10
16.781216481149791
20
-1.1640455269225747
30
0
11
26.781216481149798
21
-1.1640455269225614
31
0
0
LINE
5
271
100
AcDbEntity
8
0
100
AcDbLine
10
16.781216481149791
20
-12.164045526922575
30
0
11
19.281216481149791
21
-12.164045526922575
31
0
0
LINE
5
272
100
AcDbEntity
8
0
100
AcDbLine
10
16.781216481149791
20
-70.164045526922578
30
0
11
19.281216481149791
21
-70.164045526922578
31
0
0
LINE
5
273
100
AcDbEntity
8
0
100
AcDbLine
10
16.781216481149791
20
-24.164045526922571
30
0
11
19.281216481149791
21
-24.164045526922571
31
0
0
LINE
5
274
100
AcDbEntity
8
0
100
AcDbLine
10
16.781216481149791
20
-68.164045526922592
30
0
11
19.281216481149791
21
-68.164045526922592
31
0
0
LINE
5
275
100
AcDbEntity
8
0
100
AcDbLine
10
16.781216481149791
20
11.835954473077424
30
0
11
19.281216481149791
21
11.835954473077424
31
0
0
LINE
5
276
100
AcDbEntity
8
0
100
AcDbLine
10
62.641332733920159
20
-13.874606444353752
30
0
11
62.633122225609874
21
-13.874606444353752
31
0
0
ELLIPSE
5
277
100
AcDbEntity
8
0
100
AcDbEllipse
10
80.423542381655793
20
-9.602618627801931
30
0
11
0.53628293523901405
21
-0.32003890193193729
31
0.0
40
0.98692897040416594
41
1.067222903590767
42
2.115094927534785
0
LINE
5
278
100
AcDbEntity
8
0
100
AcDbLine
10
16.781216481149791
20
-29.164045526922582
30
0
11
19.281216481149791
21
-29.164045526922582
31
0
0
LINE
5
279
100
AcDbEntity
8
0
100
AcDbLine
10
16.781216481149791
20
12.835954473077425
30
0
11
19.281216481149791
21
12.835954473077425
31
0
0
LINE
5
280
100
AcDbEntity
8
0
100
AcDbLine
10
16.781216481149791
20
-9.1640455269225782
30
0
11
19.281216481149791
21
-9.1640455269225782
31
0
0
LINE
5
281
100
AcDbEntity
8
0
100
AcDbLine
10
16.781216481149791
20
0.83595447307742488
30
0
11
19.281216481149791
21
0.83595447307742488
31
0
0
LINE
5
282
100
AcDbEntity
8
0
100
AcDbLine
10
16.781216481149791
20
8.8359544730774253
30
0
11
26.781216481149798
21
8.8359544730774395
31
0
0
LINE
5
283
100
AcDbEntity
8
0
100
AcDbLine
10
85.155230729757832
20
-16.468442861379149
30
0
11
94.084386586872185
21
-31.853110877458057
31
0
0
LINE
5
284
100
AcDbEntity
8
0
100
AcDbLine
10
70.756216481149778
20
18.835954473077425
30
0
11
70.756216481149806
21
15.660954473077426
31
0
0
LINE
5
285
100
AcDbEntity
8
0
100
AcDbLine
10
63.1760420876277
20
-27.978435164027591
30
0
11
63.257805066217671
21
-14.512061186777583
31
0
0
LINE
5
286
100
AcDbEntity
8
0
100
AcDbLine
10
16.781216481149791
20
-5.1640455269225782
30
0
11
19.281216481149791
21
-5.1640455269225782
31
0
0
LINE
5
287
100
AcDbEntity
8
0
100
AcDbLine
10
16.781216481149791
20
3.8359544730774253
30
0
11
21.781216481149794
21
3.8359544730774253
31
0
0
LINE
5
288
100
AcDbEntity
8
0
100
AcDbLine
10
16.781216481149791
20
-28.164045526922578
30
0
11
19.281216481149791
21
-28.164045526922578
31
0
0
LINE
5
289
100
AcDbEntity
8
0
100
AcDbLine
10
16.781216481149791
20
-25.164045526922578
30
0
11
19.281216481149791
21
-25.164045526922578
31
0
0
LINE
5
290
100
AcDbEntity
8
0
100
AcDbLine
10
16.781216481149791
20
-21.164045526922575
30
0
11
26.781216481149798
21
-21.16404552692256
31
0
0
LINE
5
291
100
AcDbEntity
8
0
100
AcDbLine
10
16.781216481149791
20
7.8359544730774244
30
0
11
19.281216481149791
21
7.8359544730774244
31
0
0
LINE
5
292
100
AcDbEntity
8
0
100
AcDbLine
10
16.781216481149791
20
-4.1640455269225773
30
0
11
19.281216481149791
21
-4.1640455269225773
31
0
0
LINE
5
293
100
AcDbEntity
8
0
100
AcDbLine
10
16.781216481149791
20
2.8359544730774244
30
0
11
19.281216481149791
21
2.8359544730774244
31
0
0
ENDSEC
0
SECTION
2
OBJECTS
0
DICTIONARY
5
C
100
AcDbDictionary
3
ACAD_GROUP
350
D
3
ACAD_MLINESTYLE
350
17
0
DICTIONARY
5
D
100
AcDbDictionary
0
DICTIONARY
5
1A
330
C
100
AcDbDictionary
0
DICTIONARY
5
17
100
AcDbDictionary
0
ENDSEC
0
EOF
