0
SECTION
2
HEADER
9
$INSUNITS
70
4
9
$ACADVER
1
AC1014
9
$HANDSEED
5
FFFF
0
ENDSEC
0
SECTION
2
TABLES
0
TABLE
2
VPORT
5
8
100
AcDbSymbolTable
0
ENDTAB
0
TABLE
2
LTYPE
5
5
100
AcDbSymbolTable
0
LTYPE
5
14
100
AcDbSymbolTableRecord
100
AcDbLinetypeTableRecord
2
BYBLOCK
70
0
0
LTYPE
5
15
100
AcDbSymbolTableRecord
100
AcDbLinetypeTableRecord
2
BYLAYER
70
0
0
ENDTAB
0
TABLE
2
LAYER
5
2
100
AcDbSymbolTable
70
2
0
LAYER
5
50
100
AcDbSymbolTableRecord
100
AcDbLayerTableRecord
2
0
70
0
6
CONTINUOUS
0
ENDTAB
0
TABLE
2
STYLE
5
3
100
AcDbSymbolTable
70
1
0
STYLE
5
11
100
AcDbSymbolTableRecord
100
AcDbTextStyleTableRecord
2
STANDARD
70
0
0
ENDTAB
0
TABLE
2
VIEW
5
6
100
AcDbSymbolTable
70
0
0
ENDTAB
0
TABLE
2
UCS
5
7
100
AcDbSymbolTable
70
0
0
ENDTAB
0
TABLE
2
APPID
5
9
100
AcDbSymbolTable
70
2
0
APPID
5
12
100
AcDbSymbolTableRecord
100
AcDbRegAppTableRecord
2
ACAD
70
0
0
ENDTAB
0
TABLE
2
DIMSTYLE
5
A
100
AcDbSymbolTable
70
1
0
ENDTAB
0
TABLE
2
BLOCK_RECORD
5
1
100
AcDbSymbolTable
70
1
0
BLOCK_RECORD
5
1F
100
AcDbSymbolTableRecord
100
AcDbBlockTableRecord
2
*MODEL_SPACE
0
BLOCK_RECORD
5
1B
100
AcDbSymbolTableRecord
100
AcDbBlockTableRecord
2
*PAPER_SPACE
0
ENDTAB
0
ENDSEC
0
SECTION
2
BLOCKS
0
BLOCK
5
20
100
AcDbEntity
100
AcDbBlockBegin
2
*MODEL_SPACE
0
ENDBLK
5
21
100
AcDbEntity
100
AcDbBlockEnd
0
BLOCK
5
1C
100
AcDbEntity
100
AcDbBlockBegin
2
*PAPER_SPACE
0
ENDBLK
5
1D
100
AcDbEntity
100
AcDbBlockEnd
0
ENDSEC
0
SECTION
2
ENTITIES
0
CIRCLE
5
100
100
AcDbEntity
8
0
100
AcDbCircle
10
70.369700000533754
20
-166.01783077102252
30
0
40
2.9999999999999982
210
0
220
0
230
1
0
CIRCLE
5
101
100
AcDbEntity
8
0
100
AcDbCircle
10
110.36970000053373
20
-206.01783077102249
30
0
40
3.0000000000000071
210
0
220
0
230
1
0
CIRCLE
5
102
100
AcDbEntity
8
0
100
AcDbCircle
10
110.36970000053373
20
-206.01783077102249
30
0
40
6.5
210
0
220
0
230
1
0
CIRCLE
5
103
100
AcDbEntity
8
0
100
AcDbCircle
10
473.54470000053323
20
-206.01783077102237
30
0
40
2.9999999999999716
210
0
220
0
230
1
0
CIRCLE
5
104
100
AcDbEntity
8
0
100
AcDbCircle
10
473.54470000053323
20
-206.01783077102237
30
0
40
6.5000000000000018
210
0
220
0
230
1
0
CIRCLE
5
105
100
AcDbEntity
8
0
100
AcDbCircle
10
513.54470000053334
20
-166.01783077102243
30
0
40
3.0000000000000226
210
0
220
0
230
1
0
CIRCLE
5
106
100
AcDbEntity
8
0
100
AcDbCircle
10
513.54470000053334
20
-166.01783077102243
30
0
40
6.4999999999999858
210
0
220
0
230
1
0
CIRCLE
5
107
100
AcDbEntity
8
0
100
AcDbCircle
10
513.54470000053357
20
168.98216922897731
30
0
40
2.9999999999999858
210
0
220
0
230
1
0
CIRCLE
5
108
100
AcDbEntity
8
0
100
AcDbCircle
10
513.54470000053357
20
168.98216922897731
30
0
40
6.4999999999999858
210
0
220
0
230
1
0
CIRCLE
5
109
100
AcDbEntity
8
0
100
AcDbCircle
10
513.54470000053345
20
1.4821692289774546
30
0
40
2.9999999999999716
210
0
220
0
230
1
0
CIRCLE
5
110
100
AcDbEntity
8
0
100
AcDbCircle
10
513.54470000053345
20
1.4821692289774546
30
0
40
6.5000000000000133
210
0
220
0
230
1
0
CIRCLE
5
111
100
AcDbEntity
8
0
100
AcDbCircle
10
513.54470000053345
20
84.982169228977313
30
0
40
3.0000000000000071
210
0
220
0
230
1
0
CIRCLE
5
112
100
AcDbEntity
8
0
100
AcDbCircle
10
513.54470000053357
20
84.982169228977327
30
0
40
6.4999999999999858
210
0
220
0
230
1
0
CIRCLE
5
113
100
AcDbEntity
8
0
100
AcDbCircle
10
513.54470000053345
20
-82.017830771022432
30
0
40
2.9999999999999845
210
0
220
0
230
1
0
CIRCLE
5
114
100
AcDbEntity
8
0
100
AcDbCircle
10
513.54470000053345
20
-82.017830771022432
30
0
40
6.4999999999999858
210
0
220
0
230
1
0
CIRCLE
5
115
100
AcDbEntity
8
0
100
AcDbCircle
10
200.36970000053373
20
-206.01783077102243
30
0
40
2.9999999999999867
210
0
220
0
230
1
0
CIRCLE
5
116
100
AcDbEntity
8
0
100
AcDbCircle
10
200.36970000053373
20
-206.01783077102243
30
0
40
6.4999999999999858
210
0
220
0
230
1
0
CIRCLE
5
117
100
AcDbEntity
8
0
100
AcDbCircle
10
291.95720000053348
20
-206.0178307710224
30
0
40
3.0000000000000071
210
0
220
0
230
1
0
CIRCLE
5
118
100
AcDbEntity
8
0
100
AcDbCircle
10
291.95720000053348
20
-206.0178307710224
30
0
40
6.4999999999999858
210
0
220
0
230
1
0
CIRCLE
5
119
100
AcDbEntity
8
0
100
AcDbCircle
10
383.54470000053323
20
-206.01783077102237
30
0
40
3.0000000000000036
210
0
220
0
230
1
0
CIRCLE
5
120
100
AcDbEntity
8
0
100
AcDbCircle
10
383.54470000053323
20
-206.01783077102237
30
0
40
6.4999999999999858
210
0
220
0
230
1
0
LWPOLYLINE
5
121
100
AcDbEntity
8
0
100
AcDbPolyline
90
12
70
1
43
0.0
10
80.369700000533697
20
-215.01783077102235
10
503.54470000053334
20
-215.01783077102235
10
503.54470000053323
20
-196.0178307710224
10
522.54470000053357
20
-196.01783077102252
10
522.54470000053357
20
198.9821692289772
10
503.5447000005334
20
198.98216922897745
10
503.54470000053368
20
217.98216922897726
10
80.369700000533655
20
217.98216922897728
10
80.369700000533655
20
198.98216922897734
10
61.369700000533669
20
198.98216922897731
10
61.369700000533641
20
-196.01783077102252
10
80.369700000533754
20
-196.01783077102252
0
CIRCLE
5
122
100
AcDbEntity
8
0
100
AcDbCircle
10
70.369700000533754
20
-166.01783077102252
30
0
40
6.4999999999999911
210
0
220
0
230
1
0
CIRCLE
5
123
100
AcDbEntity
8
0
100
AcDbCircle
10
70.369700000533683
20
1.4821692289774191
30
0
40
2.9999999999999982
210
0
220
0
230
1
0
CIRCLE
5
124
100
AcDbEntity
8
0
100
AcDbCircle
10
70.369700000533683
20
1.4821692289774191
30
0
40
6.5000000000000036
210
0
220
0
230
1
0
CIRCLE
5
125
100
AcDbEntity
8
0
100
AcDbCircle
10
70.369700000533712
20
-82.017830771022474
30
0
40
3.0000000000000004
210
0
220
0
230
1
0
CIRCLE
5
126
100
AcDbEntity
8
0
100
AcDbCircle
10
70.369700000533712
20
-82.017830771022474
30
0
40
6.5000000000000036
210
0
220
0
230
1
0
CIRCLE
5
127
100
AcDbEntity
8
0
100
AcDbCircle
10
70.369700000533612
20
168.98216922897731
30
0
40
2.9999999999999991
210
0
220
0
230
1
0
CIRCLE
5
128
100
AcDbEntity
8
0
100
AcDbCircle
10
70.369700000533612
20
168.98216922897731
30
0
40
6.5000000000000036
210
0
220
0
230
1
0
CIRCLE
5
129
100
AcDbEntity
8
0
100
AcDbCircle
10
70.369700000533641
20
84.982169228977313
30
0
40
2.9999999999999991
210
0
220
0
230
1
0
CIRCLE
5
130
100
AcDbEntity
8
0
100
AcDbCircle
10
70.369700000533641
20
84.982169228977313
30
0
40
6.4999999999999982
210
0
220
0
230
1
0
CIRCLE
5
131
100
AcDbEntity
8
0
100
AcDbCircle
10
110.36970000053365
20
208.98216922897731
30
0
40
3.0000000000000071
210
0
220
0
230
1
0
CIRCLE
5
132
100
AcDbEntity
8
0
100
AcDbCircle
10
110.36970000053365
20
208.98216922897731
30
0
40
6.5000000000000036
210
0
220
0
230
1
0
CIRCLE
5
133
100
AcDbEntity
8
0
100
AcDbCircle
10
200.36970000053367
20
208.98216922897731
30
0
40
3.0000000000000071
210
0
220
0
230
1
0
CIRCLE
5
134
100
AcDbEntity
8
0
100
AcDbCircle
10
200.36970000053367
20
208.98216922897731
30
0
40
6.4999999999999858
210
0
220
0
230
1
0
CIRCLE
5
135
100
AcDbEntity
8
0
100
AcDbCircle
10
291.95720000053359
20
208.98216922897731
30
0
40
3.0000000000000071
210
0
220
0
230
1
0
CIRCLE
5
136
100
AcDbEntity
8
0
100
AcDbCircle
10
291.95720000053359
20
208.98216922897731
30
0
40
6.5000000000000053
210
0
220
0
230
1
0
CIRCLE
5
137
100
AcDbEntity
8
0
100
AcDbCircle
10
383.54470000053357
20
208.98216922897731
30
0
40
2.9999999999999716
210
0
220
0
230
1
0
CIRCLE
5
138
100
AcDbEntity
8
0
100
AcDbCircle
10
383.54470000053357
20
208.98216922897731
30
0
40
6.4999999999999858
210
0
220
0
230
1
0
CIRCLE
5
139
100
AcDbEntity
8
0
100
AcDbCircle
10
473.54470000053357
20
208.98216922897731
30
0
40
3.0000000000000298
210
0
220
0
230
1
0
CIRCLE
5
140
100
AcDbEntity
8
0
100
AcDbCircle
10
473.54470000053357
20
208.98216922897731
30
0
40
6.4999999999999858
210
0
220
0
230
1
0
CIRCLE
5
141
100
AcDbEntity
8
0
100
AcDbCircle
10
211.95720000053365
20
83.982169228976673
30
0
40
2.999999999999992
210
0
220
0
230
1
0
CIRCLE
5
142
100
AcDbEntity
8
0
100
AcDbCircle
10
211.95720000053365
20
-186.01783077102334
30
0
40
3.0000000000000071
210
0
220
0
230
1
0
LINE
5
143
100
AcDbEntity
8
0
100
AcDbLine
10
291.95720000053365
20
217.98216922897728
30
0
11
291.95720000053365
21
-215.01783077102235
31
0
0
CIRCLE
5
144
100
AcDbEntity
8
0
100
AcDbCircle
10
371.95720000053365
20
-186.01783077102334
30
0
40
3.0000000000000071
210
0
220
0
230
1
0
LINE
5
145
100
AcDbEntity
8
0
100
AcDbLine
10
291.95720000053331
20
-185.0178307710253
30
0
11
291.95720000053336
21
124.98216922897356
31
0
0
CIRCLE
5
146
100
AcDbEntity
8
0
100
AcDbCircle
10
371.95720000053308
20
83.98216922897663
30
0
40
2.999999999999992
210
0
220
0
230
1
0
ENDSEC
0
SECTION
2
OBJECTS
0
DICTIONARY
5
C
100
AcDbDictionary
3
ACAD_GROUP
350
D
3
ACAD_MLINESTYLE
350
17
0
DICTIONARY
5
D
100
AcDbDictionary
0
DICTIONARY
5
1A
330
C
100
AcDbDictionary
0
DICTIONARY
5
17
100
AcDbDictionary
0
ENDSEC
0
EOF
