0
SECTION
2
HEADER
9
$INSUNITS
70
4
9
$ACADVER
1
AC1014
9
$HANDSEED
5
FFFF
0
ENDSEC
0
SECTION
2
TABLES
0
TABLE
2
VPORT
5
8
100
AcDbSymbolTable
0
ENDTAB
0
TABLE
2
LTYPE
5
5
100
AcDbSymbolTable
0
LTYPE
5
14
100
AcDbSymbolTableRecord
100
AcDbLinetypeTableRecord
2
BYBLOCK
70
0
0
LTYPE
5
15
100
AcDbSymbolTableRecord
100
AcDbLinetypeTableRecord
2
BYLAYER
70
0
0
ENDTAB
0
TABLE
2
LAYER
5
2
100
AcDbSymbolTable
70
2
0
LAYER
5
50
100
AcDbSymbolTableRecord
100
AcDbLayerTableRecord
2
0
70
0
6
CONTINUOUS
0
ENDTAB
0
TABLE
2
STYLE
5
3
100
AcDbSymbolTable
70
1
0
STYLE
5
11
100
AcDbSymbolTableRecord
100
AcDbTextStyleTableRecord
2
STANDARD
70
0
0
ENDTAB
0
TABLE
2
VIEW
5
6
100
AcDbSymbolTable
70
0
0
ENDTAB
0
TABLE
2
UCS
5
7
100
AcDbSymbolTable
70
0
0
ENDTAB
0
TABLE
2
APPID
5
9
100
AcDbSymbolTable
70
2
0
APPID
5
12
100
AcDbSymbolTableRecord
100
AcDbRegAppTableRecord
2
ACAD
70
0
0
ENDTAB
0
TABLE
2
DIMSTYLE
5
A
100
AcDbSymbolTable
70
1
0
ENDTAB
0
TABLE
2
BLOCK_RECORD
5
1
100
AcDbSymbolTable
70
1
0
BLOCK_RECORD
5
1F
100
AcDbSymbolTableRecord
100
AcDbBlockTableRecord
2
*MODEL_SPACE
0
BLOCK_RECORD
5
1B
100
AcDbSymbolTableRecord
100
AcDbBlockTableRecord
2
*PAPER_SPACE
0
ENDTAB
0
ENDSEC
0
SECTION
2
BLOCKS
0
BLOCK
5
20
100
AcDbEntity
100
AcDbBlockBegin
2
*MODEL_SPACE
0
ENDBLK
5
21
100
AcDbEntity
100
AcDbBlockEnd
0
BLOCK
5
1C
100
AcDbEntity
100
AcDbBlockBegin
2
*PAPER_SPACE
0
ENDBLK
5
1D
100
AcDbEntity
100
AcDbBlockEnd
0
ENDSEC
0
SECTION
2
ENTITIES
0
LWPOLYLINE
5
100
100
AcDbEntity
8
0
100
AcDbPolyline
90
4
70
1
43
0.0
10
-210.48715184261363
20
41.488393494050641
10
-217.3871518426136
20
41.488393494050619
10
-217.38715184261224
20
-353.51160650594932
10
-210.48715184261226
20
-353.51160650594932
0
ARC
5
101
100
AcDbEntity
8
0
100
AcDbCircle
10
-211.38715184261355
20
35.488393494050229
30
0
40
6.0000000000000853
210
-2.80519416372353e-33
220
-5.1530580803862857e-49
230
1
100
AcDbArc
50
90
51
180
0
ARC
5
102
100
AcDbEntity
8
0
100
AcDbCircle
10
211.61284815738642
20
35.488393494050342
30
0
40
5.9999999999999787
210
-2.8051941637184499e-33
220
7.314425100148059e-80
230
1
100
AcDbArc
50
0
51
90
0
LINE
5
103
100
AcDbEntity
8
0
100
AcDbLine
10
-211.38715184261355
20
41.488393494050314
30
0
11
211.61284815738642
21
41.488393494050314
31
-3.3740049770556517e-30
0
LINE
5
104
100
AcDbEntity
8
0
100
AcDbLine
10
217.6128481573864
20
35.488393494050342
30
0
11
217.61284815738634
21
-347.5116065059479
31
0
0
ARC
5
105
100
AcDbEntity
8
0
100
AcDbCircle
10
211.61284815738625
20
-347.51160650594784
30
0
40
6.0000000000000853
210
1.6155057930137593e-33
220
1.9428195363167251e-47
230
1
100
AcDbArc
50
270.0000000000008
51
360
0
LINE
5
106
100
AcDbEntity
8
0
100
AcDbLine
10
211.61284815738634
20
-353.51160650594795
30
0
11
-211.38715184261349
21
-353.51160650594795
31
3.3740049770556937e-30
0
ARC
5
107
100
AcDbEntity
8
0
100
AcDbCircle
10
-211.38715184261355
20
-347.5116065059479
30
0
40
6.0000000000000142
210
-2.8051941637201146e-33
220
7.3144251001523991e-80
230
1
100
AcDbArc
50
180
51
270
0
LINE
5
108
100
AcDbEntity
8
0
100
AcDbLine
10
-217.38715184261355
20
-347.5116065059479
30
0
11
-217.38715184261335
21
35.488393494050356
31
0
0
LWPOLYLINE
5
109
100
AcDbEntity
8
0
100
AcDbPolyline
90
4
70
1
43
0.0
10
-197.38715184261207
20
-340.51160650594932
10
-197.38715184261201
20
-346.51160650594926
10
197.6128481573879
20
-346.5116065059479
10
197.61284815738787
20
-340.51160650594795
0
LWPOLYLINE
5
110
100
AcDbEntity
8
0
100
AcDbPolyline
90
4
70
1
43
0.0
10
210.61284815738605
20
41.488393494052069
10
204.61284815738617
20
41.488393494052048
10
204.6128481573875
20
-353.51160650594795
10
210.61284815738742
20
-353.51160650594795
0
LWPOLYLINE
5
111
100
AcDbEntity
8
0
100
AcDbPolyline
90
4
70
1
43
0.0
10
-204.38715184261355
20
41.488393494050655
10
-210.38715184261363
20
41.488393494050641
10
-210.3871518426123
20
-353.51160650594932
10
-204.38715184261218
20
-353.51160650594932
0
LWPOLYLINE
5
112
100
AcDbEntity
8
0
100
AcDbPolyline
90
4
70
1
43
0.0
10
197.61284815738659
20
28.488393494051714
10
197.61284815738659
20
34.488393494051714
10
-197.38715184261341
20
34.488393494050356
10
-197.38715184261341
20
28.488393494050356
0
LWPOLYLINE
5
113
100
AcDbEntity
8
0
100
AcDbPolyline
90
4
70
1
43
0.0
10
-135.38715184261224
20
-333.51160650594801
10
-129.38715184261224
20
-333.51160650594801
10
-129.38715184261233
20
21.488393494051863
10
-135.38715184261233
20
21.48839349405182
0
LINE
5
114
100
AcDbEntity
8
0
100
AcDbLine
10
-197.38715184261201
20
-343.51160650594926
30
4.9303806576313238e-31
11
197.6128481573879
21
-343.51160650594795
31
-1.7522793242124935e-30
0
LINE
5
115
100
AcDbEntity
8
0
100
AcDbLine
10
207.61284815738748
20
-353.51160650594795
30
8.7123219757657105e-31
11
207.61284815738611
21
41.488393494052062
31
-7.2620040879746418e-30
0
LINE
5
116
100
AcDbEntity
8
0
100
AcDbLine
10
197.61284815738659
20
31.488393494051714
30
0
11
-197.38715184261341
21
31.488393494050353
31
2.008159839355424e-30
0
LINE
5
117
100
AcDbEntity
8
0
100
AcDbLine
10
-207.3871518426136
20
41.488393494050648
30
6.2660496423537712e-31
11
-207.38715184261224
21
-353.51160650594932
31
8.7123219757667054e-31
0
CIRCLE
5
118
100
AcDbEntity
8
0
100
AcDbCircle
10
-207.38715184261238
20
11.488393494050646
30
7.4891858090602383e-31
40
1.7500000000000002
210
0
220
0
230
1
0
CIRCLE
5
119
100
AcDbEntity
8
0
100
AcDbCircle
10
-187.38715184261343
20
31.488393494050413
30
1.004079919677712e-30
40
1.7500000000000002
210
0
220
0
230
1
0
CIRCLE
5
120
100
AcDbEntity
8
0
100
AcDbCircle
10
-207.38715184261224
20
-323.51160650594932
30
8.7123219757667054e-31
40
1.7500000000000115
210
0
220
0
230
1
0
CIRCLE
5
121
100
AcDbEntity
8
0
100
AcDbCircle
10
-187.38715184261355
20
-343.51160650594761
30
-6.2962062922468057e-31
40
1.7499999999999725
210
0
220
0
230
1
0
CIRCLE
5
122
100
AcDbEntity
8
0
100
AcDbCircle
10
187.61284815738634
20
-343.51160650591203
30
-6.2962062922468057e-31
40
1.7499999999999938
210
0
220
0
230
1
0
CIRCLE
5
123
100
AcDbEntity
8
0
100
AcDbCircle
10
207.61284815738543
20
-323.51160650594795
30
-3.1953859451990354e-30
40
1.750000000000006
210
0
220
0
230
1
0
CIRCLE
5
124
100
AcDbEntity
8
0
100
AcDbCircle
10
207.6128481573873
20
11.488393494052058
30
-3.1953859451990354e-30
40
1.7499999999999873
210
0
220
0
230
1
0
CIRCLE
5
125
100
AcDbEntity
8
0
100
AcDbCircle
10
187.61284815738634
20
31.488393494051049
30
1.004079919677712e-30
40
1.7500000000000024
210
0
220
0
230
1
0
CIRCLE
5
126
100
AcDbEntity
8
0
100
AcDbCircle
10
-207.38715184261292
20
-156.01160650594935
30
7.4891858090602383e-31
40
1.7500000000000104
210
0
220
0
230
1
0
CIRCLE
5
127
100
AcDbEntity
8
0
100
AcDbCircle
10
-207.38715184261304
20
-72.261606505949359
30
7.4891858090602383e-31
40
1.7500000000000071
210
0
220
0
230
1
0
CIRCLE
5
128
100
AcDbEntity
8
0
100
AcDbCircle
10
-207.3871518426136
20
-239.76160650594935
30
7.4891858090602383e-31
40
1.749999999999986
210
0
220
0
230
1
0
CIRCLE
5
129
100
AcDbEntity
8
0
100
AcDbCircle
10
207.61284815738679
20
-156.01160650594792
30
-3.1953859451990354e-30
40
1.7500000000000047
210
0
220
0
230
1
0
CIRCLE
5
130
100
AcDbEntity
8
0
100
AcDbCircle
10
207.61284815738676
20
-72.261606505947938
30
-3.1953859451990354e-30
40
1.7500000000000071
210
0
220
0
230
1
0
CIRCLE
5
131
100
AcDbEntity
8
0
100
AcDbCircle
10
207.61284815738691
20
-239.76160650594792
30
-3.1953859451990354e-30
40
1.7500000000000071
210
0
220
0
230
1
0
CIRCLE
5
132
100
AcDbEntity
8
0
100
AcDbCircle
10
-132.38715184261238
20
11.488393494050646
30
7.4891858090602383e-31
40
1.7500000000000002
210
0
220
0
230
1
0
CIRCLE
5
133
100
AcDbEntity
8
0
100
AcDbCircle
10
-132.38715184261304
20
-72.261606505949359
30
7.4891858090602383e-31
40
1.7500000000000071
210
0
220
0
230
1
0
CIRCLE
5
134
100
AcDbEntity
8
0
100
AcDbCircle
10
-132.38715184261292
20
-156.01160650594935
30
7.4891858090602383e-31
40
1.7500000000000104
210
0
220
0
230
1
0
CIRCLE
5
135
100
AcDbEntity
8
0
100
AcDbCircle
10
-132.3871518426136
20
-239.76160650594935
30
7.4891858090602383e-31
40
1.749999999999986
210
0
220
0
230
1
0
CIRCLE
5
136
100
AcDbEntity
8
0
100
AcDbCircle
10
-132.38715184261224
20
-323.51160650594932
30
8.7123219757667054e-31
40
1.7500000000000115
210
0
220
0
230
1
0
CIRCLE
5
137
100
AcDbEntity
8
0
100
AcDbCircle
10
0.11284815738793696
20
-343.51160650594863
30
-6.2962062922468057e-31
40
1.7499999999999969
210
0
220
0
230
1
0
CIRCLE
5
138
100
AcDbEntity
8
0
100
AcDbCircle
10
-93.637151842612809
20
-343.51160650594812
30
-6.2962062922468057e-31
40
1.7500000000000071
210
0
220
0
230
1
0
CIRCLE
5
139
100
AcDbEntity
8
0
100
AcDbCircle
10
93.862848157385599
20
-343.51160650594915
30
-6.2962062922468057e-31
40
1.7500000000000071
210
0
220
0
230
1
0
CIRCLE
5
140
100
AcDbEntity
8
0
100
AcDbCircle
10
-187.38715184261355
20
31.48839349405236
30
-6.2962062922468057e-31
40
1.7499999999999725
210
0
220
0
230
1
0
CIRCLE
5
141
100
AcDbEntity
8
0
100
AcDbCircle
10
0.11284815738793696
20
31.488393494051365
30
-6.2962062922468057e-31
40
1.7499999999999969
210
0
220
0
230
1
0
CIRCLE
5
142
100
AcDbEntity
8
0
100
AcDbCircle
10
187.61284815738634
20
31.488393494087958
30
-6.2962062922468057e-31
40
1.7499999999999938
210
0
220
0
230
1
0
CIRCLE
5
143
100
AcDbEntity
8
0
100
AcDbCircle
10
-93.637151842612809
20
31.488393494051863
30
-6.2962062922468057e-31
40
1.7500000000000071
210
0
220
0
230
1
0
CIRCLE
5
144
100
AcDbEntity
8
0
100
AcDbCircle
10
93.862848157385599
20
31.488393494050868
30
-6.2962062922468057e-31
40
1.7500000000000071
210
0
220
0
230
1
0
ENDSEC
0
SECTION
2
OBJECTS
0
DICTIONARY
5
C
100
AcDbDictionary
3
ACAD_GROUP
350
D
3
ACAD_MLINESTYLE
350
17
0
DICTIONARY
5
D
100
AcDbDictionary
0
DICTIONARY
5
1A
330
C
100
AcDbDictionary
0
DICTIONARY
5
17
100
AcDbDictionary
0
ENDSEC
0
EOF
